<?xml version="1.0" encoding="UTF-8" standalone="no"?>
<!-- Created with Inkscape (http://www.inkscape.org/) -->

<svg
   xmlns:dc="http://purl.org/dc/elements/1.1/"
   xmlns:cc="http://creativecommons.org/ns#"
   xmlns:rdf="http://www.w3.org/1999/02/22-rdf-syntax-ns#"
   xmlns:svg="http://www.w3.org/2000/svg"
   xmlns="http://www.w3.org/2000/svg"
   xmlns:sodipodi="http://sodipodi.sourceforge.net/DTD/sodipodi-0.dtd"
   xmlns:inkscape="http://www.inkscape.org/namespaces/inkscape"
   width="210mm"
   height="297mm"
   viewBox="0 0 210 297"
   version="1.1"
   id="svg1192"
   inkscape:version="0.92.2 (5c3e80d, 2017-08-06)"
   sodipodi:docname="sheet.svg">
  <defs
     id="defs1186" />
  <sodipodi:namedview
     id="base"
     pagecolor="#b4b4b4"
     bordercolor="#666666"
     borderopacity="1.0"
     inkscape:pageopacity="0"
     inkscape:pageshadow="2"
     inkscape:zoom="0.7"
     inkscape:cx="193.02386"
     inkscape:cy="848.06059"
     inkscape:document-units="mm"
     inkscape:current-layer="layer1"
     showgrid="false"
     inkscape:window-width="1920"
     inkscape:window-height="1017"
     inkscape:window-x="-8"
     inkscape:window-y="-8"
     inkscape:window-maximized="1" />
  <metadata
     id="metadata1189">
    <rdf:RDF>
      <cc:Work
         rdf:about="">
        <dc:format>image/svg+xml</dc:format>
        <dc:type
           rdf:resource="http://purl.org/dc/dcmitype/StillImage" />
        <dc:title></dc:title>
      </cc:Work>
    </rdf:RDF>
  </metadata>
  <g
     inkscape:label="Layer 1"
     inkscape:groupmode="layer"
     id="layer1">
    <g
       transform="matrix(-1,0,0,1,601.11819,5.7896866)"
       style="display:inline"
       id="g1855">
      <path
         inkscape:connector-curvature="0"
         id="rect6578-6"
         transform="matrix(-0.26458333,0,0,0.26458333,793.20229,-339.081)"
         d="m 1427.2402,1409.2168 1.8086,4.2949 -7.5918,57.5274 13.3496,2.1308 7.5899,-57.5273 -1.1563,-3.9883 z"
         style="opacity:1;fill:#5e81e0;fill-opacity:1;fill-rule:nonzero;stroke:none;stroke-width:0.67552578;stroke-linecap:round;stroke-linejoin:round;stroke-miterlimit:4;stroke-dasharray:none;stroke-dashoffset:0;stroke-opacity:1;paint-order:normal" />
      <circle
         r="0.58817774"
         cy="38.513615"
         cx="413.81674"
         id="path6627-3"
         style="opacity:1;fill:#000000;fill-opacity:1;fill-rule:nonzero;stroke:none;stroke-width:0.10374688;stroke-linecap:round;stroke-linejoin:round;stroke-miterlimit:4;stroke-dasharray:none;stroke-dashoffset:0;stroke-opacity:1;paint-order:normal" />
      <circle
         r="0.58817774"
         cy="47.961597"
         cx="414.98605"
         id="path6627-2-9"
         style="opacity:1;fill:#000000;fill-opacity:1;fill-rule:nonzero;stroke:none;stroke-width:0.10374689;stroke-linecap:round;stroke-linejoin:round;stroke-miterlimit:4;stroke-dasharray:none;stroke-dashoffset:0;stroke-opacity:1;paint-order:normal" />
      <circle
         r="0.58817774"
         cy="43.003742"
         cx="414.37802"
         id="path6627-4-8"
         style="opacity:1;fill:#000000;fill-opacity:1;fill-rule:nonzero;stroke:none;stroke-width:0.10374689;stroke-linecap:round;stroke-linejoin:round;stroke-miterlimit:4;stroke-dasharray:none;stroke-dashoffset:0;stroke-opacity:1;paint-order:normal" />
    </g>
    <g
       transform="matrix(-1,0,0,1,601.11819,5.7896866)"
       style="display:inline"
       id="g1861">
      <path
         inkscape:connector-curvature="0"
         id="rect6578-1-5"
         transform="matrix(-0.26458333,0,0,0.26458333,793.20229,-339.081)"
         d="m 1346.2539,1420.6465 -6.0508,45.7109 -3.9629,1.7344 13.625,1.5 3.7364,-1.9629 6.0507,-45.7129 z"
         style="opacity:1;fill:#5e81e0;fill-opacity:1;fill-rule:nonzero;stroke:none;stroke-width:0.60078067;stroke-linecap:round;stroke-linejoin:round;stroke-miterlimit:4;stroke-dasharray:none;stroke-dashoffset:0;stroke-opacity:1;paint-order:normal" />
      <circle
         r="0.58817774"
         cy="38.834293"
         cx="435.57095"
         id="path6627-9-6"
         style="opacity:1;fill:#000000;fill-opacity:1;fill-rule:nonzero;stroke:none;stroke-width:0.10374689;stroke-linecap:round;stroke-linejoin:round;stroke-miterlimit:4;stroke-dasharray:none;stroke-dashoffset:0;stroke-opacity:1;paint-order:normal" />
      <circle
         r="0.58817774"
         cy="47.532475"
         cx="436.69543"
         id="path6627-9-4-0"
         style="opacity:1;fill:#000000;fill-opacity:1;fill-rule:nonzero;stroke:none;stroke-width:0.1037469;stroke-linecap:round;stroke-linejoin:round;stroke-miterlimit:4;stroke-dasharray:none;stroke-dashoffset:0;stroke-opacity:1;paint-order:normal" />
      <circle
         r="0.58817774"
         cy="43.133778"
         cx="436.06705"
         id="path6627-9-9-2"
         style="opacity:1;fill:#000000;fill-opacity:1;fill-rule:nonzero;stroke:none;stroke-width:0.1037469;stroke-linecap:round;stroke-linejoin:round;stroke-miterlimit:4;stroke-dasharray:none;stroke-dashoffset:0;stroke-opacity:1;paint-order:normal" />
    </g>
    <g
       transform="matrix(-1,0,0,1,601.11819,5.7896866)"
       style="display:inline"
       id="g1849">
      <rect
         transform="matrix(0.99458266,-0.1039487,0.11927119,0.99286171,0,0)"
         y="106.6934"
         x="404.78012"
         height="12.204585"
         width="3.2405374"
         id="rect6578-1-2-3-6"
         style="opacity:1;fill:#5e81e0;fill-opacity:1;fill-rule:nonzero;stroke:none;stroke-width:0.15171273;stroke-linecap:round;stroke-linejoin:round;stroke-miterlimit:4;stroke-dasharray:none;stroke-dashoffset:0;stroke-opacity:1;paint-order:normal" />
      <circle
         r="0.58817774"
         cy="73.643539"
         cx="418.22421"
         id="path6627-9-5-3"
         style="opacity:1;fill:#000000;fill-opacity:1;fill-rule:nonzero;stroke:none;stroke-width:0.1037469;stroke-linecap:round;stroke-linejoin:round;stroke-miterlimit:4;stroke-dasharray:none;stroke-dashoffset:0;stroke-opacity:1;paint-order:normal" />
      <circle
         r="0.58817774"
         cy="65.457977"
         cx="417.14935"
         id="path6627-9-1-6"
         style="opacity:1;fill:#000000;fill-opacity:1;fill-rule:nonzero;stroke:none;stroke-width:0.1037469;stroke-linecap:round;stroke-linejoin:round;stroke-miterlimit:4;stroke-dasharray:none;stroke-dashoffset:0;stroke-opacity:1;paint-order:normal" />
      <circle
         r="0.58817774"
         cy="69.294449"
         cx="417.72812"
         id="path6627-9-19-3"
         style="opacity:1;fill:#000000;fill-opacity:1;fill-rule:nonzero;stroke:none;stroke-width:0.1037469;stroke-linecap:round;stroke-linejoin:round;stroke-miterlimit:4;stroke-dasharray:none;stroke-dashoffset:0;stroke-opacity:1;paint-order:normal" />
    </g>
    <g
       transform="matrix(-1,0,0,1,601.11819,5.7896866)"
       style="display:inline"
       id="g1843">
      <path
         inkscape:connector-curvature="0"
         id="rect6578-1-2-1"
         transform="matrix(-0.26458333,0,0,0.26458333,793.20229,-339.081)"
         d="m 1332.2227,1513.8438 -5.502,52.9355 2.207,2.5 14.4375,1.625 -4.4629,-2.6523 5.502,-52.9375 z"
         style="opacity:1;fill:#5e81e0;fill-opacity:1;fill-rule:nonzero;stroke:none;stroke-width:0.61643183;stroke-linecap:round;stroke-linejoin:round;stroke-miterlimit:4;stroke-dasharray:none;stroke-dashoffset:0;stroke-opacity:1;paint-order:normal" />
      <circle
         r="0.58817774"
         cy="64.383133"
         cx="439.49011"
         id="path6627-9-2-4"
         style="opacity:1;fill:#000000;fill-opacity:1;fill-rule:nonzero;stroke:none;stroke-width:0.1037469;stroke-linecap:round;stroke-linejoin:round;stroke-miterlimit:4;stroke-dasharray:none;stroke-dashoffset:0;stroke-opacity:1;paint-order:normal" />
      <circle
         r="0.58817774"
         cy="73.803223"
         cx="440.40674"
         id="path6627-9-15-2"
         style="opacity:1;fill:#000000;fill-opacity:1;fill-rule:nonzero;stroke:none;stroke-width:0.1037469;stroke-linecap:round;stroke-linejoin:round;stroke-miterlimit:4;stroke-dasharray:none;stroke-dashoffset:0;stroke-opacity:1;paint-order:normal" />
      <circle
         r="0.58817774"
         cy="68.892136"
         cx="439.89224"
         id="path6627-9-41-5"
         style="opacity:1;fill:#000000;fill-opacity:1;fill-rule:nonzero;stroke:none;stroke-width:0.1037469;stroke-linecap:round;stroke-linejoin:round;stroke-miterlimit:4;stroke-dasharray:none;stroke-dashoffset:0;stroke-opacity:1;paint-order:normal" />
    </g>
    <path
       style="display:inline;fill:#000000;stroke:none;stroke-width:0.0784848px;stroke-linecap:butt;stroke-linejoin:miter;stroke-opacity:1"
       d="m 167.83237,183.878 0.43449,-0.9195 3.39061,4.99946 1.76996,-3.71384 3.94333,-24.51436 -0.7751,-2.64125 0.54917,-0.47107 -0.38076,-1.44842 0.96761,-5.84383 -0.30599,-7.49382 0.77117,-5.0948 -0.64697,-2.7848 c 0,0 -0.46736,-0.72637 -0.62272,-0.0715 -0.15538,0.65479 -0.43396,1.92853 -0.43396,1.92853 l 0.43691,-5.153 -0.84761,-1.16579 -0.3067,0.10312 -1.92477,5.37769 -7.10497,46.56643 z"
       id="path5330-3-3-0-9-9-1-0-0"
       inkscape:connector-curvature="0" />
    <g
       transform="matrix(-1,0,0,1,-56.893627,24.762557)"
       style="display:inline"
       id="g6394-2-8">
      <path
         inkscape:connector-curvature="0"
         id="path6373-6-9"
         d="m -93.572376,152.59194 -0.0697,1.15734 3.42765,-0.26235 0.268674,-0.86749 -0.624002,-0.63962 z"
         style="fill:#000000;stroke:none;stroke-width:0.26458332px;stroke-linecap:butt;stroke-linejoin:miter;stroke-opacity:1" />
      <g
         transform="translate(5.7123977,-0.19843625)"
         id="g6383-7-8">
        <path
           style="fill:#5e81e0;fill-opacity:1;stroke:none;stroke-width:0.10475407px;stroke-linecap:butt;stroke-linejoin:miter;stroke-opacity:1"
           d="m -104.50686,155.47783 c -4.84198,0.60842 -7.28362,-0.94366 -14.55932,1.54629 -1.3369,-0.96567 -1.81456,-1.55904 -2.2041,-2.25116 -6.88083,2.20272 -9.59096,1.42636 -14.38446,2.13812 5.74458,-3.25232 7.91464,-1.50341 11.59923,-4.76224 0.46248,-1.09279 5.68426,0.47898 7.31865,-0.31727 -2.24282,-0.64953 -1.59682,-1.19384 -5.16717,-2.2767 7.82566,-0.22727 13.84123,3.28217 17.39155,2.93716 z"
           id="path6371-94-3"
           inkscape:connector-curvature="0"
           sodipodi:nodetypes="ccccccccc" />
      </g>
      <path
         sodipodi:nodetypes="ccccc"
         inkscape:connector-curvature="0"
         id="path6385-7-5"
         d="m -98.19748,154.61283 -0.628522,-0.27281 0.01791,0.26045 0.606296,0.26871 z"
         style="fill:#000000;stroke:none;stroke-width:0.194639px;stroke-linecap:butt;stroke-linejoin:miter;stroke-opacity:1" />
      <path
         style="fill:#000000;stroke:none;stroke-width:0.73564345px;stroke-linecap:butt;stroke-linejoin:miter;stroke-opacity:1"
         d="m -133.52344,61.894531 -0.5625,0.65625 v 2.148438 l -4.07422,3.070312 -8.45507,-3.4375 -7.47461,0.9375 0.0332,2.125 7.47461,-1.3125 8.01758,3.75 2.75586,3 -0.0156,-0.96875 -1.72656,-2.15625 0.40625,-1.375 3.05859,-2.384765 v 9.447265 l 0.625,0.53125 0.5,-0.78125 v -12.5625 c 0,0 -0.4374,-0.593767 -0.5625,-0.6875 z"
         id="path6375-0-2"
         transform="matrix(-0.26458333,0,0,0.26458333,-134.13452,135.59916)"
         inkscape:connector-curvature="0" />
    </g>
    <path
       style="display:inline;fill:#000000;stroke:none;stroke-width:0.10465996px;stroke-linecap:butt;stroke-linejoin:miter;stroke-opacity:1"
       d="m 56.234723,95.324254 0.85757,0.627539 -5.03541,7.284147 3.46272,2.56268 23.358291,2.52528 2.59443,-1.95897 0.418169,0.9287 1.419881,-0.99188 5.566439,0.65337 7.23832,-2.03816 4.857687,0.43489 2.72439,-1.74888 c 0,0 0.72997,-1.01138 0.10928,-1.1718 -0.62069,-0.1604 -1.82957,-0.42874 -1.82957,-0.42874 l 4.93539,-0.19798 1.17787,-1.804476 -0.0795,-0.55 -5.05543,-2.524311 -44.395377,-4.079999 z"
       id="path5330-3-46-5-9-8-2"
       inkscape:connector-curvature="0" />
    <path
       style="display:inline;fill:#000000;stroke:none;stroke-width:0.10587596px;stroke-linecap:butt;stroke-linejoin:miter;stroke-opacity:1"
       d="m 103.16856,76.06698 -0.87763,0.45433 5.15309,8.301232 -3.54362,1.863259 -23.904236,-2.192732 -2.65507,-2.482999 -0.427951,0.844241 -1.45306,-1.278691 -5.69654,-0.47095 -7.40749,-3.50019 -4.97121,-0.54628 -2.78809,-2.29917 c 0,0 -0.74703,-1.15882 -0.11183,-1.19387 0.6352,-0.0351 1.87233,-0.0592 1.87233,-0.0592 l -5.05075,-1.19487 -1.20538,-2.04237 0.0814,-0.53392 5.17357,-1.50321 45.432987,4.88718 z"
       id="path5330-3-4-7-1-8-4-9"
       inkscape:connector-curvature="0" />
    <path
       style="display:inline;fill:#000000;stroke:none;stroke-width:0.11410538px;stroke-linecap:butt;stroke-linejoin:miter;stroke-opacity:1"
       d="m 109.84408,63.347893 -1.42513,-0.62182 -0.36164,-8.003449 -5.7773,-2.541371 -27.223757,-1.45877 -1.24152,2.21741 -1.19049,-0.96484 -0.74331,1.12832 -6.52865,-0.40245 -6.19131,2.544991 -5.58971,-0.20745 -1.54901,2.00101 c 0,0 0.0169,1.112849 0.81464,1.25077 0.79769,0.13795 2.31615,0.35966 2.31615,0.35966 l -5.16994,0.46906 0.16467,1.979009 0.52351,0.58021 7.46605,2.41713 51.169467,2.00799 z"
       id="path5330-3-4-3-0-0-2-0-7"
       inkscape:connector-curvature="0" />
    <path
       style="display:inline;fill:#000000;stroke:none;stroke-width:0.0614781px;stroke-linecap:butt;stroke-linejoin:miter;stroke-opacity:1"
       d="m 135.59232,149.93567 0.24008,0.75844 -4.43141,-0.47971 0.96151,3.07282 10.55236,15.38071 1.78898,0.89709 -0.0543,0.59541 0.95698,0.52001 2.50052,3.68398 4.04704,3.7444 2.21938,3.16592 1.7937,1.05369 c 0,0 0.63011,0.0857 0.37539,-0.35686 -0.25466,-0.44252 -0.7629,-1.28837 -0.7629,-1.28837 l 2.43113,2.9848 1.06429,0.0758 0.11319,-0.24847 -1.73902,-4.04529 -20.25435,-28.97228 z"
       id="path5330-3-3-0-3-3-7-9-0-1"
       inkscape:connector-curvature="0" />
  </g>
</svg>
