<?xml version="1.0" encoding="UTF-8" standalone="no"?>
<!-- Created with Inkscape (http://www.inkscape.org/) -->

<svg
   width="128"
   height="64"
   viewBox="0 0 33.866666 16.933334"
   version="1.1"
   id="svg5"
   inkscape:version="1.1 (c68e22c387, 2021-05-23)"
   sodipodi:docname="arrow_select_down_shine.svg"
   xmlns:inkscape="http://www.inkscape.org/namespaces/inkscape"
   xmlns:sodipodi="http://sodipodi.sourceforge.net/DTD/sodipodi-0.dtd"
   xmlns="http://www.w3.org/2000/svg"
   xmlns:svg="http://www.w3.org/2000/svg">
  <sodipodi:namedview
     id="namedview7"
     pagecolor="#d5d5d5"
     bordercolor="#666666"
     borderopacity="1.0"
     inkscape:pageshadow="2"
     inkscape:pageopacity="0"
     inkscape:pagecheckerboard="true"
     inkscape:document-units="mm"
     showgrid="false"
     units="px"
     inkscape:zoom="8.3856039"
     inkscape:cx="58.493104"
     inkscape:cy="20.213213"
     inkscape:window-width="1920"
     inkscape:window-height="1017"
     inkscape:window-x="1912"
     inkscape:window-y="-8"
     inkscape:window-maximized="1"
     inkscape:current-layer="layer1" />
  <defs
     id="defs2" />
  <g
     inkscape:label="Layer 1"
     inkscape:groupmode="layer"
     id="layer1">
    <path
       id="path2694"
       style="color:#000000;fill:#ffffff;fill-opacity:0.75;stroke-width:0.158183;stroke-linejoin:round;-inkscape-stroke:none"
       d="m 20.629748,5.7014607 c 0.0058,0.00132 0.01015,0.0023 0.01602,0.00362 0.158466,0.035788 0.32715,0.076524 0.496094,0.1209228 0.168943,0.044398 0.337846,0.092828 0.496093,0.1441773 0.07912,0.025675 0.15593,0.051964 0.22841,0.079065 0.07248,0.027101 0.140932,0.054879 0.204122,0.083199 0.06319,0.028321 0.12083,0.056968 0.172082,0.0863 0.05125,0.029332 0.09614,0.059264 0.132809,0.0894 0.01834,0.015068 0.03438,0.030245 0.04858,0.045475 0.01419,0.015229 0.02645,0.030625 0.03617,0.045992 0.0097,0.015367 0.01679,0.030515 0.0217,0.045992 0.0049,0.015478 0.0075,0.031464 0.0072,0.047025 -4.24e-4,0.029292 -0.0028,0.05784 -0.0078,0.0863 -0.0049,0.02846 -0.01205,0.05661 -0.02119,0.084233 -0.0091,0.027623 -0.02053,0.054868 -0.03359,0.081649 -0.01306,0.02678 -0.02774,0.053132 -0.04444,0.079065 -0.0167,0.025932 -0.03525,0.051402 -0.05529,0.076481 -0.02004,0.02508 -0.04202,0.049677 -0.06511,0.073897 -0.04618,0.048441 -0.09788,0.09507 -0.154512,0.1400431 -0.05663,0.044973 -0.11819,0.088245 -0.182935,0.1297078 -0.06474,0.041463 -0.13256,0.081463 -0.203088,0.1193726 -0.07053,0.037909 -0.143581,0.073691 -0.217558,0.1080037 -0.07398,0.034313 -0.149183,0.066996 -0.224276,0.097669 -0.07509,0.030673 -0.149885,0.05931 -0.223759,0.0863 -0.07387,0.02699 -0.146719,0.052184 -0.217041,0.075448 -0.140644,0.046527 -0.27204,0.085426 -0.384472,0.1167887 -0.112433,0.031363 -0.20575,0.055459 -0.271302,0.071314 -0.06555,0.015854 -0.103353,0.02377 -0.103353,0.02377 l -1.338934,2.3941703 4.930965,-3.9951048 c 0.513341,-0.4169077 0.04169,-1.1979262 -0.59893,-0.9916708 0,0 -1.133033,0.1718197 -2.442745,0.3513998 z" />
  </g>
</svg>
