<?xml version="1.0" encoding="UTF-8" standalone="no"?>
<!-- Created with Inkscape (http://www.inkscape.org/) -->

<svg
   width="2048"
   height="1024"
   viewBox="0 0 541.8666 270.9333"
   version="1.1"
   id="svg10398"
   inkscape:version="1.1 (c68e22c387, 2021-05-23)"
   sodipodi:docname="frontview.svg"
   inkscape:export-filename="C:\Users\Guerro\Documents\Patapon\Patapon4Rewrite\Assets\Textures\Backgrounds\Patapolis\Buildings\barracksv2.png"
   inkscape:export-xdpi="96.00001"
   inkscape:export-ydpi="96.00001"
   xmlns:inkscape="http://www.inkscape.org/namespaces/inkscape"
   xmlns:sodipodi="http://sodipodi.sourceforge.net/DTD/sodipodi-0.dtd"
   xmlns:xlink="http://www.w3.org/1999/xlink"
   xmlns="http://www.w3.org/2000/svg"
   xmlns:svg="http://www.w3.org/2000/svg"
   xmlns:rdf="http://www.w3.org/1999/02/22-rdf-syntax-ns#"
   xmlns:cc="http://creativecommons.org/ns#"
   xmlns:dc="http://purl.org/dc/elements/1.1/">
  <defs
     id="defs10392">
    <linearGradient
       inkscape:collect="always"
       xlink:href="#linearGradient4287"
       id="linearGradient8026"
       gradientUnits="userSpaceOnUse"
       gradientTransform="matrix(2.100291,0,0,2.012371,244.8836,-244.60522)"
       x1="35.71874"
       y1="264.7775"
       x2="35.71874"
       y2="235.2953" />
    <linearGradient
       inkscape:collect="always"
       id="linearGradient4287">
      <stop
         style="stop-color:#ac6107;stop-opacity:1"
         offset="0"
         id="stop4289" />
      <stop
         style="stop-color:#f0dd57;stop-opacity:1"
         offset="1"
         id="stop4291" />
    </linearGradient>
  </defs>
  <sodipodi:namedview
     id="base"
     pagecolor="#ffffff"
     bordercolor="#666666"
     borderopacity="1.0"
     inkscape:pageopacity="0.0"
     inkscape:pageshadow="2"
     inkscape:zoom="0.4949748"
     inkscape:cx="809.1321"
     inkscape:cy="287.89344"
     inkscape:document-units="mm"
     inkscape:current-layer="layer1"
     showgrid="false"
     units="px"
     inkscape:window-width="1920"
     inkscape:window-height="1017"
     inkscape:window-x="1912"
     inkscape:window-y="-8"
     inkscape:window-maximized="1"
     inkscape:pagecheckerboard="0" />
  <metadata
     id="metadata10395">
    <rdf:RDF>
      <cc:Work
         rdf:about="">
        <dc:format>image/svg+xml</dc:format>
        <dc:type
           rdf:resource="http://purl.org/dc/dcmitype/StillImage" />
      </cc:Work>
    </rdf:RDF>
  </metadata>
  <g
     inkscape:label="Calque 1"
     inkscape:groupmode="layer"
     id="layer1"
     transform="translate(0,-26.06666)">
    <path
       inkscape:connector-curvature="0"
       id="path7434-2"
       d="m 311.5987,119.16868 c 0.2194,2.05366 0.7294,3.97257 3.1432,5.98563 h 6.8208 6.8203 c 2.4136,-2.01306 2.9243,-3.93197 3.1435,-5.98563 h -9.9638 z"
       style="display:inline;fill:#141414;fill-opacity:1;fill-rule:evenodd;stroke:none;stroke-width:0.234853px;stroke-linecap:butt;stroke-linejoin:miter;stroke-opacity:1" />
    <path
       inkscape:connector-curvature="0"
       id="path7434-2-9"
       d="m 289.9872,119.16868 c 0.2192,2.05398 0.7294,3.97272 3.143,5.98594 h 6.8208 6.8205 c 2.4136,-2.01322 2.9242,-3.93196 3.1435,-5.98594 h -9.964 z"
       style="display:inline;fill:#141414;fill-opacity:1;fill-rule:evenodd;stroke:none;stroke-width:0.234853px;stroke-linecap:butt;stroke-linejoin:miter;stroke-opacity:1" />
    <path
       inkscape:connector-curvature="0"
       id="path7452-8"
       d="m 299.104,109.24888 h -0.1343 c -0.7338,0.0468 -1.2901,0.36916 -1.8135,0.92931 -1.2446,1.33267 -0.9196,3.21879 0.1109,4.31207 1.0915,1.15653 1.6662,1.96278 1.827,2.81339 0.097,0.50908 0.075,1.00521 0.022,1.50211 -0.3748,-0.40555 -0.7828,-0.80751 -1.4709,-1.00271 -1.0253,-0.29077 -1.3651,0.0593 -1.2713,-0.32388 0.084,-0.3398 0.9437,-0.22893 0.7315,-0.61683 -0.4137,-0.75629 -2.0281,1.21696 -0.5852,1.22289 2.6523,0.0203 1.5287,0.60481 2.1704,1.40045 l 0.322,-0.0344 c -0.02,0.12024 -0.044,0.23955 -0.069,0.36057 -0.08,0.40992 0.5359,0.52736 0.6146,0.11712 0.031,-0.16381 0.062,-0.32934 0.092,-0.49737 l 0.5065,0.0531 c 0.6413,-0.79549 -0.4821,-1.38952 2.1701,-1.40045 1.4428,0 -0.1722,-1.97903 -0.5853,-1.22274 -0.2119,0.3879 0.648,0.27703 0.7318,0.61683 0.094,0.3815 -0.2459,0.0344 -1.2716,0.32388 -0.6779,0.19114 -1.0841,0.58529 -1.4543,0.98491 0.061,-0.50831 0.073,-1.04019 -0.03,-1.60034 -0.189,-0.99505 -0.8775,-1.92967 -2.0287,-3.1674 -0.8476,-0.91104 -1.0609,-2.35163 -0.069,-3.41493 0.8183,-0.87622 1.7667,-1.01145 2.6421,-0.16584 0.6965,0.67273 0.3838,1.5844 0.1869,2.0824 -0.1975,0.498 -0.3406,0.81532 -0.1975,0.95446 0.1436,0.13898 0.2336,0.1343 0.6438,-0.34402 0.4101,-0.47911 0.7435,-2.23998 -0.1933,-3.14352 -0.5358,-0.51736 -0.9337,-0.75488 -1.5861,-0.74551 z"
       style="display:inline;fill:#141414;fill-opacity:1;fill-rule:evenodd;stroke:none;stroke-width:0.0827687px;stroke-linecap:butt;stroke-linejoin:miter;stroke-opacity:1"
       sodipodi:nodetypes="ccccccccccccccccccccccccczzzccc" />
    <path
       inkscape:connector-curvature="0"
       id="path7452-8-2"
       d="m 320.3175,99.052988 c -0.091,0 -0.1785,0 -0.2699,0 -1.4773,0.0921 -2.5973,0.74332 -3.6507,1.871112 -2.5059,2.68254 -1.8515,6.47943 0.2239,8.68051 2.1969,2.32836 3.3539,3.95134 3.6778,5.6638 0.1953,1.02473 0.153,2.02353 0.031,3.02389 -0.7544,-0.8164 -1.5758,-1.62563 -2.961,-2.01837 -2.0644,-0.5856 -4.9859,0.11712 -4.7971,-0.65213 0.1701,-0.68398 1.8999,-0.46067 1.4728,-1.24179 -0.8328,-1.52272 -4.0827,2.44985 -1.1779,2.46156 5.3391,0.0312 5.3147,1.21774 6.6065,2.81948 l 0.6481,-0.0687 c -0.042,0.24236 -0.091,0.48269 -0.139,0.72583 -0.1596,0.82563 1.079,1.06174 1.2377,0.23612 0.061,-0.32763 0.1265,-0.66259 0.1869,-1.00115 l 1.0194,0.10775 c 1.2915,-1.60158 1.2673,-2.79714 6.6067,-2.81916 2.9045,0 -0.3456,-3.98444 -1.178,-2.46172 -0.427,0.78112 1.3042,0.55781 1.4727,1.24163 0.1911,0.76785 -2.7326,0.0687 -4.7972,0.65213 -1.3649,0.38697 -2.1825,1.17855 -2.9279,1.98246 0.1218,-1.02301 0.1484,-2.09349 -0.061,-3.22144 -0.3788,-2.00291 -1.7663,-3.88466 -4.0838,-6.37636 -1.7063,-1.83426 -2.1361,-4.73416 -0.1389,-6.8745 1.6475,-1.764 3.5562,-2.036342 5.3185,-0.33466 1.402,1.35408 1.6059,3.04905 0.1995,4.4395 -1.0625,1.05034 -2.2248,1.19182 -3.2507,0.0796 -0.7135,-0.77299 -0.7965,-2.08396 0.031,-2.75514 0.2391,-0.19957 0.5993,-0.31716 0.9099,-0.30357 0.3111,0 0.5469,0.1218 0.7124,0.37494 0.053,0.0843 0.1015,0.28515 0.086,0.40367 -0.031,0.12025 0,0.10775 -0.073,0.12805 -0.8042,0.25142 -0.4254,1.45667 0.3775,1.20135 0.5532,-0.17428 0.8781,-0.69601 0.9433,-1.15356 0.069,-0.45724 -0.033,-0.89777 -0.2789,-1.27302 -0.4027,-0.61387 -0.7333,-0.85233 -1.6585,-0.981 -0.9251,-0.12806 -1.599,0.14054 -2.3297,0.8175 -0.7306,0.67524 -1.1288,3.13195 0.034,4.39217 1.5527,1.68294 3.8597,1.81505 5.3963,0.29764 1.947,-1.92468 1.6736,-4.75649 -0.2115,-6.57577 -1.0786,-1.041442 -1.8801,-1.519602 -3.1931,-1.500242 z"
       style="display:inline;fill:#141414;fill-opacity:1;fill-rule:evenodd;stroke:none;stroke-width:0.166625px;stroke-linecap:butt;stroke-linejoin:miter;stroke-opacity:1" />
    <path
       style="display:inline;fill:#141414;fill-opacity:1;fill-rule:evenodd;stroke:none;stroke-width:0.555702px;stroke-linecap:butt;stroke-linejoin:miter;stroke-opacity:1"
       d="m 249.1491,124.8284 0.6904,4.50086 h 108.2209 l 2.7959,-4.50086 z m 1.0855,7.08407 3.4057,22.21621 h 89.0165 l 13.7993,-22.21621 z"
       id="path8674"
       inkscape:connector-curvature="0" />
    <path
       style="display:inline;fill:#141414;fill-opacity:1;fill-rule:evenodd;stroke:none;stroke-width:0.555702px;stroke-linecap:butt;stroke-linejoin:miter;stroke-opacity:1"
       d="m 335.537,118.88431 v 49.02087 h 5.7555 v -47.23455 l -5.557,-5.75561 z"
       id="path8680"
       inkscape:connector-curvature="0" />
    <path
       inkscape:connector-curvature="0"
       style="display:inline;fill:#141414;fill-opacity:1;fill-rule:evenodd;stroke:none;stroke-width:0.223593px;stroke-linecap:butt;stroke-linejoin:miter;stroke-opacity:1"
       d="m 269.2697,100.54854 c 0,0 -1.0797,8.10989 -0.9781,12.18304 0.1015,4.07345 1.5893,12.18396 1.5893,12.18396 h 2.5548 10.8943 2.5547 c 0,0 1.4879,-8.11051 1.5895,-12.18396 0.1,-4.07315 -0.9783,-12.18304 -0.9783,-12.18304 h -3.3191 -10.5883 z"
       id="path7399-59-1-6-2-8-8" />
    <path
       inkscape:connector-curvature="0"
       style="display:inline;fill:#141414;fill-opacity:1;fill-rule:evenodd;stroke:none;stroke-width:0.172467px;stroke-linecap:butt;stroke-linejoin:miter;stroke-opacity:1"
       d="m 254.7666,106.60898 c 0,0 -0.8329,6.25549 -0.7545,9.39729 0.078,3.14211 1.2259,9.39805 1.2259,9.39805 h 1.9706 8.4033 1.9704 c 0,0 1.1478,-6.25594 1.2262,-9.39805 0.078,-3.1418 -0.7547,-9.39729 -0.7547,-9.39729 h -2.56 -8.1672 z"
       id="path7399-59-1-6-2-8-8-1" />
    <path
       inkscape:connector-curvature="0"
       style="display:inline;fill:#141414;fill-opacity:1;fill-rule:evenodd;stroke:none;stroke-width:0.159148px;stroke-linecap:butt;stroke-linejoin:miter;stroke-opacity:1"
       d="m 273.2407,83.618388 c 0,0 -0.7685,5.77232 -0.6962,8.67144 0.072,2.89928 1.1312,8.672062 1.1312,8.672062 h 1.8184 7.7546 1.8182 c 0,0 1.0589,-5.772782 1.1313,-8.672062 0.072,-2.89912 -0.6964,-8.67144 -0.6964,-8.67144 h -2.3623 -7.5364 z"
       id="path7399-59-1-6-2-8-8-1-3" />
    <path
       inkscape:connector-curvature="0"
       style="display:inline;fill:#141414;fill-opacity:1;fill-rule:evenodd;stroke:none;stroke-width:0.408506px;stroke-linecap:butt;stroke-linejoin:miter;stroke-opacity:1"
       d="m 219.1229,162.22338 -0.5077,3.3089 h -79.5547 l -2.0553,-3.3089 z m -0.7978,5.2077 -2.5039,16.3317 h -65.4374 l -10.144,-16.3317 z"
       id="path8674-5" />
    <path
       style="display:inline;fill:#141414;fill-opacity:1;fill-rule:evenodd;stroke:none;stroke-width:0.555702px;stroke-linecap:butt;stroke-linejoin:miter;stroke-opacity:1"
       d="m 162.5386,158.40588 v 149.0475 h -5.7555 v -147.2611 l 5.5572,-5.75565 z"
       id="path8680-9"
       inkscape:connector-curvature="0"
       sodipodi:nodetypes="cccccc" />
    <path
       style="display:inline;fill:#141414;fill-opacity:1;fill-rule:evenodd;stroke:none;stroke-width:0.555702px;stroke-linecap:butt;stroke-linejoin:miter;stroke-opacity:1"
       d="m 370.78249,170.72197 15.81456,4.3878 v -8.1171 h -6.88328 l -0.63702,-0.9187 5.26712,-11.1701 6.35589,2.9975 3.37329,-7.1547 -23.19184,-4.19291 1.90916,5.31871 8.89221,1.6061 -9.07451,10.7211 1.00267,2.793 h -3.82694 z"
       id="path10385"
       inkscape:connector-curvature="0" />
    <path
       inkscape:connector-curvature="0"
       style="display:inline;fill:#141414;fill-opacity:1;fill-rule:evenodd;stroke:none;stroke-width:0.555702px;stroke-linecap:butt;stroke-linejoin:miter;stroke-opacity:1"
       d="m 205.0485,145.97037 -40.8029,40.80161 -12.0235,12.0238 h 3.8747 2.6222 l 7.1385,-7.1397 h 6.2342 v 37.9573 l -65.32,29.7361 1.9439,5.7244 5.1055,-2.3233 v 1.8983 h 0.7977 v 1.8425 h 3.4449 v 4.6519 h -4.2426 v 2.061 h 4.2426 v 1.3881 h -1.8505 v 3.0465 h -2.3921 v 1.2624 h 2.3921 v 1.9419 h -1.5944 v 3.1107 h -0.7977 v 2.15 h 4.7528 v 2.021 l -0.5905,0.1576 v 1.3633 h -2.1522 v 4.7713 h -2.0101 v 3.3676 l 60.653,0.1616 v -6.1994 h 66.8091 8.9302 19.3758 v 7.2374 h 8.2801 v -7.2374 h 13.9479 v 7.2374 h 8.2801 v -7.2374 h 13.9481 v 7.2374 h 8.2801 v -7.2374 h 13.948 v 7.2374 h 8.2801 v -7.2374 h 13.9478 v 7.2374 h 8.2802 v -7.2374 h 13.948 v 7.2374 h 8.2802 v -7.2374 h 7.1567 20.4741 l 2.9772,-2.9769 0.736,-2.742 -24.1873,-1.4985 h -6.0314 l 0.6123,-2.8057 h 7.6638 v -12.3506 h -2.822 l 0.1974,-3.6486 h 2.6246 v -12.6301 h -5.518 v -3.0871 h 2.01 v -12.6304 h -2.01 v -2.5256 h 5.3779 v -11.9288 h -5.3779 v -2.2458 h 2.1501 v -11.0875 h -2.1501 v -1.9645 h 4.2546 v -9.6824 h -3.789 v -0.3353 l 0.4841,-1.9105 h 3.4461 v -8.8412 h -4.3958 v -1.8244 h 3.6934 v -3.5436 l 12.0497,4.1823 3.2105,-5.5606 -15.2602,-5.0418 -13.9912,-3.8832 -15.8149,-4.3878 -89.6677,-24.88671 -35.5974,-32.40724 -28.3594,28.35925 z"
       id="path10390" />
    <path
       style="display:inline;fill:#141414;fill-opacity:1;fill-rule:evenodd;stroke:none;stroke-width:0.555702px;stroke-linecap:butt;stroke-linejoin:miter;stroke-opacity:1"
       d="m 212.08113,143.06446 8.10879,-8.1088 v -11.1463 h 5.86316 v -4.14931 h -16.50852 v 4.41951 h 6.67621 v 11.3407 l -11.58079,-6.6857 v -10.76671 h 4.27643 l 2.6178,-7.8687 -17.97684,-1.4826 -1.54875,5.777 7.33694,1.9668 v 13.96971 z"
       id="path5758"
       inkscape:connector-curvature="0" />
    <g
       style="display:inline"
       transform="matrix(2.100291,0,0,2.100291,274.4097,-257.01942)"
       id="g8034">
      <path
         inkscape:connector-curvature="0"
         style="display:inline;fill:#141414;fill-opacity:1;fill-rule:evenodd;stroke:none;stroke-width:0.0907862px;stroke-linecap:butt;stroke-linejoin:miter;stroke-opacity:1"
         d="m 60.26297,249.0158 c 0,0 -0.43841,3.2929 -0.39714,4.9467 0.0413,1.6539 0.64532,4.947 0.64532,4.947 h 1.03731 4.42346 1.03726 c 0,0 0.60414,-3.2931 0.64541,-4.947 0.0413,-1.6538 -0.39723,-4.9467 -0.39723,-4.9467 h -1.34764 -4.29915 z"
         id="path7399-59-1-6-2-8" />
      <path
         inkscape:connector-curvature="0"
         style="display:inline;fill:#141414;fill-opacity:1;fill-rule:evenodd;stroke:none;stroke-width:0.0423492px;stroke-linecap:butt;stroke-linejoin:miter;stroke-opacity:1"
         d="m 61.28435,244.6463 c 0,0 -0.2045,1.536 -0.18525,2.3075 0.0193,0.7715 0.30102,2.3076 0.30102,2.3076 h 0.48388 2.06342 0.48385 c 0,0 0.28181,-1.5361 0.30106,-2.3076 0.0193,-0.7715 -0.1853,-2.3075 -0.1853,-2.3075 H 63.9184 61.91297 Z"
         id="path7399-59-1-6-2-8-0-1-1-5" />
    </g>
    <path
       inkscape:connector-curvature="0"
       id="path6017"
       d="m 186.7675,187.55318 h -18.8543 v 8.1372 h 19.2513 z"
       style="display:inline;fill:#141414;fill-opacity:1;fill-rule:evenodd;stroke:none;stroke-width:0.555702px;stroke-linecap:butt;stroke-linejoin:miter;stroke-opacity:1" />
    <path
       inkscape:connector-curvature="0"
       id="path6017-1"
       d="m 188.2475,197.73448 h -18.8544 v 8.1372 h 19.2513 z"
       style="display:inline;fill:#141414;fill-opacity:1;fill-rule:evenodd;stroke:none;stroke-width:0.555702px;stroke-linecap:butt;stroke-linejoin:miter;stroke-opacity:1" />
    <path
       inkscape:connector-curvature="0"
       id="path6017-1-7"
       d="m 188.911,207.32028 h -18.8542 v 8.1372 h 19.251 z"
       style="display:inline;fill:#141414;fill-opacity:1;fill-rule:evenodd;stroke:none;stroke-width:0.555702px;stroke-linecap:butt;stroke-linejoin:miter;stroke-opacity:1" />
    <path
       inkscape:connector-curvature="0"
       id="path6017-1-7-8"
       d="m 185.1783,217.20378 h -18.8544 v 8.1372 h 19.2513 z"
       style="display:inline;fill:#141414;fill-opacity:1;fill-rule:evenodd;stroke:none;stroke-width:0.555702px;stroke-linecap:butt;stroke-linejoin:miter;stroke-opacity:1" />
    <path
       inkscape:connector-curvature="0"
       id="path6017-1-7-8-1"
       d="m 188.069,226.69038 h -18.8542 v 8.1372 h 19.2511 z"
       style="display:inline;fill:#141414;fill-opacity:1;fill-rule:evenodd;stroke:none;stroke-width:0.555702px;stroke-linecap:butt;stroke-linejoin:miter;stroke-opacity:1" />
    <path
       inkscape:connector-curvature="0"
       id="path6017-1-7-8-1-9"
       d="m 184.4993,236.17698 h -18.8544 v 8.1372 h 19.2513 z"
       style="display:inline;fill:#141414;fill-opacity:1;fill-rule:evenodd;stroke:none;stroke-width:0.555702px;stroke-linecap:butt;stroke-linejoin:miter;stroke-opacity:1" />
    <path
       inkscape:connector-curvature="0"
       id="path6017-1-7-8-1-9-7"
       d="m 188.069,245.66378 h -18.8542 v 8.1372 h 19.2511 z"
       style="display:inline;fill:#141414;fill-opacity:1;fill-rule:evenodd;stroke:none;stroke-width:0.555702px;stroke-linecap:butt;stroke-linejoin:miter;stroke-opacity:1" />
    <path
       inkscape:connector-curvature="0"
       id="path6017-1-7-0"
       d="m 188.7226,283.61018 h -18.854 v 8.1372 h 19.2512 z"
       style="display:inline;fill:#141414;fill-opacity:1;fill-rule:evenodd;stroke:none;stroke-width:0.555702px;stroke-linecap:butt;stroke-linejoin:miter;stroke-opacity:1" />
    <path
       inkscape:connector-curvature="0"
       id="path6017-1-7-0-8"
       d="m 187.0641,255.15038 h -18.8544 v 8.1372 h 19.2513 z"
       style="display:inline;fill:#141414;fill-opacity:1;fill-rule:evenodd;stroke:none;stroke-width:0.555702px;stroke-linecap:butt;stroke-linejoin:miter;stroke-opacity:1" />
    <path
       inkscape:connector-curvature="0"
       id="path6017-1-7-0-8-4"
       d="m 185.6945,264.63698 h -18.8543 v 8.1372 h 19.2513 z"
       style="display:inline;fill:#141414;fill-opacity:1;fill-rule:evenodd;stroke:none;stroke-width:0.555702px;stroke-linecap:butt;stroke-linejoin:miter;stroke-opacity:1" />
    <path
       inkscape:connector-curvature="0"
       id="path6017-1-7-0-8-4-3"
       d="m 183.9176,274.12358 h -18.8541 v 8.1372 h 19.2512 z"
       style="display:inline;fill:#141414;fill-opacity:1;fill-rule:evenodd;stroke:none;stroke-width:0.555702px;stroke-linecap:butt;stroke-linejoin:miter;stroke-opacity:1" />
    <g
       style="display:inline"
       transform="matrix(2.100291,0,0,2.100291,274.4097,-257.01942)"
       id="g8047">
      <path
         transform="matrix(0.8809307,0,0,0.8809307,60.59617,30.31313)"
         style="display:inline;fill:#141414;fill-opacity:1;fill-rule:evenodd;stroke:none;stroke-width:0.300345px;stroke-linecap:butt;stroke-linejoin:miter;stroke-opacity:1"
         d="m -149.9275,251.0561 h -65.537 l -1.2583,2.1796 h 66.7953 z"
         id="path11474"
         inkscape:connector-curvature="0" />
      <path
         transform="matrix(0.8809307,0,0,0.8809307,60.59617,30.31313)"
         style="display:inline;fill:#141414;fill-opacity:1;fill-rule:evenodd;stroke:none;stroke-width:0.300345px;stroke-linecap:butt;stroke-linejoin:miter;stroke-opacity:1"
         d="m -212.4355,249.5875 v 17.1645 l 2.3414,-0.6274 v -18.281 z"
         id="path11476"
         inkscape:connector-curvature="0" />
      <path
         transform="matrix(0.8809307,0,0,0.8809307,60.59617,30.31313)"
         style="display:inline;fill:#141414;fill-opacity:1;fill-rule:evenodd;stroke:none;stroke-width:0.300345px;stroke-linecap:butt;stroke-linejoin:miter;stroke-opacity:1"
         d="m -164.9716,250.0465 v 16.1548 l 1.8275,-0.4898 v -15.3897 l -0.6453,-2.4081 z"
         id="path11478"
         inkscape:connector-curvature="0" />
      <path
         transform="matrix(0.8809307,0,0,0.8809307,60.59617,30.31313)"
         style="display:inline;fill:#141414;fill-opacity:1;fill-rule:evenodd;stroke:none;stroke-width:0.300345px;stroke-linecap:butt;stroke-linejoin:miter;stroke-opacity:1"
         d="m -207.1624,265.8675 4.1868,-15.6251 2.0736,-0.5556 -4.3871,16.3729 z"
         id="path11489"
         inkscape:connector-curvature="0" />
      <path
         transform="matrix(0.8809307,0,0,0.8809307,60.59617,30.31313)"
         style="display:inline;fill:#141414;fill-opacity:1;fill-rule:evenodd;stroke:none;stroke-width:0.300345px;stroke-linecap:butt;stroke-linejoin:miter;stroke-opacity:1"
         d="m -200.9965,247.8241 v 17.7837 h 1.8988 v -17.2645 z"
         id="path11491"
         inkscape:connector-curvature="0"
         sodipodi:nodetypes="ccccc" />
      <path
         style="fill:#141414;fill-opacity:1;fill-rule:evenodd;stroke:none;stroke-width:0.264583px;stroke-linecap:butt;stroke-linejoin:miter;stroke-opacity:1"
         d="m -107.2053,264.1809 v -13.2077 l 1.1149,-1.115 0.8815,1.5268 v 12.8531 z"
         id="path11493"
         inkscape:connector-curvature="0" />
    </g>
    <path
       id="path5766"
       d="m 211.623,166.62108 -10.299,16.3022 10.299,-3.3342 z m 138.5998,6.4439 -0.1994,8.7327 25.4039,1.3892 z m -141.4423,31.2929 -5.7601,3.8444 v 17.8465 l 2.6355,-4.0886 z m 91.409,-0.6698 c 3.0042,26.2607 4.0484,54.0914 2.6458,80.8417 h 31.7541 c -1.1328,-23.5173 -2.7495,-46.9741 0,-70.9767 z m -145.1991,45.8575 -18.6032,9.8008 17.4917,-5.6308 z"
       style="display:inline;fill:url(#linearGradient8026);fill-opacity:1;fill-rule:evenodd;stroke:none;stroke-width:0.543947px;stroke-linecap:butt;stroke-linejoin:miter;stroke-opacity:1"
       inkscape:connector-curvature="0"
       sodipodi:nodetypes="cccccccccccccccccccccc" />
    <path
       inkscape:connector-curvature="0"
       id="path6656"
       d="m 166.1251,109.51591 c 0,0 -2.0237,6.3887 -2.2865,8.18158 -0.1805,1.23413 0.9607,2.86539 1.6958,3.77362 v 1.92249 h -0.7327 c -0.2485,0 -0.4488,0.19957 -0.4488,0.44865 0,0.24845 0.1995,0.44849 0.4488,0.44849 h 0.7327 v 52.98954 c 0,0 0.026,0.7241 0.5907,0.7241 0.5628,0 0.5909,-0.7241 0.5909,-0.7241 v -52.98954 h 0.7326 c 0.2484,0 0.4486,-0.19957 0.4486,-0.44849 0,-0.24845 -0.1995,-0.44865 -0.4486,-0.44865 h -0.7326 v -1.92249 c 0.7354,-0.90823 1.8765,-2.53949 1.6956,-3.77362 -0.2623,-1.79288 -2.2865,-8.18158 -2.2865,-8.18158 z"
       style="display:inline;fill:#141414;fill-opacity:1;fill-rule:evenodd;stroke:none;stroke-width:0.203401px;stroke-linecap:butt;stroke-linejoin:miter;stroke-opacity:1" />
    <path
       inkscape:connector-curvature="0"
       id="path6656-0"
       d="m 172.2802,116.08529 c 0,0 -2.0237,6.38868 -2.2865,8.1814 -0.1805,1.23414 0.9607,2.86555 1.6959,3.77363 v 1.92264 h -0.7329 c -0.2484,0 -0.4488,0.19958 -0.4488,0.44865 0,0.24846 0.1996,0.44834 0.4488,0.44834 h 0.7329 v 52.98933 c 0,0 0.026,0.7245 0.5906,0.7245 0.5628,0 0.5909,-0.7245 0.5909,-0.7245 v -52.98933 h 0.7327 c 0.2485,0 0.4485,-0.19942 0.4485,-0.44834 0,-0.24845 -0.1994,-0.44865 -0.4485,-0.44865 h -0.7327 v -1.92264 c 0.7354,-0.90808 1.8764,-2.53949 1.6956,-3.77363 -0.2624,-1.79272 -2.2865,-8.1814 -2.2865,-8.1814 z"
       style="display:inline;fill:#141414;fill-opacity:1;fill-rule:evenodd;stroke:none;stroke-width:0.203401px;stroke-linecap:butt;stroke-linejoin:miter;stroke-opacity:1" />
    <path
       inkscape:connector-curvature="0"
       id="path6656-0-3"
       d="m 178.8419,107.43585 c 0,0 -2.0237,6.3887 -2.2863,8.18142 -0.1807,1.23414 0.9607,2.86555 1.6957,3.77362 v 1.92265 h -0.7327 c -0.2486,0 -0.449,0.19958 -0.449,0.44865 0,0.24845 0.1996,0.44834 0.449,0.44834 h 0.7327 v 52.98935 c 0,0 0.027,0.7244 0.5906,0.7244 0.563,0 0.5911,-0.7244 0.5911,-0.7244 v -52.98935 h 0.7325 c 0.2485,0 0.4487,-0.19942 0.4487,-0.44834 0,-0.24845 -0.1996,-0.44865 -0.4487,-0.44865 h -0.7325 v -1.92265 c 0.7352,-0.90807 1.8762,-2.53948 1.6954,-3.77362 -0.2623,-1.79272 -2.2865,-8.18142 -2.2865,-8.18142 z"
       style="display:inline;fill:#141414;fill-opacity:1;fill-rule:evenodd;stroke:none;stroke-width:0.203401px;stroke-linecap:butt;stroke-linejoin:miter;stroke-opacity:1" />
    <path
       inkscape:connector-curvature="0"
       id="rect4720"
       d="m 423.2783,270.10058 c 0,0 -1.5845,-5.2308 -4.4671,-7.7648 -2.8824,-2.5343 -8.5888,-5.5871 -11.3263,-7.5989 -0.3419,-0.2502 -1.2078,-1.0059 -2.1274,-1.8171 -0.3752,-0.6604 -1.4293,-2.6354 -1.3728,-3.9734 0,0 -0.062,-0.7547 -0.3548,-0.8576 -0.5377,-0.189 -0.5028,0.5242 -1.0074,0.7895 -0.4913,0.2596 -1.3375,0.6776 -1.5346,0.7755 -1.0662,-0.7333 -2.4807,-1.8508 -2.9216,-2.8755 -0.2178,-0.5053 0.056,-1.6481 0.056,-1.6481 0,0 0.4524,-0.381 0.2101,-0.5947 l -0.263,-0.2312 c -0.2435,-0.2138 -0.6114,-0.189 -0.8253,0.053 l -2.8966,3.2952 c -0.2138,0.243 -0.1912,0.6112 0.053,0.825 l 0.2629,0.2313 c 0.243,0.2133 0.5628,-0.2841 0.5628,-0.2841 0,0 1.0989,-0.4185 1.6274,-0.2669 1.072,0.3072 2.3616,1.5673 3.2263,2.5294 -0.073,0.208 -0.3792,1.0993 -0.5725,1.6207 -0.1996,0.5346 -0.9109,0.5914 -0.654,1.1007 0.139,0.2764 0.896,0.2419 0.896,0.2419 1.2382,-0.2137 3.1963,0.4864 4.0199,0.8128 0.9488,0.8342 1.8499,1.6264 2.15,1.9406 2.3462,2.457 6.1047,7.7256 8.9872,10.2597 2.8824,2.5341 8.2734,3.4356 8.2734,3.4356 z"
       style="display:inline;opacity:1;vector-effect:none;fill:#141414;fill-opacity:1;fill-rule:evenodd;stroke:none;stroke-width:0.520941;stroke-linecap:round;stroke-linejoin:miter;stroke-miterlimit:4;stroke-dasharray:none;stroke-dashoffset:0;stroke-opacity:1" />
  </g>
</svg>
