<?xml version="1.0" encoding="UTF-8" standalone="no"?>
<!-- Created with Inkscape (http://www.inkscape.org/) -->

<svg
   xmlns:dc="http://purl.org/dc/elements/1.1/"
   xmlns:cc="http://creativecommons.org/ns#"
   xmlns:rdf="http://www.w3.org/1999/02/22-rdf-syntax-ns#"
   xmlns:svg="http://www.w3.org/2000/svg"
   xmlns="http://www.w3.org/2000/svg"
   xmlns:sodipodi="http://sodipodi.sourceforge.net/DTD/sodipodi-0.dtd"
   xmlns:inkscape="http://www.inkscape.org/namespaces/inkscape"
   width="400"
   height="200"
   viewBox="0 0 374.99995 187.49997"
   id="svg5590"
   version="1.1"
   inkscape:version="0.92.2 (5c3e80d, 2017-08-06)"
   sodipodi:docname="MaskLv0.svg"
   inkscape:export-filename="C:\Users\guerr\Documents\Projets\Patapon\Experiments\PataponMPExperiment_RythmAndMovement\Assets\Textures\Taterazay\MaskLv0_raster.png"
   inkscape:export-xdpi="192"
   inkscape:export-ydpi="192">
  <defs
     id="defs5592" />
  <sodipodi:namedview
     id="base"
     pagecolor="#ffffff"
     bordercolor="#666666"
     borderopacity="1.0"
     inkscape:pageopacity="0.0"
     inkscape:pageshadow="2"
     inkscape:zoom="2"
     inkscape:cx="220.46285"
     inkscape:cy="135.31391"
     inkscape:document-units="px"
     inkscape:current-layer="g22823"
     showgrid="false"
     inkscape:window-width="1920"
     inkscape:window-height="1017"
     inkscape:window-x="-8"
     inkscape:window-y="-8"
     inkscape:window-maximized="1"
     showguides="false"
     units="px"
     fit-margin-top="0"
     fit-margin-left="0"
     fit-margin-right="0"
     fit-margin-bottom="0" />
  <metadata
     id="metadata5595">
    <rdf:RDF>
      <cc:Work
         rdf:about="">
        <dc:format>image/svg+xml</dc:format>
        <dc:type
           rdf:resource="http://purl.org/dc/dcmitype/StillImage" />
        <dc:title></dc:title>
      </cc:Work>
    </rdf:RDF>
  </metadata>
  <g
     inkscape:groupmode="layer"
     id="layer2"
     inkscape:label="Calque2"
     transform="translate(-372.27333,-698.66389)" />
  <g
     inkscape:label="Calque 1"
     inkscape:groupmode="layer"
     id="layer1"
     transform="translate(-372.27333,-698.66389)">
    <g
       id="g22823">
      <path
         style="fill:#d7801c;fill-opacity:1;fill-rule:evenodd;stroke:none;stroke-width:1.42206967px;stroke-linecap:butt;stroke-linejoin:miter;stroke-opacity:1"
         d="m 97.791016,48.193359 c 3.870464,22.500516 7.403414,36.314365 14.220704,57.648441 -9.40341,2.5403 -18.014364,-5.22731 -26.919923,-9.144534 11.488215,13.240264 24.442143,25.848664 44.695313,35.298824 4.7698,6.3882 9.3427,10.94631 16.75977,15.49024 -5.34974,6.36095 -8.6625,14.41853 -8.27735,25.55859 11.07709,-5.91009 18.11518,-14.8692 39.17969,-13.23242 L 200,178.22852 200.00004,91 l -1.44915,6.882812 v 2.369138 c -8.10401,10.54665 -13.77609,13.54508 -21.27734,18.28516 -24.5967,-9.87106 -50.50103,-29.104395 -79.482404,-70.343751 z"
         id="path23473"
         inkscape:connector-curvature="0"
         sodipodi:nodetypes="cccccccccccccc"
         transform="matrix(0.93749986,0,0,0.93749986,372.27333,698.66389)" />
      <path
         style="fill:#d7801c;fill-opacity:1;fill-rule:evenodd;stroke:none;stroke-width:1.33319008px;stroke-linecap:butt;stroke-linejoin:miter;stroke-opacity:1"
         d="m 655.5942,743.84516 c -27.17034,38.66189 -51.45538,56.69314 -74.51476,65.94725 -7.03242,-4.44382 -12.35361,-7.25485 -19.95117,-17.14233 v -2.22107 l -1.35496,-6.45263 0,81.77672 21.13949,-17.26501 c 19.74796,-1.53448 26.34812,6.86468 36.73276,12.40539 0.36091,-10.44381 -2.74479,-17.99779 -7.76001,-23.96118 6.95347,-4.25993 11.2406,-8.53316 15.71229,-14.52209 18.98728,-8.85953 31.13156,-20.6799 41.90184,-33.09265 -8.34896,3.6724 -16.42202,10.95453 -25.23742,8.573 6.39122,-20.00069 9.70304,-32.95117 13.3319,-54.0454 z"
         id="path6959-9-7"
         inkscape:connector-curvature="0"
         sodipodi:nodetypes="cccccccccccccc" />
      <path
         inkscape:connector-curvature="0"
         style="fill:#000000;fill-opacity:1;fill-rule:evenodd;stroke:none;stroke-width:1.33319008px;stroke-linecap:butt;stroke-linejoin:miter;stroke-opacity:1"
         d="m 498.57027,799.70722 c 5.28839,12.52823 13.94876,22.27311 22.64075,27.94493 l -6.22853,15.73765 19.1075,-6.14259 25.68212,18.01106 25.68468,-18.01106 19.1072,6.14259 -6.22853,-15.73765 c 8.692,-5.67182 17.35241,-15.4167 22.64093,-27.94493 -15.37172,15.25921 -34.20092,25.52169 -46.79973,25.67152 l -6.22836,-14.89954 -8.17619,34.14499 -8.17363,-34.14499 -6.22853,14.89954 c -12.59868,-0.14983 -31.42801,-10.41231 -46.79968,-25.67152 z"
         id="path6961-9-7"
         inkscape:export-filename="C:\Users\Guerro\Documents\Patapon\Patapon4Rewrite\Assets\Textures\Masks\taterazay.png"
         inkscape:export-xdpi="443.9535"
         inkscape:export-ydpi="443.9535"
         sodipodi:nodetypes="ccccccccccccccc" />
      <path
         inkscape:connector-curvature="0"
         id="path6963-9-3"
         d="m 625.36091,792.29405 7.43968,4.16629 5.11847,-16.00994 z"
         style="fill:#000000;fill-opacity:1;fill-rule:evenodd;stroke:none;stroke-width:1.33318996px;stroke-linecap:butt;stroke-linejoin:miter;stroke-opacity:1"
         inkscape:export-filename="C:\Users\Guerro\Documents\Patapon\Patapon4Rewrite\Assets\Textures\Masks\taterazay.png"
         inkscape:export-xdpi="443.9535"
         inkscape:export-ydpi="443.9535" />
      <path
         inkscape:connector-curvature="0"
         id="path6963-9-4-0"
         d="m 494.185,792.29442 -7.4397,4.16624 -5.11845,-16.01008 z"
         style="fill:#000000;fill-opacity:1;fill-rule:evenodd;stroke:none;stroke-width:1.33319008px;stroke-linecap:butt;stroke-linejoin:miter;stroke-opacity:1" />
    </g>
  </g>
</svg>
