<?xml version="1.0" encoding="UTF-8" standalone="no"?>
<svg
   xmlns:dc="http://purl.org/dc/elements/1.1/"
   xmlns:cc="http://creativecommons.org/ns#"
   xmlns:rdf="http://www.w3.org/1999/02/22-rdf-syntax-ns#"
   xmlns:svg="http://www.w3.org/2000/svg"
   xmlns="http://www.w3.org/2000/svg"
   xmlns:xlink="http://www.w3.org/1999/xlink"
   xmlns:sodipodi="http://sodipodi.sourceforge.net/DTD/sodipodi-0.dtd"
   xmlns:inkscape="http://www.inkscape.org/namespaces/inkscape"
   width="256"
   height="256"
   viewBox="0 0 67.733332 67.733335"
   version="1.1"
   id="svg2145"
   inkscape:version="1.0.1 (3bc2e813f5, 2020-09-07)"
   sodipodi:docname="circle_proj.svg">
  <defs
     id="defs2139">
    <linearGradient
       inkscape:collect="always"
       id="linearGradient846">
      <stop
         style="stop-color:#ffffff;stop-opacity:0.40000001"
         offset="0"
         id="stop842" />
      <stop
         style="stop-color:#ffffff;stop-opacity:0"
         offset="1"
         id="stop844" />
    </linearGradient>
    <linearGradient
       inkscape:collect="always"
       xlink:href="#linearGradient846"
       id="linearGradient1241"
       x1="183.97998"
       y1="82.540413"
       x2="199.38266"
       y2="82.540413"
       gradientUnits="userSpaceOnUse"
       gradientTransform="matrix(-1.3002693,0,0,1,490.2625,65.626256)" />
    <linearGradient
       inkscape:collect="always"
       id="linearGradient1239">
      <stop
         style="stop-color:#ffffff;stop-opacity:0.50196081"
         offset="0"
         id="stop1235" />
      <stop
         style="stop-color:#ffffff;stop-opacity:0"
         offset="1"
         id="stop1237" />
    </linearGradient>
    <linearGradient
       inkscape:collect="always"
       xlink:href="#linearGradient1239"
       id="linearGradient1241-7"
       x1="183.97998"
       y1="82.540413"
       x2="199.38266"
       y2="82.540413"
       gradientUnits="userSpaceOnUse"
       gradientTransform="matrix(-0.84719408,0,0,0.86938145,406.90573,76.407564)" />
  </defs>
  <sodipodi:namedview
     id="base"
     pagecolor="#262626"
     bordercolor="#666666"
     borderopacity="1.0"
     inkscape:pageopacity="0"
     inkscape:pageshadow="2"
     inkscape:zoom="3.959798"
     inkscape:cx="105.15816"
     inkscape:cy="104.66901"
     inkscape:document-units="mm"
     inkscape:current-layer="g2741"
     inkscape:document-rotation="0"
     showgrid="false"
     units="px"
     inkscape:window-width="1920"
     inkscape:window-height="1017"
     inkscape:window-x="1912"
     inkscape:window-y="-8"
     inkscape:window-maximized="1"
     inkscape:pagecheckerboard="true" />
  <metadata
     id="metadata2142">
    <rdf:RDF>
      <cc:Work
         rdf:about="">
        <dc:format>image/svg+xml</dc:format>
        <dc:type
           rdf:resource="http://purl.org/dc/dcmitype/StillImage" />
        <dc:title></dc:title>
      </cc:Work>
    </rdf:RDF>
  </metadata>
  <g
     inkscape:label="Layer 1"
     inkscape:groupmode="layer"
     id="layer1">
    <g
       id="g2741"
       transform="translate(-208.79405,-114.3)">
      <path
         id="path1029-0-2"
         style="opacity:1;fill:#ffffff;fill-opacity:1;stroke:none;stroke-width:1.02349;stroke-linecap:round;stroke-linejoin:round;stroke-opacity:0.02;paint-order:stroke markers fill"
         d="m 243.31592,123.83457 a 7.7012649,24.332218 0 0 0 -7.67963,24.33236 7.7012649,24.332218 0 0 0 7.70134,24.33185 7.7012649,24.332218 0 0 0 7.70134,-24.33185 7.7012649,24.332218 0 0 0 -7.70134,-24.33236 7.7012649,24.332218 0 0 0 -0.0217,0 z m 0.009,3.37757 a 6.6321869,20.954456 0 0 1 0.0124,0 6.6321869,20.954456 0 0 1 6.63217,20.95479 6.6321869,20.954456 0 0 1 -6.63216,20.95428 6.6321869,20.954456 0 0 1 -6.63215,-20.95428 6.6321869,20.954456 0 0 1 6.61975,-20.95479 z" />
      <path
         id="path1029-0-2-3"
         style="opacity:1;fill:url(#linearGradient1241);fill-opacity:1;stroke:none;stroke-width:1.16708;stroke-linecap:round;stroke-linejoin:round;stroke-opacity:0.02;paint-order:stroke markers fill"
         d="m 241.05337,123.83457 a 10.013719,24.332218 0 0 1 9.9856,24.33236 10.013719,24.332218 0 0 1 -10.01381,24.33185 10.013719,24.332218 0 0 1 -10.01383,-24.33185 10.013719,24.332218 0 0 1 10.01383,-24.33236 10.013719,24.332218 0 0 1 0.0282,0 z m -0.0117,3.37757 a 8.6236293,20.954456 0 0 0 -0.0161,0 8.6236293,20.954456 0 0 0 -8.62356,20.95479 8.6236293,20.954456 0 0 0 8.62358,20.95428 8.6236293,20.954456 0 0 0 8.62359,-20.95428 8.6236293,20.954456 0 0 0 -8.60745,-20.95479 z" />
      <path
         id="path1029-0-2-3-2"
         style="opacity:0.5;fill:url(#linearGradient1241-7);fill-opacity:1;stroke:none;stroke-width:0.878374;stroke-linecap:round;stroke-linejoin:round;stroke-opacity:0.02;paint-order:stroke markers fill"
         d="m 244.53283,127.01279 a 6.524466,21.153979 0 0 1 6.50614,21.15411 6.524466,21.153979 0 0 1 -6.52453,21.15365 6.524466,21.153979 0 0 1 -6.52453,-21.15365 6.524466,21.153979 0 0 1 6.52453,-21.15411 6.524466,21.153979 0 0 1 0.0184,0 z m -0.008,2.9364 a 5.6187493,18.217415 0 0 0 -0.0105,0 5.6187493,18.217415 0 0 0 -5.61872,18.21771 5.6187493,18.217415 0 0 0 5.61872,18.21727 5.6187493,18.217415 0 0 0 5.61873,-18.21727 5.6187493,18.217415 0 0 0 -5.60822,-18.21771 z" />
    </g>
  </g>
</svg>
