<?xml version="1.0" encoding="UTF-8" standalone="no"?>
<!-- Created with Inkscape (http://www.inkscape.org/) -->

<svg
   xmlns:dc="http://purl.org/dc/elements/1.1/"
   xmlns:cc="http://creativecommons.org/ns#"
   xmlns:rdf="http://www.w3.org/1999/02/22-rdf-syntax-ns#"
   xmlns:svg="http://www.w3.org/2000/svg"
   xmlns="http://www.w3.org/2000/svg"
   xmlns:sodipodi="http://sodipodi.sourceforge.net/DTD/sodipodi-0.dtd"
   xmlns:inkscape="http://www.inkscape.org/namespaces/inkscape"
   width="210mm"
   height="297mm"
   viewBox="0 0 210 297"
   version="1.1"
   id="svg1390"
   inkscape:version="0.92.2 (5c3e80d, 2017-08-06)"
   sodipodi:docname="tower_state_1.svg">
  <defs
     id="defs1384" />
  <sodipodi:namedview
     id="base"
     pagecolor="#ffffff"
     bordercolor="#666666"
     borderopacity="1.0"
     inkscape:pageopacity="0.0"
     inkscape:pageshadow="2"
     inkscape:zoom="0.49497475"
     inkscape:cx="720.3355"
     inkscape:cy="563.69522"
     inkscape:document-units="mm"
     inkscape:current-layer="layer1"
     showgrid="false"
     inkscape:pagecheckerboard="true"
     inkscape:window-width="1920"
     inkscape:window-height="1017"
     inkscape:window-x="-8"
     inkscape:window-y="-8"
     inkscape:window-maximized="1" />
  <metadata
     id="metadata1387">
    <rdf:RDF>
      <cc:Work
         rdf:about="">
        <dc:format>image/svg+xml</dc:format>
        <dc:type
           rdf:resource="http://purl.org/dc/dcmitype/StillImage" />
        <dc:title></dc:title>
      </cc:Work>
    </rdf:RDF>
  </metadata>
  <g
     inkscape:label="Layer 1"
     inkscape:groupmode="layer"
     id="layer1">
    <g
       id="g981"
       transform="translate(-714.6243,120.84228)">
      <g
         id="g1136"
         transform="translate(431.64881,0.61329004)">
        <path
           id="path828-2"
           transform="matrix(0.26458333,0,0,0.26458333,282.97544,-104.35032)"
           d="m 242.20703,630.37695 -58.57031,15 -7.14258,101.42774 v 9.28711 l -14.76953,91.42773 2.91797,-0.35742 34.64258,-24.64258 -2.14258,82.85742 -25,41.07032 -42.06055,0.95703 -0.0176,0.11523 -64.999997,110.34957 H 728.63672 l -8.14649,-35.3554 -25.00195,-1.0098 -39.39453,-81.56835 -0.96484,-4.42774 -71.51368,-23.60547 0.70118,-24.46875 h -45.75 v -47.16015 l 16.83007,-0.28516 0.67188,-23.3125 20.95703,-0.99219 -0.59766,-31.3789 16.46875,-5.27539 7.38477,-9.05274 -4.29297,-40.15429 -4.54492,-29.04102 -2.77734,-19.44531 -7.83008,-39.17383 h -90.41406 v 15.71484 L 473.2793,635.73438 h -12.85742 l -12.5,13.92773 -195.35743,0.35742 z"
           style="fill:#ffffff;fill-opacity:1;stroke:none;stroke-width:0.99999994px;stroke-linecap:butt;stroke-linejoin:miter;stroke-opacity:1"
           inkscape:connector-curvature="0" />
        <path
           inkscape:connector-curvature="0"
           id="path830-0"
           d="m 341.15364,175.54443 v -2.12429 l -10.91406,-7.18153 -15.92225,-2.03163 -11.16329,11.33745 z"
           style="fill:#000000;stroke:none;stroke-width:0.26499999;stroke-linecap:butt;stroke-linejoin:miter;stroke-miterlimit:4;stroke-dasharray:none;stroke-opacity:1" />
        <path
           inkscape:connector-curvature="0"
           id="path832-5"
           d="m 351.97321,175.54443 v -1.22658 h -7.98475 v 1.22658 z"
           style="fill:#000000;stroke:none;stroke-width:0.26499999;stroke-linecap:butt;stroke-linejoin:miter;stroke-miterlimit:4;stroke-dasharray:none;stroke-opacity:1" />
        <path
           inkscape:connector-curvature="0"
           id="path834-9"
           d="m 354.46979,175.54443 v -1.48669 h 10.42351 l 6.48129,-16.15309 8.01808,6.74855 h 12.09395 l -0.13364,10.89123 z"
           style="fill:#000000;stroke:none;stroke-width:0.26499999;stroke-linecap:butt;stroke-linejoin:miter;stroke-miterlimit:4;stroke-dasharray:none;stroke-opacity:1" />
        <path
           inkscape:connector-curvature="0"
           id="path836-8"
           d="m 393.4561,164.53771 v 8.69344 h 2.55134 v 1.11033 h 31.52716 l 4.04245,-10.05578 -14.46597,-8.1183 -10.12283,8.35216 z"
           style="fill:#000000;stroke:none;stroke-width:0.26499999;stroke-linecap:butt;stroke-linejoin:miter;stroke-miterlimit:4;stroke-dasharray:none;stroke-opacity:1" />
        <path
           inkscape:connector-curvature="0"
           id="path838-3"
           d="m 308.71659,166.35704 4.40994,-3.0402 0.0334,-5.0614 z"
           style="fill:#000000;stroke:none;stroke-width:0.26499999;stroke-linecap:butt;stroke-linejoin:miter;stroke-miterlimit:4;stroke-dasharray:none;stroke-opacity:1" />
        <path
           inkscape:connector-curvature="0"
           id="path840-0"
           d="m 315.00241,162.7187 v -8.00837 l 4.05417,-7.02874 h 9.55488 l 1.26953,1.63702 v 15.13414 l -1.33634,-1.10249 h -6.78197 v -0.7684 z"
           style="fill:#000000;stroke:none;stroke-width:0.26499999;stroke-linecap:butt;stroke-linejoin:miter;stroke-miterlimit:4;stroke-dasharray:none;stroke-opacity:1" />
        <path
           inkscape:connector-curvature="0"
           id="path842-1"
           d="m 331.58484,151.03916 v 14.30175 h 1.58406 l 9.59114,6.80357 20.88319,-0.66146 5.33891,-14.22136 h 0.56696 v -1.70089 l -0.91707,-0.24573 V 141.33942 H 345.8311 v 10.77232 h -13.37091 z"
           style="fill:#000000;stroke:none;stroke-width:0.26499999;stroke-linecap:butt;stroke-linejoin:miter;stroke-miterlimit:4;stroke-dasharray:none;stroke-opacity:1" />
        <path
           inkscape:connector-curvature="0"
           id="path844-0"
           d="m 336.59614,136.72354 7.18287,5.67948 v 7.78422 h -10.25647 l -3.42439,-3.42439 z"
           style="fill:#000000;stroke:none;stroke-width:0.26499999;stroke-linecap:butt;stroke-linejoin:miter;stroke-miterlimit:4;stroke-dasharray:none;stroke-opacity:1" />
        <path
           inkscape:connector-curvature="0"
           id="path850-1"
           d="m 328.54465,116.44446 4.01003,-21.029151 h 25.4189 v 1.27567 h 4.34673 v 13.087431 h -25.13542 z"
           style="fill:#000000;stroke:none;stroke-width:0.26499999;stroke-linecap:butt;stroke-linejoin:miter;stroke-miterlimit:4;stroke-dasharray:none;stroke-opacity:1" />
        <path
           inkscape:connector-curvature="0"
           id="path852-9"
           d="m 332.2712,92.816729 h 21.68639 l -7.55485,-28.19507 -13.14854,3.52314 v 10.8758 l -0.43897,1.63823 z"
           style="fill:#000000;stroke:none;stroke-width:0.26499999;stroke-linecap:butt;stroke-linejoin:miter;stroke-miterlimit:4;stroke-dasharray:none;stroke-opacity:1" />
        <path
           inkscape:connector-curvature="0"
           id="path854-3"
           d="m 352.25669,68.909729 h 46.77456 l -5.01558,8.68723 v 5.77036 h -38.30994 z"
           style="fill:#000000;stroke:none;stroke-width:0.26499999;stroke-linecap:butt;stroke-linejoin:miter;stroke-miterlimit:4;stroke-dasharray:none;stroke-opacity:1" />
        <path
           inkscape:connector-curvature="0"
           id="path856-0"
           d="m 396.90513,81.571939 h 7.37054 l 8.19735,-8.19736 -5.78776,-8.29186 -9.92187,12.28423 z"
           style="fill:#000000;stroke:none;stroke-width:0.26499999;stroke-linecap:butt;stroke-linejoin:miter;stroke-miterlimit:4;stroke-dasharray:none;stroke-opacity:1" />
        <path
           inkscape:connector-curvature="0"
           id="path858-6"
           d="m 414.30475,67.200049 h 21.24793 c 0,0 2.10475,9.35444 2.03793,9.2208 -0.0668,-0.13363 -4.2429,-4.81085 -4.2429,-4.81085 h -19.04296 z"
           style="fill:#000000;stroke:none;stroke-width:0.26499999;stroke-linecap:butt;stroke-linejoin:miter;stroke-miterlimit:4;stroke-dasharray:none;stroke-opacity:1" />
        <path
           inkscape:connector-curvature="0"
           id="path860-2"
           d="m 463.9959,175.54443 -4.20498,-5.10085 h -2.74033 l -0.99219,-0.80319 h -7.1343 l -2.3151,-5.29167 h -12.14249 l -4.34672,9.92187 h 16.5837 l 1.27384,1.27384 z"
           style="fill:#000000;stroke:none;stroke-width:0.26499999;stroke-linecap:butt;stroke-linejoin:miter;stroke-miterlimit:4;stroke-dasharray:none;stroke-opacity:1" />
        <path
           inkscape:connector-curvature="0"
           id="path862-3"
           d="m 467.68117,175.54443 -6.56734,-6.09304 v -6.52007 l -6.80357,-6.80358 v -9.44941 l 11.24479,21.35566 h 5.85864 l 2.01241,7.51044 z"
           style="fill:#000000;stroke:none;stroke-width:0.26499999;stroke-linecap:butt;stroke-linejoin:miter;stroke-miterlimit:4;stroke-dasharray:none;stroke-opacity:1" />
        <path
           inkscape:connector-curvature="0"
           id="path864-4"
           d="m 371.4414,141.60121 v 13.49711 l 8.419,6.68175 h 26.05877 l 9.36505,-6.64452 -0.14174,-12.70945 -19.84375,-6.23661 -4.25223,0.33073 z"
           style="fill:#000000;stroke:none;stroke-width:0.26499999;stroke-linecap:butt;stroke-linejoin:miter;stroke-miterlimit:4;stroke-dasharray:none;stroke-opacity:1" />
        <path
           inkscape:connector-curvature="0"
           id="path866-7"
           d="m 339.07477,111.33756 -1.6064,1.08668 v 22.11161 l 6.80357,4.77195 27.97024,0.18899 18.3791,-5.24442 -0.14175,-7.65402 -27.07254,-15.30804 z"
           style="fill:#000000;stroke:none;stroke-width:0.26499999;stroke-linecap:butt;stroke-linejoin:miter;stroke-miterlimit:4;stroke-dasharray:none;stroke-opacity:1" />
        <path
           inkscape:connector-curvature="0"
           id="path868-5"
           d="m 435.69494,131.93726 v 5.38616 l 16.52868,6.48276 v 12.42803 l -5.94675,5.94675 -12.42803,0.53454 -16.43708,-9.68852 -0.26727,-18.50841 3.0736,-2.60588 z"
           style="fill:#000000;stroke:none;stroke-width:0.26499999;stroke-linecap:butt;stroke-linejoin:miter;stroke-miterlimit:4;stroke-dasharray:none;stroke-opacity:1" />
        <path
           inkscape:connector-curvature="0"
           id="path870-6"
           d="m 450.92068,167.59317 h 7.75081 v -4.04246 l -4.94448,-5.47902 -4.64381,4.74403 z"
           style="fill:#000000;stroke:none;stroke-width:0.26499999;stroke-linecap:butt;stroke-linejoin:miter;stroke-miterlimit:4;stroke-dasharray:none;stroke-opacity:1" />
        <path
           inkscape:connector-curvature="0"
           id="path872-2"
           d="m 415.23697,139.96925 1.13393,-10.01636 7.55953,-0.56697 v -9.26041 h -16.81994 l -6.23661,6.2366 h -7.37054 v 5.76414 z"
           style="fill:#000000;stroke:none;stroke-width:0.26499999;stroke-linecap:butt;stroke-linejoin:miter;stroke-miterlimit:4;stroke-dasharray:none;stroke-opacity:1" />
        <path
           inkscape:connector-curvature="0"
           id="path880-1"
           d="m 356.07341,85.608239 h 26.55991 v 10.02261 h -5.57925 l -20.67999,-1.87089 z"
           style="fill:#000000;stroke:none;stroke-width:0.26499999;stroke-linecap:butt;stroke-linejoin:miter;stroke-miterlimit:4;stroke-dasharray:none;stroke-opacity:1" />
        <path
           inkscape:connector-curvature="0"
           id="path882-5"
           d="m 364.62603,96.766739 11.99372,0.83522 -3.30673,5.727431 h -8.45313 z"
           style="fill:#000000;stroke:none;stroke-width:0.26499999;stroke-linecap:butt;stroke-linejoin:miter;stroke-miterlimit:4;stroke-dasharray:none;stroke-opacity:1" />
        <path
           inkscape:connector-curvature="0"
           id="path884-0"
           d="m 391.14099,124.75571 h 8.36273 l 7.98474,-19.89099 -4.36236,-7.555851 h -24.60006 l -3.92151,8.878761 h -10.06361 v 2.07887 z"
           style="fill:#000000;stroke:none;stroke-width:0.26499999;stroke-linecap:butt;stroke-linejoin:miter;stroke-miterlimit:4;stroke-dasharray:none;stroke-opacity:1" />
        <path
           inkscape:connector-curvature="0"
           id="path886-7"
           d="m 384.77147,85.641649 v 9.9892 h 18.34137 v -11.69304 h -6.71514 l -1.22713,2.12544 z"
           style="fill:#000000;stroke:none;stroke-width:0.26499999;stroke-linecap:butt;stroke-linejoin:miter;stroke-miterlimit:4;stroke-dasharray:none;stroke-opacity:1" />
        <path
           inkscape:connector-curvature="0"
           id="path888-4"
           d="m 405.78554,82.601459 9.08716,-9.08716 h 17.3057 l 6.01357,8.55262 1.9377,16.83798 -2.00452,2.071341 -7.75082,2.27179 h 3.94223 v 7.01582 h -5.67948 v 6.28084 h -4.34313 l -0.25951,0.96853 h -16.44483 v -7.383 l 3.1898,-5.5249 -5.02327,-8.700561 z"
           style="fill:#000000;stroke:none;stroke-width:0.26499999;stroke-linecap:butt;stroke-linejoin:miter;stroke-miterlimit:4;stroke-dasharray:none;stroke-opacity:1" />
      </g>
    </g>
  </g>
</svg>
