<?xml version="1.0" encoding="UTF-8" standalone="no"?>
<!-- Created with Inkscape (http://www.inkscape.org/) -->

<svg
   xmlns:dc="http://purl.org/dc/elements/1.1/"
   xmlns:cc="http://creativecommons.org/ns#"
   xmlns:rdf="http://www.w3.org/1999/02/22-rdf-syntax-ns#"
   xmlns:svg="http://www.w3.org/2000/svg"
   xmlns="http://www.w3.org/2000/svg"
   xmlns:sodipodi="http://sodipodi.sourceforge.net/DTD/sodipodi-0.dtd"
   xmlns:inkscape="http://www.inkscape.org/namespaces/inkscape"
   width="210mm"
   height="297mm"
   viewBox="0 0 210 297"
   version="1.1"
   id="svg1390"
   inkscape:version="0.92.2 (5c3e80d, 2017-08-06)"
   sodipodi:docname="tower_destroyed_base.svg">
  <defs
     id="defs1384" />
  <sodipodi:namedview
     id="base"
     pagecolor="#ffffff"
     bordercolor="#666666"
     borderopacity="1.0"
     inkscape:pageopacity="0.0"
     inkscape:pageshadow="2"
     inkscape:zoom="0.49497475"
     inkscape:cx="720.3355"
     inkscape:cy="563.69522"
     inkscape:document-units="mm"
     inkscape:current-layer="layer1"
     showgrid="false"
     inkscape:pagecheckerboard="true"
     inkscape:window-width="1920"
     inkscape:window-height="1017"
     inkscape:window-x="-8"
     inkscape:window-y="-8"
     inkscape:window-maximized="1" />
  <metadata
     id="metadata1387">
    <rdf:RDF>
      <cc:Work
         rdf:about="">
        <dc:format>image/svg+xml</dc:format>
        <dc:type
           rdf:resource="http://purl.org/dc/dcmitype/StillImage" />
        <dc:title></dc:title>
      </cc:Work>
    </rdf:RDF>
  </metadata>
  <g
     inkscape:label="Layer 1"
     inkscape:groupmode="layer"
     id="layer1">
    <g
       id="g981-0-1"
       transform="translate(-714.62395,120.84228)">
      <g
         id="g1136-0-1"
         transform="translate(431.64881,0.61329004)">
        <path
           inkscape:connector-curvature="0"
           style="fill:#ffffff;fill-opacity:1;stroke:none;stroke-width:0.99999994px;stroke-linecap:butt;stroke-linejoin:miter;stroke-opacity:1"
           d="m 2986.3047,889.48633 -23.8594,0.5332 -12.1426,9.64258 -1.4277,28.21484 -75.7148,-22.85742 -12.2442,0.62891 -87.0371,19.38672 -98.3398,1.46093 5.6562,3.70313 -0.5351,37.85547 -43.2149,0.17969 c 0,-10e-6 -12.5095,-14.08213 -17.6523,-19.4668 l -41.9727,0.95508 -0.018,0.11523 -14.5332,24.67188 0.2207,37.90433 -23.2324,20.2011 -8.2422,10.3106 -19.2129,17.2617 h 663.5723 l -8.1465,-35.3555 -25.0019,-1.0097 -39.3946,-81.56839 -0.9648,-4.42774 -71.5137,-23.60547 0.7012,-24.46875 h -45.75 z"
           transform="matrix(0.26458333,0,0,0.26458333,-364.65554,-104.96361)"
           id="path828-2-7-2" />
        <path
           inkscape:connector-curvature="0"
           id="path830-0-46-4"
           d="m 341.15364,175.54443 v -2.12429 l -10.91406,-7.18153 -15.92225,-2.03163 -11.16329,11.33745 z"
           style="fill:#000000;stroke:none;stroke-width:0.26499999;stroke-linecap:butt;stroke-linejoin:miter;stroke-miterlimit:4;stroke-dasharray:none;stroke-opacity:1" />
        <path
           inkscape:connector-curvature="0"
           id="path832-5-9-4"
           d="m 351.97321,175.54443 v -1.22658 h -7.98475 v 1.22658 z"
           style="fill:#000000;stroke:none;stroke-width:0.26499999;stroke-linecap:butt;stroke-linejoin:miter;stroke-miterlimit:4;stroke-dasharray:none;stroke-opacity:1" />
        <path
           inkscape:connector-curvature="0"
           id="path834-9-6-9"
           d="m 354.46979,175.54443 v -1.48669 h 10.42351 l 6.48129,-16.15309 8.01808,6.74855 h 12.09395 l -0.13364,10.89123 z"
           style="fill:#000000;stroke:none;stroke-width:0.26499999;stroke-linecap:butt;stroke-linejoin:miter;stroke-miterlimit:4;stroke-dasharray:none;stroke-opacity:1" />
        <path
           inkscape:connector-curvature="0"
           id="path836-8-66-7"
           d="m 393.4561,164.53771 v 8.69344 h 2.55134 v 1.11033 h 31.52716 l 4.04245,-10.05578 -14.46597,-8.1183 -10.12283,8.35216 z"
           style="fill:#000000;stroke:none;stroke-width:0.26499999;stroke-linecap:butt;stroke-linejoin:miter;stroke-miterlimit:4;stroke-dasharray:none;stroke-opacity:1" />
        <path
           inkscape:connector-curvature="0"
           id="path840-0-0-3"
           d="m 315.00241,162.7187 v -8.00837 l 4.05417,-7.02874 h 9.55488 l 1.26953,1.63702 v 15.13414 l -1.33634,-1.10249 h -6.78197 v -0.7684 z"
           style="fill:#000000;stroke:none;stroke-width:0.26499999;stroke-linecap:butt;stroke-linejoin:miter;stroke-miterlimit:4;stroke-dasharray:none;stroke-opacity:1" />
        <path
           inkscape:connector-curvature="0"
           id="path842-1-5-8"
           d="m 331.58484,151.03916 v 14.30175 h 1.58406 l 9.59114,6.80357 20.88319,-0.66146 5.33891,-14.22136 h 0.56696 v -1.70089 l -0.91707,-0.24573 V 141.33942 H 345.8311 v 10.77232 h -13.37091 z"
           style="fill:#000000;stroke:none;stroke-width:0.26499999;stroke-linecap:butt;stroke-linejoin:miter;stroke-miterlimit:4;stroke-dasharray:none;stroke-opacity:1" />
        <path
           inkscape:connector-curvature="0"
           id="path860-2-1-5"
           d="m 463.9959,175.54443 -4.20498,-5.10085 h -2.74033 l -0.99219,-0.80319 h -7.1343 l -2.3151,-5.29167 h -12.14249 l -4.34672,9.92187 h 16.5837 l 1.27384,1.27384 z"
           style="fill:#000000;stroke:none;stroke-width:0.26499999;stroke-linecap:butt;stroke-linejoin:miter;stroke-miterlimit:4;stroke-dasharray:none;stroke-opacity:1" />
        <path
           inkscape:connector-curvature="0"
           id="path862-3-6-7"
           d="m 467.68117,175.54443 -6.56734,-6.09304 v -6.52007 l -6.80357,-6.80358 v -9.44941 l 11.24479,21.35566 h 5.85864 l 2.01241,7.51044 z"
           style="fill:#000000;stroke:none;stroke-width:0.26499999;stroke-linecap:butt;stroke-linejoin:miter;stroke-miterlimit:4;stroke-dasharray:none;stroke-opacity:1" />
        <path
           inkscape:connector-curvature="0"
           id="path864-4-5-3"
           d="m 371.4414,141.60121 v 13.49711 l 8.419,6.68175 h 26.05877 l 9.36505,-6.64452 -0.14174,-12.70945 -19.84375,-6.23661 -4.25223,0.33073 z"
           style="fill:#000000;stroke:none;stroke-width:0.26499999;stroke-linecap:butt;stroke-linejoin:miter;stroke-miterlimit:4;stroke-dasharray:none;stroke-opacity:1" />
        <path
           inkscape:connector-curvature="0"
           id="path868-5-6-7"
           d="m 435.69494,131.93726 v 5.38616 l 16.52868,6.48276 v 12.42803 l -5.94675,5.94675 -12.42803,0.53454 -16.43708,-9.68852 -0.26727,-18.50841 3.0736,-2.60588 z"
           style="fill:#000000;stroke:none;stroke-width:0.26499999;stroke-linecap:butt;stroke-linejoin:miter;stroke-miterlimit:4;stroke-dasharray:none;stroke-opacity:1" />
        <path
           inkscape:connector-curvature="0"
           id="path870-6-3-2"
           d="m 450.92068,167.59317 h 7.75081 v -4.04246 l -4.94448,-5.47902 -4.64381,4.74403 z"
           style="fill:#000000;stroke:none;stroke-width:0.26499999;stroke-linecap:butt;stroke-linejoin:miter;stroke-miterlimit:4;stroke-dasharray:none;stroke-opacity:1" />
      </g>
    </g>
  </g>
</svg>
