<?xml version="1.0" encoding="UTF-8" standalone="no"?>
<svg
   xmlns:dc="http://purl.org/dc/elements/1.1/"
   xmlns:cc="http://creativecommons.org/ns#"
   xmlns:rdf="http://www.w3.org/1999/02/22-rdf-syntax-ns#"
   xmlns:svg="http://www.w3.org/2000/svg"
   xmlns="http://www.w3.org/2000/svg"
   xmlns:sodipodi="http://sodipodi.sourceforge.net/DTD/sodipodi-0.dtd"
   xmlns:inkscape="http://www.inkscape.org/namespaces/inkscape"
   width="500"
   height="500"
   viewBox="0 0 132.29166 132.29167"
   version="1.1"
   id="svg1008"
   sodipodi:docname="default_chariot_full.svg"
   inkscape:version="1.0.1 (3bc2e813f5, 2020-09-07)">
  <defs
     id="defs1002" />
  <sodipodi:namedview
     id="base"
     pagecolor="#ffffff"
     bordercolor="#666666"
     borderopacity="1.0"
     inkscape:pageopacity="0.0"
     inkscape:pageshadow="2"
     inkscape:zoom="1.1902403"
     inkscape:cx="224.93767"
     inkscape:cy="312.36729"
     inkscape:document-units="mm"
     inkscape:current-layer="layer1"
     inkscape:document-rotation="0"
     showgrid="false"
     inkscape:snap-nodes="true"
     inkscape:window-width="1920"
     inkscape:window-height="1017"
     inkscape:window-x="1912"
     inkscape:window-y="-8"
     inkscape:window-maximized="1"
     units="px" />
  <metadata
     id="metadata1005">
    <rdf:RDF>
      <cc:Work
         rdf:about="">
        <dc:format>image/svg+xml</dc:format>
        <dc:type
           rdf:resource="http://purl.org/dc/dcmitype/StillImage" />
        <dc:title></dc:title>
      </cc:Work>
    </rdf:RDF>
  </metadata>
  <g
     inkscape:label="Layer 1"
     inkscape:groupmode="layer"
     id="layer1">
    <path
       id="path1953"
       style="fill:#000000;fill-opacity:1;stroke:none;stroke-width:0.696125px;stroke-linecap:butt;stroke-linejoin:miter;stroke-opacity:1"
       d="M 239.61328 235.64062 C 219.22655 235.64062 199.50688 242.29851 193.89258 253.26758 L 148.99414 253.26758 L 148.99414 258.98438 L 133.08203 258.98438 L 133.08203 276.88672 C 133.24822 279.64209 132.37682 281.01493 131.58008 282.48633 C 131.34624 297.07089 143.26476 304.96293 163.88086 308.95703 C 165.56118 306.95667 165.74957 306.21414 170.37305 302.74219 L 227.55664 302.74219 L 229.35742 297.23047 L 261.4668 297.23047 L 281.24609 262.97266 L 239.61328 235.64062 z "
       transform="scale(0.26458333)" />
    <path
       id="path1894"
       style="opacity:1;fill:#747275;fill-opacity:1;stroke:none;stroke-width:0.191551"
       d="m 57.148787,69.772909 a 3.4205434,3.4205434 0 0 0 -3.420697,3.420698 3.4205434,3.4205434 0 0 0 3.420697,3.420698 3.4205434,3.4205434 0 0 0 3.420339,-3.420698 3.4205434,3.4205434 0 0 0 -3.420339,-3.420698 z m -0.02842,1.085674 a 2.3351785,2.3351785 0 0 1 0.02842,0 2.3351785,2.3351785 0 0 1 2.335025,2.335024 2.3351785,2.3351785 0 0 1 -2.335025,2.335024 2.3351785,2.3351785 0 0 1 -2.335383,-2.335024 2.3351785,2.3351785 0 0 1 2.306965,-2.335024 z" />
    <path
       style="fill:#747275;fill-opacity:1;stroke:none;stroke-width:0.184183px;stroke-linecap:butt;stroke-linejoin:miter;stroke-opacity:1"
       d="M 51.5149,73.655618 H 37.639643 c -0.388523,0 -1.581939,0.227285 -1.52391,1.898918 0.05803,1.671633 2.95971,4.448762 6.608163,4.822247 0.635071,-0.763065 1.174601,-1.303863 2.116353,-1.814019 H 55.863891 C 53.951113,77.448052 51.98074,76.398136 51.5149,73.655618 Z"
       id="path1955"
       sodipodi:nodetypes="czzcccc" />
    <path
       id="path1960"
       style="fill:#000000;fill-opacity:1;stroke:none;stroke-width:0.696125px;stroke-linecap:butt;stroke-linejoin:miter;stroke-opacity:1"
       d="M 287.25977 254.05469 L 287.25977 261.7207 L 267.58203 261.7207 L 267.08594 275.14648 L 286.73828 275.14648 L 286.73828 283.59375 L 289.73828 282.41406 L 291.68555 275.14648 L 356.08984 275.14648 L 356.08984 261.7207 L 291.99609 261.7207 L 290.25977 255.23438 L 287.25977 254.05469 z "
       transform="scale(0.26458333)" />
    <circle
       style="opacity:1;fill:#000000;fill-opacity:1;stroke:none;stroke-width:0.184183"
       id="path1968"
       cx="40.111752"
       cy="74.805206"
       r="2.9600856" />
    <circle
       style="opacity:1;fill:#747275;fill-opacity:1;stroke:none;stroke-width:0.114312"
       id="path1968-0"
       cx="40.111752"
       cy="74.805206"
       r="1.8371562" />
    <path
       id="path2461"
       style="fill:#000000;fill-opacity:1;stroke:none;stroke-width:0.184183px;stroke-linecap:butt;stroke-linejoin:miter;stroke-opacity:1"
       d="m 31.188684,67.981081 -10.349149,1.558001 v 1.79075 1.79075 l 10.349149,1.558361 v -2.05839 h 3.290834 l 0.94178,0.94214 0.116194,-2.232861 -0.116194,-2.232499 -0.94178,0.941779 h -3.290834 z" />
    <g
       id="g24192" />
    <g
       id="g24334"
       transform="matrix(0.69612512,0,0,0.69612512,5.6760864,-47.906776)">
      <rect
         style="opacity:1;fill:#747275;fill-opacity:1;stroke:none;stroke-width:0.264583"
         id="rect1951"
         width="3.6852679"
         height="7.2760415"
         x="92.131699"
         y="152.77325" />
      <path
         id="path1024"
         style="fill:#000000;fill-opacity:1;stroke:none;stroke-width:0.999999px;stroke-linecap:butt;stroke-linejoin:miter;stroke-opacity:1"
         d="m 380.57422,515.55664 c -27.39031,20.18529 -40.78169,36.06649 -59.17969,51.11328 -19.11401,65.10985 -32.45594,110.24028 -85.52344,143.7207 33.90369,2.64462 64.49749,10.03025 88.64063,22.72852 11.33755,-4.47273 20.19268,-9.8694 25.75781,-21.97266 -12.90085,-13.56948 -21.21972,-26.63799 -25.86719,-39.09765 l 6.29688,-10.9043 h 10.08789 l 9.03516,7.0332 h 24.28515 V 624.60742 L 364.0332,616.5332 v -16.85742 h -7.44922 v -5.24023 h 7.44922 v -6.75977 h -7.44922 v -5.24023 h 7.44922 v -3.9961 l 8.36133,-10.1875 c 23.38623,-15.80323 49.56311,-26.21733 67.27344,-29.83984 -32.21617,-4.81293 -41.59673,-10.12908 -59.09375,-22.85547 z"
         sodipodi:nodetypes="cccccccccccccccccccccccc"
         transform="scale(0.26458333)" />
      <path
         style="fill:#747275;fill-opacity:1;stroke:none;stroke-width:0.264583px;stroke-linecap:butt;stroke-linejoin:miter;stroke-opacity:1"
         d="m 117.03065,142.68851 c -15.06655,-2.2693 -30.590041,4.73259 -31.403191,7.48077 -3.182614,16.19478 -11.391906,28.62469 -15.001487,36.85257 0.695743,1.30535 3.993247,2.75138 6.445046,3.45563 -5.810425,0.0974 -11.458145,-0.53789 -16.400835,-2.11928 8.151349,-5.02712 16.671018,-17.10222 23.519717,-38.58704 0.613427,-2.28934 9.466354,-7.78535 16.50389,-14.13188 4.45793,2.75693 10.32788,4.865 16.33686,7.04923 z"
         id="path1849"
         sodipodi:nodetypes="cccccccc" />
      <path
         style="fill:#747275;fill-opacity:1;stroke:none;stroke-width:0.264583px;stroke-linecap:butt;stroke-linejoin:miter;stroke-opacity:1"
         d="m 83.190197,190.83073 c 1.414042,0.83601 2.625362,1.76662 3.567151,2.82301 0.509891,-0.15572 1.027048,-0.39136 1.559149,-0.79139 -1.342926,-0.732 -2.55075,-1.59911 -3.673454,-2.55134 -0.936443,-0.0397 -1.351279,0.17151 -1.452846,0.51972 z"
         id="path1851"
         sodipodi:nodetypes="ccccc" />
      <path
         style="fill:#747275;fill-opacity:1;stroke:none;stroke-width:0.264583px;stroke-linecap:butt;stroke-linejoin:miter;stroke-opacity:1"
         d="m 85.886359,189.07983 c 1.505916,0.76084 2.817462,1.85014 3.759251,2.90653 0.371077,-0.2429 0.748296,-0.54108 1.14154,-0.98349 -1.401391,-0.732 -2.717793,-1.69098 -3.77368,-2.68497 -0.602356,0.10229 -0.900261,0.43042 -1.127111,0.76193 z"
         id="path1851-5"
         sodipodi:nodetypes="ccccc" />
      <path
         style="fill:#747275;fill-opacity:1;stroke:none;stroke-width:0.264583px;stroke-linecap:butt;stroke-linejoin:miter;stroke-opacity:1"
         d="m 87.859846,187.25129 c 1.414042,0.83601 2.731566,1.79943 3.673356,2.85582 0.294445,-0.33777 0.568268,-0.77866 0.840861,-1.2257 -1.342926,-0.732 -2.174902,-1.25667 -3.297606,-2.2089 -0.818814,-0.20332 -0.99844,0.27521 -1.216611,0.57878 z"
         id="path1851-5-9"
         sodipodi:nodetypes="ccccc" />
      <path
         id="path1883"
         style="fill:#747275;fill-opacity:1;stroke:none;stroke-width:0.30998px;stroke-linecap:butt;stroke-linejoin:miter;stroke-opacity:1"
         d="m 81.769362,168.9747 c -0.52452,0.77932 -1.04904,1.8756 -1.57356,3.09384 0.370689,1.54773 -0.311542,3.53396 -0.251842,5.14389 0.656899,-2.93073 0.87193,-5.89448 1.825402,-8.23773 z m -2.396341,4.70913 c -2.107065,2.46412 -2.176644,5.06771 -1.824221,7.82502 0.716651,-3.97371 1.064227,-5.63761 1.824221,-7.82502 z m -3.115,5.81392 -3.19419,6.57501 c 0.899932,0.30668 1.671132,0.76783 2.348465,1.34163 0.112857,-2.64131 0.334475,-5.32513 0.845725,-7.91664 z"
         sodipodi:nodetypes="ccccccccccc" />
      <path
         style="fill:#747275;fill-opacity:1;stroke:none;stroke-width:0.264583px;stroke-linecap:butt;stroke-linejoin:miter;stroke-opacity:1"
         d="m 93.281356,160.41295 c -0.37139,4.33024 -2.50095,8.63739 -4.6126,12.61396 l 0.997886,0.0556 c 1.922026,-3.60067 4.033428,-7.68168 4.723749,-12.66956 z"
         id="path24255"
         sodipodi:nodetypes="ccccc" />
      <circle
         style="opacity:1;fill:#747275;fill-opacity:1;stroke:none;stroke-width:0.0427954"
         id="path1968-0-9"
         cx="87.827469"
         cy="151.05539"
         r="0.68778175" />
      <path
         id="path24287"
         style="fill:#747275;fill-opacity:1;stroke:none;stroke-width:0.999999px;stroke-linecap:butt;stroke-linejoin:miter;stroke-opacity:1"
         d="m 323.34375,675.57227 c -8.92151,16.35502 -16.77927,29.34761 -28.54492,40.14062 l 3.77929,1.25977 c 10.35167,-10.85541 16.35735,-18.48756 23.16797,-32.81641 l 1.16592,5.18024 3.79953,-5.48598 c -1.65922,-2.4911 -2.53207,-5.37539 -3.36779,-8.27824 z"
         sodipodi:nodetypes="ccccccc"
         transform="scale(0.26458333)" />
    </g>
    <g
       id="g24253"
       transform="matrix(0.69612512,0,0,0.69612512,95.944883,-29.151328)">
      <circle
         style="opacity:1;fill:#000000;fill-opacity:1;stroke:none;stroke-width:0.289781"
         id="path2483"
         cx="-16.06398"
         cy="143.91592"
         r="19.560268" />
      <path
         style="fill:#000000;fill-opacity:1;stroke:none;stroke-width:0.264583px;stroke-linecap:butt;stroke-linejoin:miter;stroke-opacity:1"
         d="m 2.357448,139.87453 13.08755,4.03597 -13.12807,4.04682 z"
         id="path2485-7"
         sodipodi:nodetypes="cccc" />
      <path
         style="fill:#000000;fill-opacity:1;stroke:none;stroke-width:0.264583px;stroke-linecap:butt;stroke-linejoin:miter;stroke-opacity:1"
         d="m -34.485402,139.87453 -13.08755,4.03597 13.12807,4.04682 z"
         id="path2485-3-2"
         sodipodi:nodetypes="cccc" />
      <path
         style="fill:#000000;fill-opacity:1;stroke:none;stroke-width:0.264583px;stroke-linecap:butt;stroke-linejoin:miter;stroke-opacity:1"
         d="m -5.8957606,128.03232 12.108155,-6.40044 -6.42141132,12.14448 z"
         id="path2485-7-9"
         sodipodi:nodetypes="cccc" />
      <path
         style="fill:#000000;fill-opacity:1;stroke:none;stroke-width:0.264583px;stroke-linecap:butt;stroke-linejoin:miter;stroke-opacity:1"
         d="m -31.94759,154.08414 -6.400435,12.10816 12.144483,-6.42141 z"
         id="path2485-3-2-7"
         sodipodi:nodetypes="cccc" />
      <path
         style="fill:#000000;fill-opacity:1;stroke:none;stroke-width:0.264583px;stroke-linecap:butt;stroke-linejoin:miter;stroke-opacity:1"
         d="M -0.18804478,154.08414 6.2123909,166.19229 -5.9320924,159.77088 Z"
         id="path2485-7-9-1"
         sodipodi:nodetypes="cccc" />
      <path
         style="fill:#000000;fill-opacity:1;stroke:none;stroke-width:0.264583px;stroke-linecap:butt;stroke-linejoin:miter;stroke-opacity:1"
         d="m -26.239874,128.03231 -12.108155,-6.40044 6.421411,12.14449 z"
         id="path2485-3-2-7-3"
         sodipodi:nodetypes="cccc" />
      <path
         style="fill:#000000;fill-opacity:1;stroke:none;stroke-width:0.264583px;stroke-linecap:butt;stroke-linejoin:miter;stroke-opacity:1"
         d="m -12.022581,162.33735 -4.03597,13.08755 -4.04682,-13.12807 z"
         id="path2485-7-6"
         sodipodi:nodetypes="cccc" />
      <path
         style="fill:#000000;fill-opacity:1;stroke:none;stroke-width:0.264583px;stroke-linecap:butt;stroke-linejoin:miter;stroke-opacity:1"
         d="m -12.022581,125.4945 -4.03597,-13.08755 -4.04682,13.12807 z"
         id="path2485-3-2-6"
         sodipodi:nodetypes="cccc" />
      <circle
         style="opacity:1;fill:#ffffff;fill-opacity:1;stroke:none;stroke-width:0.195748"
         id="path2483-0"
         cx="-16.06398"
         cy="143.91592"
         r="13.212955" />
      <circle
         style="opacity:1;fill:#000000;fill-opacity:1;stroke:none;stroke-width:0.127468"
         id="path2483-0-2"
         cx="-12.359817"
         cy="143.91592"
         r="8.6040659" />
    </g>
  </g>
</svg>
