<?xml version="1.0" encoding="UTF-8" standalone="no"?>
<!-- Created with Inkscape (http://www.inkscape.org/) -->

<svg
   xmlns:dc="http://purl.org/dc/elements/1.1/"
   xmlns:cc="http://creativecommons.org/ns#"
   xmlns:rdf="http://www.w3.org/1999/02/22-rdf-syntax-ns#"
   xmlns:svg="http://www.w3.org/2000/svg"
   xmlns="http://www.w3.org/2000/svg"
   xmlns:sodipodi="http://sodipodi.sourceforge.net/DTD/sodipodi-0.dtd"
   xmlns:inkscape="http://www.inkscape.org/namespaces/inkscape"
   width="853"
   height="100"
   viewBox="0 0 225.68959 26.458334"
   version="1.1"
   id="svg7049"
   inkscape:version="0.92.2 (5c3e80d, 2017-08-06)"
   sodipodi:docname="bg_level1_tex.svg">
  <defs
     id="defs7043" />
  <sodipodi:namedview
     id="base"
     pagecolor="#ffffff"
     bordercolor="#666666"
     borderopacity="1.0"
     inkscape:pageopacity="0.0"
     inkscape:pageshadow="2"
     inkscape:zoom="0.98994949"
     inkscape:cx="630.75305"
     inkscape:cy="-9.1104771"
     inkscape:document-units="mm"
     inkscape:current-layer="layer1"
     showgrid="false"
     inkscape:pagecheckerboard="true"
     fit-margin-top="0"
     fit-margin-left="0"
     fit-margin-right="0"
     fit-margin-bottom="0"
     units="px"
     inkscape:window-width="1920"
     inkscape:window-height="1017"
     inkscape:window-x="-8"
     inkscape:window-y="-8"
     inkscape:window-maximized="1" />
  <metadata
     id="metadata7046">
    <rdf:RDF>
      <cc:Work
         rdf:about="">
        <dc:format>image/svg+xml</dc:format>
        <dc:type
           rdf:resource="http://purl.org/dc/dcmitype/StillImage" />
        <dc:title />
      </cc:Work>
    </rdf:RDF>
  </metadata>
  <g
     inkscape:label="Layer 1"
     inkscape:groupmode="layer"
     id="layer1"
     transform="translate(37.99531,-187.2682)">
    <path
       style="fill:#ffffff;fill-opacity:1;stroke:none;stroke-width:0.26458332px;stroke-linecap:butt;stroke-linejoin:miter;stroke-opacity:1"
       d="m -37.985113,213.72653 v -5.48066 c 5.433408,-0.60413 7.054584,-3.74338 9.958174,-3.60966 5.79771,0.26701 10.793336,2.07096 16.593186,2.28675 10.2705297,0.38214 20.4164697,-3.17318 30.69166,-2.94821 12.13473,0.26569 25.9357,4.64095 36.05893,5.06489 10.12322,0.42393 16.21634,-1.21906 24.34165,-1.36073 7.20725,-0.12565 14.42346,0.86144 21.620253,0.45358 11.09381,-0.62871 21.9235,-4.46508 33.0351,-4.46012 7.85791,0.004 15.50267,3.01421 23.35893,3.17501 4.55495,0.0932 9.05175,-1.3526 13.60715,-1.28513 5.50961,0.0816 16.40416,2.68362 16.40416,2.68362 v 5.48066 z"
       id="path7024"
       inkscape:connector-curvature="0"
       sodipodi:nodetypes="ccssszsssssccc" />
  </g>
</svg>
