<?xml version="1.0" encoding="UTF-8" standalone="no"?>
<!-- Created with Inkscape (http://www.inkscape.org/) -->

<svg
   xmlns:dc="http://purl.org/dc/elements/1.1/"
   xmlns:cc="http://creativecommons.org/ns#"
   xmlns:rdf="http://www.w3.org/1999/02/22-rdf-syntax-ns#"
   xmlns:svg="http://www.w3.org/2000/svg"
   xmlns="http://www.w3.org/2000/svg"
   xmlns:sodipodi="http://sodipodi.sourceforge.net/DTD/sodipodi-0.dtd"
   xmlns:inkscape="http://www.inkscape.org/namespaces/inkscape"
   width="50cm"
   height="50cm"
   viewBox="0 0 500 499.99999"
   version="1.1"
   id="svg2659"
   inkscape:version="0.92.2 (5c3e80d, 2017-08-06)"
   sodipodi:docname="c_bg_baobab_0.svg">
  <defs
     id="defs2653" />
  <sodipodi:namedview
     id="base"
     pagecolor="#ffffff"
     bordercolor="#666666"
     borderopacity="1.0"
     inkscape:pageopacity="0.0"
     inkscape:pageshadow="2"
     inkscape:zoom="0.49497475"
     inkscape:cx="892.6734"
     inkscape:cy="1206.9054"
     inkscape:document-units="mm"
     inkscape:current-layer="g3657"
     showgrid="false"
     inkscape:snap-nodes="false"
     units="cm"
     inkscape:window-width="1920"
     inkscape:window-height="1017"
     inkscape:window-x="1912"
     inkscape:window-y="-8"
     inkscape:window-maximized="1" />
  <metadata
     id="metadata2656">
    <rdf:RDF>
      <cc:Work
         rdf:about="">
        <dc:format>image/svg+xml</dc:format>
        <dc:type
           rdf:resource="http://purl.org/dc/dcmitype/StillImage" />
        <dc:title></dc:title>
      </cc:Work>
    </rdf:RDF>
  </metadata>
  <g
     inkscape:label="Layer 1"
     inkscape:groupmode="layer"
     id="layer1"
     transform="translate(0,202.99998)">
    <g
       id="g3657"
       transform="matrix(3.1700777,0,0,3.1700777,633.20997,-745.98713)">
      <path
         sodipodi:nodetypes="cssssccc"
         inkscape:connector-curvature="0"
         id="path3215"
         d="m -137.86681,329.50594 c 0,0 -9.06466,-5.15076 -10.39435,-20.03273 -2.05748,-23.02747 0.0776,-41.77639 6.67272,-63.93496 3.66656,-12.31918 7.11681,-30.66979 12.98679,-30.66979 5.26331,0 8.56869,0.0492 14.66279,-0.0783 11.80784,-0.24703 22.24787,69.6643 20.546317,94.64273 -1.124613,15.50967 -10.252837,20.07305 -10.252837,20.07305 z"
         style="fill:#ffffff;fill-opacity:1;stroke:none;stroke-width:0.26458332px;stroke-linecap:butt;stroke-linejoin:miter;stroke-opacity:1" />
      <path
         sodipodi:nodetypes="sszss"
         inkscape:connector-curvature="0"
         id="path3232"
         d="m -101.69606,209.46923 c -8.88819,0.1333 -29.14783,0.34133 -26.66013,-2.73952 1.17863,-1.45965 7.47396,-8.15767 26.19242,-7.95126 18.718458,0.2064 23.78929,5.72887 25.323781,7.34991 2.779023,2.93577 -16.453,3.21485 -24.856071,3.34087 z"
         style="fill:#ffffff;fill-opacity:1;stroke:none;stroke-width:0.26458332px;stroke-linecap:butt;stroke-linejoin:miter;stroke-opacity:1" />
      <path
         sodipodi:nodetypes="sszss"
         inkscape:connector-curvature="0"
         id="path3232-3"
         d="m -145.07625,212.49536 c -4.61256,0.0691 -15.12638,0.17714 -13.83537,-1.42169 0.61166,-0.75748 3.87863,-4.23345 13.59265,-4.12633 9.71402,0.10711 12.34555,2.97301 13.14188,3.81426 1.44217,1.52353 -8.53835,1.66836 -12.89916,1.73376 z"
         style="fill:#ffffff;fill-opacity:1;stroke:none;stroke-width:0.13730651px;stroke-linecap:butt;stroke-linejoin:miter;stroke-opacity:1" />
      <path
         sodipodi:nodetypes="sszss"
         inkscape:connector-curvature="0"
         id="path3232-3-0"
         d="m -71.475519,197.29662 c -8.772586,0.18666 -28.768731,0.47853 -26.313363,-3.84059 1.163309,-2.04628 7.376731,-11.43634 25.851735,-11.14696 18.475005,0.28934 23.479888,8.03135 24.994419,10.30392 2.742854,4.1157 -16.239008,4.50695 -24.532791,4.68363 z"
         style="fill:#ffffff;fill-opacity:1;stroke:none;stroke-width:0.31122917px;stroke-linecap:butt;stroke-linejoin:miter;stroke-opacity:1" />
      <path
         sodipodi:nodetypes="sszss"
         inkscape:connector-curvature="0"
         id="path3232-3-0-0"
         d="m -110.37976,191.83736 c -11.4651,0.22751 -37.59857,0.58324 -34.38958,-4.68097 1.52036,-2.49404 9.64083,-13.93878 33.78627,-13.58608 24.145439,0.35265 30.686445,9.78873 32.665822,12.55857 3.584704,5.01627 -21.223163,5.49314 -32.062512,5.70848 z"
         style="fill:#ffffff;fill-opacity:1;stroke:none;stroke-width:0.39280272px;stroke-linecap:butt;stroke-linejoin:miter;stroke-opacity:1" />
      <path
         sodipodi:nodetypes="sszss"
         inkscape:connector-curvature="0"
         id="path3232-3-0-0-1"
         d="m -141.96002,190.89049 c -10.4172,0.22751 -34.16209,0.58324 -31.2464,-4.68097 1.3814,-2.49404 8.75967,-13.93878 30.69823,-13.58608 21.93856,0.35265 27.88173,9.78873 29.68019,12.55857 3.25707,5.01627 -19.28338,5.49314 -29.13202,5.70848 z"
         style="fill:#ffffff;fill-opacity:1;stroke:none;stroke-width:0.37442172px;stroke-linecap:butt;stroke-linejoin:miter;stroke-opacity:1" />
      <path
         sodipodi:nodetypes="sszss"
         inkscape:connector-curvature="0"
         id="path3232-3-0-0-1-7"
         d="m -158.3692,198.55506 c -7.57619,-1.14385 -24.82618,-3.88041 -22.0961,-7.68913 1.29343,-1.80446 7.98204,-9.95269 23.83992,-6.88333 15.8579,3.06931 19.059,11.31654 20.0377,13.74427 1.7725,4.39666 -14.61882,1.9094 -21.78152,0.82819 z"
         style="fill:#ffffff;fill-opacity:1;stroke:none;stroke-width:0.28766626px;stroke-linecap:butt;stroke-linejoin:miter;stroke-opacity:1" />
      <path
         sodipodi:nodetypes="sszss"
         inkscape:connector-curvature="0"
         id="path3232-3-0-0-1-7-1"
         d="m -168.55697,198.90152 c -8.69811,0.39849 -28.53305,1.18217 -26.3724,-2.90877 1.02364,-1.93817 6.59007,-10.85452 24.95199,-11.05719 18.36194,-0.20274 23.82814,6.88966 25.47774,8.97039 2.98751,3.7682 -15.834,4.61862 -24.05733,4.99557 z"
         style="fill:#ffffff;fill-opacity:1;stroke:none;stroke-width:0.29975471px;stroke-linecap:butt;stroke-linejoin:miter;stroke-opacity:1" />
      <path
         inkscape:connector-curvature="0"
         id="path3341"
         d="m -128.70089,216.39658 c 0,0 -21.35566,-0.28349 -28.5372,-18.70983"
         style="fill:none;stroke:#ffffff;stroke-width:2.5;stroke-linecap:butt;stroke-linejoin:miter;stroke-miterlimit:4;stroke-dasharray:none;stroke-opacity:1" />
      <path
         inkscape:connector-curvature="0"
         id="path3343"
         d="m -126.43303,216.11309 c 0,0 -12.37872,-9.5439 -15.68602,-19.84375"
         style="fill:none;stroke:#ffffff;stroke-width:2.5;stroke-linecap:butt;stroke-linejoin:miter;stroke-miterlimit:4;stroke-dasharray:none;stroke-opacity:1" />
      <path
         inkscape:connector-curvature="0"
         id="path3345"
         d="m -120.38542,216.20759 c 0,0 10.39435,-18.70982 6.04762,-25.98587"
         style="fill:none;stroke:#ffffff;stroke-width:2.5;stroke-linecap:butt;stroke-linejoin:miter;stroke-miterlimit:4;stroke-dasharray:none;stroke-opacity:1" />
      <path
         inkscape:connector-curvature="0"
         id="path3347"
         d="m -113.86533,216.39658 c 0,0 6.14212,-5.00819 5.38616,-8.31548"
         style="fill:none;stroke:#ffffff;stroke-width:1.25;stroke-linecap:round;stroke-linejoin:miter;stroke-miterlimit:4;stroke-dasharray:none;stroke-opacity:1" />
      <path
         inkscape:connector-curvature="0"
         id="path3349"
         d="m -111.40848,217.43601 c 0,0 16.81994,-4.63021 15.686012,-9.26042"
         style="fill:none;stroke:#ffffff;stroke-width:2.5;stroke-linecap:butt;stroke-linejoin:miter;stroke-miterlimit:4;stroke-dasharray:none;stroke-opacity:1" />
      <path
         inkscape:connector-curvature="0"
         id="path3351"
         d="m -98.840773,212.8058 c 0,0 9.638392,0.75595 9.732888,-4.53571"
         style="fill:none;stroke:#ffffff;stroke-width:1.25;stroke-linecap:round;stroke-linejoin:miter;stroke-miterlimit:4;stroke-dasharray:none;stroke-opacity:1" />
      <path
         inkscape:connector-curvature="0"
         id="path3353"
         d="m -83.343749,205.90774 c 0,0 12.662202,-2.83483 11.528274,-9.73289"
         style="fill:none;stroke:#ffffff;stroke-width:1.25;stroke-linecap:round;stroke-linejoin:miter;stroke-miterlimit:4;stroke-dasharray:none;stroke-opacity:1" />
      <path
         inkscape:connector-curvature="0"
         id="path3355"
         d="m -88.729909,201.75 c 0,0 9.35491,-1.98438 11.055802,-5.76414"
         style="fill:none;stroke:#ffffff;stroke-width:1.25;stroke-linecap:round;stroke-linejoin:miter;stroke-miterlimit:4;stroke-dasharray:none;stroke-opacity:1" />
      <path
         inkscape:connector-curvature="0"
         id="path3357"
         d="m -89.67485,201.27753 3.401785,-6.3311"
         style="fill:none;stroke:#ffffff;stroke-width:2.5;stroke-linecap:butt;stroke-linejoin:miter;stroke-miterlimit:4;stroke-dasharray:none;stroke-opacity:1" />
      <path
         inkscape:connector-curvature="0"
         id="path3359"
         d="m -95.816125,200.38206 c 0,0 -8.485805,-1.87088 -7.617185,-10.22306"
         style="fill:none;stroke:#ffffff;stroke-width:1.25;stroke-linecap:round;stroke-linejoin:miter;stroke-miterlimit:4;stroke-dasharray:none;stroke-opacity:1" />
      <path
         inkscape:connector-curvature="0"
         id="path3361"
         d="m -114.79226,201.05024 c 0,0 -10.95805,-2.33861 -11.8935,-10.62397"
         style="fill:none;stroke:#ffffff;stroke-width:1.25;stroke-linecap:round;stroke-linejoin:miter;stroke-miterlimit:4;stroke-dasharray:none;stroke-opacity:1" />
      <path
         inkscape:connector-curvature="0"
         id="path3363"
         d="m -137.71062,202.72067 c 0,0 9.75534,1.67044 15.63526,-12.16076"
         style="fill:none;stroke:#ffffff;stroke-width:1.25;stroke-linecap:round;stroke-linejoin:miter;stroke-miterlimit:4;stroke-dasharray:none;stroke-opacity:1" />
      <path
         inkscape:connector-curvature="0"
         id="path3365"
         d="m -129.09118,199.84752 c 0,0 -7.684,-1.9377 -6.28083,-9.68852"
         style="fill:none;stroke:#ffffff;stroke-width:1.25;stroke-linecap:round;stroke-linejoin:miter;stroke-miterlimit:4;stroke-dasharray:none;stroke-opacity:1" />
      <path
         inkscape:connector-curvature="0"
         id="path3367"
         d="m -150.60638,206.52926 c 0,0 6.81538,1.00226 9.08717,-7.684"
         style="fill:none;stroke:#ffffff;stroke-width:1.25;stroke-linecap:round;stroke-linejoin:miter;stroke-miterlimit:4;stroke-dasharray:none;stroke-opacity:1" />
      <path
         inkscape:connector-curvature="0"
         id="path3369"
         d="m -155.75132,202.25295 c 0,0 -9.08716,2.40543 -10.08942,-4.27631"
         style="fill:none;stroke:#ffffff;stroke-width:1.25;stroke-linecap:round;stroke-linejoin:miter;stroke-miterlimit:4;stroke-dasharray:none;stroke-opacity:1" />
      <path
         inkscape:connector-curvature="0"
         id="path3371"
         d="m -164.43757,200.9166 c 0,0 -8.8199,3.80859 -10.62397,-3.40768"
         style="fill:none;stroke:#ffffff;stroke-width:1.25;stroke-linecap:round;stroke-linejoin:miter;stroke-miterlimit:4;stroke-dasharray:none;stroke-opacity:1" />
    </g>
  </g>
</svg>
