<?xml version="1.0" encoding="UTF-8" standalone="no"?>
<!-- Created with Inkscape (http://www.inkscape.org/) -->

<svg
   xmlns:dc="http://purl.org/dc/elements/1.1/"
   xmlns:cc="http://creativecommons.org/ns#"
   xmlns:rdf="http://www.w3.org/1999/02/22-rdf-syntax-ns#"
   xmlns:svg="http://www.w3.org/2000/svg"
   xmlns="http://www.w3.org/2000/svg"
   xmlns:sodipodi="http://sodipodi.sourceforge.net/DTD/sodipodi-0.dtd"
   xmlns:inkscape="http://www.inkscape.org/namespaces/inkscape"
   width="55cm"
   height="55cm"
   viewBox="0 0 549.99996 550"
   version="1.1"
   id="svg5470"
   inkscape:version="0.92.2 (5c3e80d, 2017-08-06)"
   sodipodi:docname="c_bg_tree_1.svg">
  <defs
     id="defs5464" />
  <sodipodi:namedview
     id="base"
     pagecolor="#ffffff"
     bordercolor="#666666"
     borderopacity="1.0"
     inkscape:pageopacity="0.0"
     inkscape:pageshadow="2"
     inkscape:zoom="0.35000001"
     inkscape:cx="1339.6086"
     inkscape:cy="887.14412"
     inkscape:document-units="mm"
     inkscape:current-layer="layer1"
     showgrid="false"
     units="cm"
     inkscape:window-width="1920"
     inkscape:window-height="1017"
     inkscape:window-x="-8"
     inkscape:window-y="-8"
     inkscape:window-maximized="1" />
  <metadata
     id="metadata5467">
    <rdf:RDF>
      <cc:Work
         rdf:about="">
        <dc:format>image/svg+xml</dc:format>
        <dc:type
           rdf:resource="http://purl.org/dc/dcmitype/StillImage" />
        <dc:title></dc:title>
      </cc:Work>
    </rdf:RDF>
  </metadata>
  <g
     inkscape:label="Layer 1"
     inkscape:groupmode="layer"
     id="layer1"
     transform="translate(0,253.00002)">
    <g
       id="g6403"
       transform="matrix(11.419132,0,0,11.419132,-3045.5608,-103.95995)">
      <path
         sodipodi:nodetypes="csc"
         inkscape:connector-curvature="0"
         id="path1006-0"
         d="m 294.167,35.908994 c 0.47744,-0.0273 0.69176,-6.76942 -7.26974,-32.1257996 -0.95723,-3.04867995 -0.26727,-8.28534 -0.26727,-8.28534"
         style="fill:none;stroke:#ffffff;stroke-width:0.75;stroke-linecap:butt;stroke-linejoin:miter;stroke-miterlimit:4;stroke-dasharray:none;stroke-opacity:1" />
      <path
         sodipodi:nodetypes="cc"
         inkscape:connector-curvature="0"
         id="path1071-0"
         d="m 287.98691,8.1500444 c -5.75633,-1.06944 -11.65646,-3.76769 -12.05632,-9.05844995"
         style="fill:none;stroke:#ffffff;stroke-width:0.60000002;stroke-linecap:butt;stroke-linejoin:miter;stroke-miterlimit:4;stroke-dasharray:none;stroke-opacity:1" />
      <path
         sodipodi:nodetypes="cc"
         inkscape:connector-curvature="0"
         id="path1073-1"
         d="m 288.68797,9.2622344 c 6.13719,1.8485796 10.6473,-8.76703995 10.79769,-11.92023"
         style="fill:none;stroke:#ffffff;stroke-width:0.60000002;stroke-linecap:butt;stroke-linejoin:miter;stroke-miterlimit:4;stroke-dasharray:none;stroke-opacity:1" />
      <path
         sodipodi:nodetypes="cc"
         inkscape:connector-curvature="0"
         id="path1075-9"
         d="m 287.15433,4.4012344 c -1.56328,0.13211 -5.20532,-0.50651 -4.6491,-2.98601"
         style="fill:none;stroke:#ffffff;stroke-width:0.5;stroke-linecap:butt;stroke-linejoin:miter;stroke-miterlimit:4;stroke-dasharray:none;stroke-opacity:1" />
      <path
         sodipodi:nodetypes="cc"
         inkscape:connector-curvature="0"
         id="path1077-8"
         d="m 287.8158,6.0643244 c 3.03011,-0.0865 4.07171,-3.57914 4.15773,-4.8381"
         style="fill:none;stroke:#ffffff;stroke-width:0.5;stroke-linecap:butt;stroke-linejoin:miter;stroke-miterlimit:4;stroke-dasharray:none;stroke-opacity:1" />
      <g
         transform="translate(454.43614,-227.1825)"
         id="g5405">
        <path
           style="opacity:1;fill:#ffffff;fill-opacity:1;fill-rule:nonzero;stroke:none;stroke-width:0.47923669;stroke-linecap:round;stroke-linejoin:miter;stroke-miterlimit:4;stroke-dasharray:none;stroke-opacity:1;paint-order:stroke fill markers"
           d="m -174.76991,223.53886 c -0.33402,2.32657 -1.79473,3.15891 -4.26029,2.99764 -1.86964,-0.12229 -4.50435,-1.08551 -4.37463,-3.11534 0.13659,-2.13741 2.2887,-2.78471 4.13488,-2.91489 3.57807,-0.25231 4.84285,0.64482 4.50004,3.03259 z"
           id="path1008-2-05"
           inkscape:connector-curvature="0"
           sodipodi:nodetypes="sssss" />
      </g>
      <g
         transform="translate(453.52743,-225.89961)"
         id="g5452">
        <path
           style="opacity:1;fill:#ffffff;fill-opacity:1;fill-rule:nonzero;stroke:none;stroke-width:0.30028889;stroke-linecap:round;stroke-linejoin:miter;stroke-miterlimit:4;stroke-dasharray:none;stroke-opacity:1;paint-order:stroke fill markers"
           d="m -168.45916,226.06571 c -0.23435,1.30196 -1.25919,1.76774 -2.98904,1.67751 -1.31175,-0.0685 -3.16028,-0.60746 -3.06926,-1.74339 0.0958,-1.19612 1.60576,-1.55835 2.90105,-1.63119 2.51039,-0.1412 3.39777,0.36084 3.15725,1.69707 z"
           id="path1008-2-8-5"
           inkscape:connector-curvature="0"
           sodipodi:nodetypes="sssss" />
      </g>
      <g
         transform="matrix(0.8543897,0,0,0.8543897,431.06101,-197.58231)"
         id="g5414">
        <path
           style="opacity:1;fill:#ffffff;fill-opacity:1;fill-rule:nonzero;stroke:none;stroke-width:0.58438504;stroke-linecap:round;stroke-linejoin:miter;stroke-miterlimit:4;stroke-dasharray:none;stroke-opacity:1;paint-order:stroke fill markers"
           d="m -148.48642,225.3876 c -0.52912,2.81687 -2.18851,3.852 -5.19503,3.65534 -2.27986,-0.14912 -4.90225,-1.26768 -5.01374,-3.74542 -0.074,-1.6442 2.76033,-3.83115 5.01538,-3.74152 4.36313,0.17341 5.58468,1.74847 5.19339,3.8316 z"
           id="path1008-2-0-6"
           inkscape:connector-curvature="0"
           sodipodi:nodetypes="sssss" />
      </g>
      <path
         sodipodi:nodetypes="cc"
         inkscape:connector-curvature="0"
         id="path5057-6"
         d="m 293.36519,27.383104 c -3.4357,6.07321 -10.74375,3.48742 -12.13279,9.25021"
         style="fill:none;stroke:#ffffff;stroke-width:0.60000002;stroke-linecap:butt;stroke-linejoin:miter;stroke-miterlimit:4;stroke-dasharray:none;stroke-opacity:1" />
      <path
         sodipodi:nodetypes="csc"
         inkscape:connector-curvature="0"
         id="path5059-2"
         d="m 293.73936,29.066904 c -0.0404,0.36385 2.6879,2.37903 4.32976,2.32524 9.90385,-0.32443 8.98027,5.4523 8.98027,5.4523"
         style="fill:none;stroke:#ffffff;stroke-width:0.60000002;stroke-linecap:butt;stroke-linejoin:miter;stroke-miterlimit:4;stroke-dasharray:none;stroke-opacity:1" />
      <path
         sodipodi:nodetypes="cc"
         inkscape:connector-curvature="0"
         id="path5061-8"
         d="m 298.44887,31.362784 c -2.30312,1.28837 -2.36902,3.22974 -2.3932,5.05303"
         style="fill:none;stroke:#ffffff;stroke-width:0.40000001;stroke-linecap:butt;stroke-linejoin:miter;stroke-miterlimit:4;stroke-dasharray:none;stroke-opacity:1" />
      <path
         sodipodi:nodetypes="cc"
         inkscape:connector-curvature="0"
         id="path5063-4"
         d="m 299.30483,31.345884 c 2.57086,0.73218 2.7673,3.649 3.07212,5.05617"
         style="fill:none;stroke:#ffffff;stroke-width:0.40000001;stroke-linecap:butt;stroke-linejoin:miter;stroke-miterlimit:4;stroke-dasharray:none;stroke-opacity:1" />
      <g
         transform="translate(453.95506,-227.66359)"
         id="g5462">
        <path
           style="opacity:1;fill:#ffffff;fill-opacity:1;fill-rule:nonzero;stroke:none;stroke-width:0.75;stroke-linecap:round;stroke-linejoin:miter;stroke-miterlimit:4;stroke-dasharray:none;stroke-opacity:1;paint-order:stroke fill markers"
           d="m -160.8421,220.11715 c -0.26875,2.60518 -2.02673,3.9593 -5.43341,3.9593 -2.89641,0 -5.71689,-1.99831 -5.71689,-3.9971 -1e-5,-1.99878 2.62655,-3.71306 5.509,-3.9971 4.21934,-0.41578 5.91624,1.36963 5.6413,4.0349 z"
           id="path1008-3"
           inkscape:connector-curvature="0"
           sodipodi:nodetypes="sscss" />
      </g>
      <g
         transform="translate(454.64996,-225.95306)"
         id="g5446">
        <path
           style="opacity:1;fill:#ffffff;fill-opacity:1;fill-rule:nonzero;stroke:none;stroke-width:0.30776051;stroke-linecap:round;stroke-linejoin:miter;stroke-miterlimit:4;stroke-dasharray:none;stroke-opacity:1;paint-order:stroke fill markers"
           d="m -159.28867,225.9878 c -0.17654,1.34425 -1.20302,1.87097 -2.9783,1.8628 -1.3462,-0.006 -3.26482,-0.46804 -3.22694,-1.63535 0.0399,-1.22916 1.56801,-1.67349 2.89048,-1.81111 2.56308,-0.26675 3.49594,0.20401 3.31476,1.58366 z"
           id="path1008-2-8-9-1"
           inkscape:connector-curvature="0"
           sodipodi:nodetypes="sssss" />
      </g>
      <path
         sodipodi:nodetypes="cc"
         inkscape:connector-curvature="0"
         id="path5063-6-8"
         d="m 305.66908,33.361684 c 4.10166,0.52429 4.91314,1.15501 4.6321,3.03465"
         style="fill:none;stroke:#ffffff;stroke-width:0.40000001;stroke-linecap:butt;stroke-linejoin:miter;stroke-miterlimit:4;stroke-dasharray:none;stroke-opacity:1" />
      <path
         sodipodi:nodetypes="cc"
         inkscape:connector-curvature="0"
         id="path5063-2-44"
         d="m 287.95556,31.514024 c 1.9695,0.946 2.23814,3.17021 2.06187,4.61747"
         style="fill:none;stroke:#ffffff;stroke-width:0.40000001;stroke-linecap:butt;stroke-linejoin:miter;stroke-miterlimit:4;stroke-dasharray:none;stroke-opacity:1" />
      <path
         sodipodi:nodetypes="cc"
         inkscape:connector-curvature="0"
         id="path5063-2-4-7"
         d="m 284.09655,33.119184 c -2.89158,-0.13644 -5.87528,0.58566 -6.22019,3.20893"
         style="fill:none;stroke:#ffffff;stroke-width:0.40000001;stroke-linecap:butt;stroke-linejoin:miter;stroke-miterlimit:4;stroke-dasharray:none;stroke-opacity:1" />
    </g>
  </g>
</svg>
