<?xml version="1.0" encoding="UTF-8" standalone="no"?>
<!-- Created with Inkscape (http://www.inkscape.org/) -->

<svg
   xmlns:dc="http://purl.org/dc/elements/1.1/"
   xmlns:cc="http://creativecommons.org/ns#"
   xmlns:rdf="http://www.w3.org/1999/02/22-rdf-syntax-ns#"
   xmlns:svg="http://www.w3.org/2000/svg"
   xmlns="http://www.w3.org/2000/svg"
   xmlns:sodipodi="http://sodipodi.sourceforge.net/DTD/sodipodi-0.dtd"
   xmlns:inkscape="http://www.inkscape.org/namespaces/inkscape"
   width="55cm"
   height="55cm"
   viewBox="0 0 549.99996 550"
   version="1.1"
   id="svg5470"
   inkscape:version="0.92.2 (5c3e80d, 2017-08-06)"
   sodipodi:docname="c_bg_tree_0.svg">
  <defs
     id="defs5464" />
  <sodipodi:namedview
     id="base"
     pagecolor="#ffffff"
     bordercolor="#666666"
     borderopacity="1.0"
     inkscape:pageopacity="0.0"
     inkscape:pageshadow="2"
     inkscape:zoom="0.24748737"
     inkscape:cx="1926.5503"
     inkscape:cy="1091.4691"
     inkscape:document-units="mm"
     inkscape:current-layer="layer1"
     showgrid="false"
     units="cm"
     inkscape:window-width="1920"
     inkscape:window-height="1017"
     inkscape:window-x="-8"
     inkscape:window-y="-8"
     inkscape:window-maximized="1" />
  <metadata
     id="metadata5467">
    <rdf:RDF>
      <cc:Work
         rdf:about="">
        <dc:format>image/svg+xml</dc:format>
        <dc:type
           rdf:resource="http://purl.org/dc/dcmitype/StillImage" />
        <dc:title></dc:title>
      </cc:Work>
    </rdf:RDF>
  </metadata>
  <g
     inkscape:label="Layer 1"
     inkscape:groupmode="layer"
     id="layer1"
     transform="translate(0,253.00002)">
    <g
       transform="matrix(10.957498,0,0,10.957498,2229.974,-1406.6366)"
       id="g5162">
      <path
         sodipodi:nodetypes="csc"
         inkscape:connector-curvature="0"
         id="path1006"
         d="m -183.07962,155.72123 c 0,0 0.0518,-9.18715 4.97121,-35.27958 0.59202,-3.14011 0.58799,-7.96462 0.58799,-7.96462"
         style="fill:none;stroke:#ffffff;stroke-width:0.75;stroke-linecap:butt;stroke-linejoin:miter;stroke-miterlimit:4;stroke-dasharray:none;stroke-opacity:1" />
      <path
         sodipodi:nodetypes="sscss"
         inkscape:connector-curvature="0"
         id="path1008"
         d="m -171.09091,109.64656 c -0.26875,2.60518 -2.02673,3.9593 -5.43341,3.9593 -2.89641,0 -5.71689,-1.99831 -5.71689,-3.9971 -1e-5,-1.99878 2.62655,-3.71306 5.509,-3.9971 4.21934,-0.41578 5.91624,1.36963 5.6413,4.0349 z"
         style="opacity:1;fill:#ffffff;fill-opacity:1;fill-rule:nonzero;stroke:none;stroke-width:0.75;stroke-linecap:round;stroke-linejoin:miter;stroke-miterlimit:4;stroke-dasharray:none;stroke-opacity:1;paint-order:stroke fill markers" />
      <path
         sodipodi:nodetypes="sssss"
         inkscape:connector-curvature="0"
         id="path1008-2"
         d="m -185.01872,113.06827 c -0.33402,2.32657 -1.79473,3.15891 -4.26029,2.99764 -1.86964,-0.12229 -4.50435,-1.08551 -4.37463,-3.11534 0.13659,-2.13741 2.2887,-2.78471 4.13488,-2.91489 3.57807,-0.25231 4.84285,0.64482 4.50004,3.03259 z"
         style="opacity:1;fill:#ffffff;fill-opacity:1;fill-rule:nonzero;stroke:none;stroke-width:0.47923669;stroke-linecap:round;stroke-linejoin:miter;stroke-miterlimit:4;stroke-dasharray:none;stroke-opacity:1;paint-order:stroke fill markers" />
      <path
         sodipodi:nodetypes="sssss"
         inkscape:connector-curvature="0"
         id="path1008-2-0"
         d="m -158.73523,114.91701 c -0.52912,2.81687 -2.18851,3.852 -5.19503,3.65534 -2.27986,-0.14912 -4.90225,-1.26768 -5.01374,-3.74542 -0.074,-1.6442 2.76033,-3.83115 5.01538,-3.74152 4.36313,0.17341 5.58468,1.74847 5.19339,3.8316 z"
         style="opacity:1;fill:#ffffff;fill-opacity:1;fill-rule:nonzero;stroke:none;stroke-width:0.58438504;stroke-linecap:round;stroke-linejoin:miter;stroke-miterlimit:4;stroke-dasharray:none;stroke-opacity:1;paint-order:stroke fill markers" />
      <path
         sodipodi:nodetypes="sssss"
         inkscape:connector-curvature="0"
         id="path1008-2-8"
         d="m -178.70797,115.59512 c -0.23435,1.30196 -1.25919,1.76774 -2.98904,1.67751 -1.31175,-0.0685 -3.16028,-0.60746 -3.06926,-1.74339 0.0958,-1.19612 1.60576,-1.55835 2.90105,-1.63119 2.51039,-0.1412 3.39777,0.36084 3.15725,1.69707 z"
         style="opacity:1;fill:#ffffff;fill-opacity:1;fill-rule:nonzero;stroke:none;stroke-width:0.30028889;stroke-linecap:round;stroke-linejoin:miter;stroke-miterlimit:4;stroke-dasharray:none;stroke-opacity:1;paint-order:stroke fill markers" />
      <path
         sodipodi:nodetypes="sssss"
         inkscape:connector-curvature="0"
         id="path1008-2-8-9"
         d="m -169.53748,115.51721 c -0.17654,1.34425 -1.20302,1.87097 -2.9783,1.8628 -1.3462,-0.006 -3.26482,-0.46804 -3.22694,-1.63535 0.0399,-1.22916 1.56801,-1.67349 2.89048,-1.81111 2.56308,-0.26675 3.49594,0.20401 3.31476,1.58366 z"
         style="opacity:1;fill:#ffffff;fill-opacity:1;fill-rule:nonzero;stroke:none;stroke-width:0.30776051;stroke-linecap:round;stroke-linejoin:miter;stroke-miterlimit:4;stroke-dasharray:none;stroke-opacity:1;paint-order:stroke fill markers" />
      <path
         sodipodi:nodetypes="cc"
         inkscape:connector-curvature="0"
         id="path1071"
         d="m -178.78274,124.1136 c -5.75633,-1.06944 -11.01502,-3.55388 -11.41488,-8.84464"
         style="fill:none;stroke:#ffffff;stroke-width:0.60000002;stroke-linecap:butt;stroke-linejoin:miter;stroke-miterlimit:4;stroke-dasharray:none;stroke-opacity:1" />
      <path
         sodipodi:nodetypes="cc"
         inkscape:connector-curvature="0"
         id="path1073"
         d="m -178.93695,123.94289 c 4.80085,4.30746 11.9302,-3.26128 13.25657,-6.09375"
         style="fill:none;stroke:#ffffff;stroke-width:0.60000002;stroke-linecap:butt;stroke-linejoin:miter;stroke-miterlimit:4;stroke-dasharray:none;stroke-opacity:1" />
      <path
         sodipodi:nodetypes="cc"
         inkscape:connector-curvature="0"
         id="path1075"
         d="m -178.44256,121.29768 c -1.56328,0.13211 -4.48717,-1.82943 -3.93095,-4.30893"
         style="fill:none;stroke:#ffffff;stroke-width:0.5;stroke-linecap:butt;stroke-linejoin:miter;stroke-miterlimit:4;stroke-dasharray:none;stroke-opacity:1" />
      <path
         sodipodi:nodetypes="cc"
         inkscape:connector-curvature="0"
         id="path1077"
         d="m -177.85669,120.08815 c 3.03011,-0.0865 4.14731,-1.95384 4.23333,-3.2128"
         style="fill:none;stroke:#ffffff;stroke-width:0.5;stroke-linecap:butt;stroke-linejoin:miter;stroke-miterlimit:4;stroke-dasharray:none;stroke-opacity:1" />
      <path
         sodipodi:nodetypes="cc"
         inkscape:connector-curvature="0"
         id="path5057"
         d="m -182.14418,145.80554 c -3.4357,6.07321 -9.67592,4.60726 -11.06496,10.37005"
         style="fill:none;stroke:#ffffff;stroke-width:0.60000002;stroke-linecap:butt;stroke-linejoin:miter;stroke-miterlimit:4;stroke-dasharray:none;stroke-opacity:1" />
      <path
         sodipodi:nodetypes="csc"
         inkscape:connector-curvature="0"
         id="path5059"
         d="m -182.43818,147.86351 c -0.0404,0.36385 2.6879,2.32558 4.32976,2.27179 9.90385,-0.32443 8.713,5.98684 8.713,5.98684"
         style="fill:none;stroke:#ffffff;stroke-width:0.60000002;stroke-linecap:butt;stroke-linejoin:miter;stroke-miterlimit:4;stroke-dasharray:none;stroke-opacity:1" />
      <path
         sodipodi:nodetypes="cc"
         inkscape:connector-curvature="0"
         id="path5061"
         d="m -176.55268,150.21285 c -3.23857,1.92982 -3.38465,4.13846 -3.83646,5.48066"
         style="fill:none;stroke:#ffffff;stroke-width:0.40000001;stroke-linecap:butt;stroke-linejoin:miter;stroke-miterlimit:4;stroke-dasharray:none;stroke-opacity:1" />
      <path
         sodipodi:nodetypes="cc"
         inkscape:connector-curvature="0"
         id="path5063"
         d="m -178.87723,152.25392 c 2.57086,0.73218 2.4733,2.2592 2.77812,3.66637"
         style="fill:none;stroke:#ffffff;stroke-width:0.40000001;stroke-linecap:butt;stroke-linejoin:miter;stroke-miterlimit:4;stroke-dasharray:none;stroke-opacity:1" />
      <path
         sodipodi:nodetypes="cc"
         inkscape:connector-curvature="0"
         id="path5063-6"
         d="m -170.96282,151.83757 c 4.10166,0.52429 5.10023,1.95682 4.81919,3.83646"
         style="fill:none;stroke:#ffffff;stroke-width:0.40000001;stroke-linecap:butt;stroke-linejoin:miter;stroke-miterlimit:4;stroke-dasharray:none;stroke-opacity:1" />
      <path
         sodipodi:nodetypes="cc"
         inkscape:connector-curvature="0"
         id="path5063-2"
         d="m -187.96008,150.94291 c 1.9695,0.946 2.7673,3.20801 2.59103,4.65527"
         style="fill:none;stroke:#ffffff;stroke-width:0.40000001;stroke-linecap:butt;stroke-linejoin:miter;stroke-miterlimit:4;stroke-dasharray:none;stroke-opacity:1" />
      <path
         sodipodi:nodetypes="cc"
         inkscape:connector-curvature="0"
         id="path5063-2-4"
         d="m -191.17653,152.96384 c -2.89158,-0.13644 -6.44225,0.0943 -6.78716,2.71757"
         style="fill:none;stroke:#ffffff;stroke-width:0.40000001;stroke-linecap:butt;stroke-linejoin:miter;stroke-miterlimit:4;stroke-dasharray:none;stroke-opacity:1" />
    </g>
  </g>
</svg>
