<?xml version="1.0" encoding="UTF-8" standalone="no"?>
<!-- Created with Inkscape (http://www.inkscape.org/) -->

<svg
   xmlns:dc="http://purl.org/dc/elements/1.1/"
   xmlns:cc="http://creativecommons.org/ns#"
   xmlns:rdf="http://www.w3.org/1999/02/22-rdf-syntax-ns#"
   xmlns:svg="http://www.w3.org/2000/svg"
   xmlns="http://www.w3.org/2000/svg"
   xmlns:sodipodi="http://sodipodi.sourceforge.net/DTD/sodipodi-0.dtd"
   xmlns:inkscape="http://www.inkscape.org/namespaces/inkscape"
   width="55cm"
   height="55cm"
   viewBox="0 0 549.99996 550"
   version="1.1"
   id="svg5470"
   inkscape:version="0.92.2 (5c3e80d, 2017-08-06)"
   sodipodi:docname="c_tree_1.svg">
  <defs
     id="defs5464" />
  <sodipodi:namedview
     id="base"
     pagecolor="#ffffff"
     bordercolor="#666666"
     borderopacity="1.0"
     inkscape:pageopacity="0.0"
     inkscape:pageshadow="2"
     inkscape:zoom="0.12374369"
     inkscape:cx="101.39299"
     inkscape:cy="1483.1948"
     inkscape:document-units="mm"
     inkscape:current-layer="layer1"
     showgrid="false"
     units="cm"
     inkscape:window-width="1920"
     inkscape:window-height="1017"
     inkscape:window-x="-8"
     inkscape:window-y="-8"
     inkscape:window-maximized="1" />
  <metadata
     id="metadata5467">
    <rdf:RDF>
      <cc:Work
         rdf:about="">
        <dc:format>image/svg+xml</dc:format>
        <dc:type
           rdf:resource="http://purl.org/dc/dcmitype/StillImage" />
        <dc:title></dc:title>
      </cc:Work>
    </rdf:RDF>
  </metadata>
  <g
     inkscape:label="Layer 1"
     inkscape:groupmode="layer"
     id="layer1"
     transform="translate(0,253.00002)">
    <g
       id="g6403"
       transform="matrix(11.419132,0,0,11.419132,-3045.5608,-103.95995)">
      <path
         sodipodi:nodetypes="csc"
         inkscape:connector-curvature="0"
         id="path1006-0"
         d="m 294.167,35.908994 c 0.47744,-0.0273 0.69176,-6.76942 -7.26974,-32.1257996 -0.95723,-3.04867995 -0.26727,-8.28534 -0.26727,-8.28534"
         style="fill:none;stroke:#ae122a;stroke-width:0.75;stroke-linecap:butt;stroke-linejoin:miter;stroke-miterlimit:4;stroke-dasharray:none;stroke-opacity:1" />
      <path
         sodipodi:nodetypes="cc"
         inkscape:connector-curvature="0"
         id="path1071-0"
         d="m 287.98691,8.1500444 c -5.75633,-1.06944 -11.65646,-3.76769 -12.05632,-9.05844995"
         style="fill:none;stroke:#ae122a;stroke-width:0.60000002;stroke-linecap:butt;stroke-linejoin:miter;stroke-miterlimit:4;stroke-dasharray:none;stroke-opacity:1" />
      <path
         sodipodi:nodetypes="cc"
         inkscape:connector-curvature="0"
         id="path1073-1"
         d="m 288.68797,9.2622344 c 6.13719,1.8485796 10.6473,-8.76703995 10.79769,-11.92023"
         style="fill:none;stroke:#ad1029;stroke-width:0.60000002;stroke-linecap:butt;stroke-linejoin:miter;stroke-miterlimit:4;stroke-dasharray:none;stroke-opacity:1" />
      <path
         sodipodi:nodetypes="cc"
         inkscape:connector-curvature="0"
         id="path1075-9"
         d="m 287.15433,4.4012344 c -1.56328,0.13211 -5.20532,-0.50651 -4.6491,-2.98601"
         style="fill:none;stroke:#ad1029;stroke-width:0.5;stroke-linecap:butt;stroke-linejoin:miter;stroke-miterlimit:4;stroke-dasharray:none;stroke-opacity:1" />
      <path
         sodipodi:nodetypes="cc"
         inkscape:connector-curvature="0"
         id="path1077-8"
         d="m 287.8158,6.0643244 c 3.03011,-0.0865 4.07171,-3.57914 4.15773,-4.8381"
         style="fill:none;stroke:#ad1029;stroke-width:0.5;stroke-linecap:butt;stroke-linejoin:miter;stroke-miterlimit:4;stroke-dasharray:none;stroke-opacity:1" />
      <g
         transform="translate(454.43614,-227.1825)"
         id="g5405">
        <path
           style="opacity:1;fill:#ad1029;fill-opacity:1;fill-rule:nonzero;stroke:none;stroke-width:0.47923669;stroke-linecap:round;stroke-linejoin:miter;stroke-miterlimit:4;stroke-dasharray:none;stroke-opacity:1;paint-order:stroke fill markers"
           d="m -174.76991,223.53886 c -0.33402,2.32657 -1.79473,3.15891 -4.26029,2.99764 -1.86964,-0.12229 -4.50435,-1.08551 -4.37463,-3.11534 0.13659,-2.13741 2.2887,-2.78471 4.13488,-2.91489 3.57807,-0.25231 4.84285,0.64482 4.50004,3.03259 z"
           id="path1008-2-05"
           inkscape:connector-curvature="0"
           sodipodi:nodetypes="sssss" />
        <path
           style="opacity:1;fill:#941829;fill-opacity:1;fill-rule:nonzero;stroke:none;stroke-width:0.56887996;stroke-linecap:round;stroke-linejoin:miter;stroke-miterlimit:4;stroke-dasharray:none;stroke-opacity:1;paint-order:stroke fill markers"
           d="m -180.96709,223.90614 c -0.10733,0.60931 -0.68568,0.91443 -1.13142,0.77539 -0.44575,-0.13905 -0.64411,-0.54592 -0.47802,-1.14191 0.16607,-0.596 0.87746,-1.20819 1.21647,-1.11084 0.44879,0.1289 0.50075,0.86532 0.39297,1.47736 z"
           id="path1079-13"
           inkscape:connector-curvature="0"
           sodipodi:nodetypes="scsss" />
        <path
           style="opacity:1;fill:#941829;fill-opacity:1;fill-rule:nonzero;stroke:none;stroke-width:0.34316498;stroke-linecap:round;stroke-linejoin:miter;stroke-miterlimit:4;stroke-dasharray:none;stroke-opacity:1;paint-order:stroke fill markers"
           d="m -178.80544,225.02138 c -0.0109,0.29578 -0.42191,0.55792 -0.71606,0.52506 -0.30085,-0.0336 -0.69369,-0.39897 -0.59579,-0.68542 0.11133,-0.32571 0.38824,-0.41037 0.64256,-0.39142 0.2895,0.0216 0.67995,0.26168 0.66929,0.55178 z"
           id="path1097-61"
           inkscape:connector-curvature="0"
           sodipodi:nodetypes="sssss" />
        <path
           style="opacity:1;fill:#941829;fill-opacity:1;fill-rule:nonzero;stroke:none;stroke-width:0.5;stroke-linecap:round;stroke-linejoin:miter;stroke-miterlimit:4;stroke-dasharray:none;stroke-opacity:1;paint-order:stroke fill markers"
           d="m -176.32202,224.99891 c 0.13708,0.388 -0.35567,0.92722 -0.76506,0.96885 -0.28385,0.0289 -0.63485,-0.26662 -0.65481,-0.55124 -0.0193,-0.27455 0.289,-0.5312 0.55124,-0.61472 0.28291,-0.0901 0.76972,-0.0828 0.86863,0.19711 z"
           id="path1100-6"
           inkscape:connector-curvature="0"
           sodipodi:nodetypes="sssss" />
        <path
           style="fill:#941829;fill-opacity:1;stroke:none;stroke-width:0.26458332px;stroke-linecap:butt;stroke-linejoin:miter;stroke-opacity:1"
           d="m -175.01622,221.72827 c -0.24275,-0.018 -0.45473,0.31041 -0.47719,0.55279 -0.0419,0.45186 0.49699,1.62064 0.65835,1.1965 0.43863,-0.59524 0.20437,-1.51493 -0.18116,-1.74929 z"
           id="path4794-7"
           inkscape:connector-curvature="0"
           sodipodi:nodetypes="cscc" />
        <path
           style="fill:none;stroke:#941829;stroke-width:0.30000001;stroke-linecap:butt;stroke-linejoin:miter;stroke-miterlimit:4;stroke-dasharray:none;stroke-opacity:1"
           d="m -178.21012,221.46841 c -0.54632,-0.026 -1.35406,0.3419 -1.37961,0.88825 -0.0348,0.74398 1.01309,1.40052 1.75759,1.37961 0.52426,-0.0147 1.19542,-0.51516 1.18117,-1.03943 -0.018,-0.6614 -0.89825,-1.19692 -1.55915,-1.22843 z"
           id="path4796-5"
           inkscape:connector-curvature="0"
           sodipodi:nodetypes="sssss" />
      </g>
      <g
         transform="translate(453.52743,-225.89961)"
         id="g5452">
        <path
           style="opacity:1;fill:#ad1029;fill-opacity:1;fill-rule:nonzero;stroke:none;stroke-width:0.30028889;stroke-linecap:round;stroke-linejoin:miter;stroke-miterlimit:4;stroke-dasharray:none;stroke-opacity:1;paint-order:stroke fill markers"
           d="m -168.45916,226.06571 c -0.23435,1.30196 -1.25919,1.76774 -2.98904,1.67751 -1.31175,-0.0685 -3.16028,-0.60746 -3.06926,-1.74339 0.0958,-1.19612 1.60576,-1.55835 2.90105,-1.63119 2.51039,-0.1412 3.39777,0.36084 3.15725,1.69707 z"
           id="path1008-2-8-5"
           inkscape:connector-curvature="0"
           sodipodi:nodetypes="sssss" />
        <path
           style="opacity:1;fill:#941829;fill-opacity:1;fill-rule:nonzero;stroke:none;stroke-width:0.43811166;stroke-linecap:round;stroke-linejoin:miter;stroke-miterlimit:4;stroke-dasharray:none;stroke-opacity:1;paint-order:stroke fill markers"
           d="m -172.31052,225.60069 c 0.19283,0.30719 -0.11364,0.87453 -0.44951,0.99466 -0.23286,0.0834 -0.58705,-0.0999 -0.66073,-0.34187 -0.0711,-0.23332 0.13677,-0.51853 0.34055,-0.64462 0.21983,-0.13603 0.63057,-0.22976 0.76969,-0.008 z"
           id="path1100-3-2-3"
           inkscape:connector-curvature="0"
           sodipodi:nodetypes="sssss" />
        <path
           style="fill:#941829;fill-opacity:1;stroke:none;stroke-width:0.14963342px;stroke-linecap:butt;stroke-linejoin:miter;stroke-opacity:1"
           d="m -169.46816,225.93815 c -0.099,0.51879 0.56921,1.24246 0.66046,1.00259 0.54415,-0.32284 0.57398,-1.63391 0.28494,-1.77434 -0.33329,0.10407 -0.8837,0.49628 -0.94538,0.77175 z"
           id="path4794-0-8-2"
           inkscape:connector-curvature="0"
           sodipodi:nodetypes="ccccc" />
        <path
           style="fill:none;stroke:#941829;stroke-width:0.30000001;stroke-linecap:butt;stroke-linejoin:miter;stroke-miterlimit:4;stroke-dasharray:none;stroke-opacity:1"
           d="m -171.00617,227.44474 c -0.3802,0.036 -0.95107,-0.042 -0.99952,-0.47164 -0.0485,-0.42963 0.74848,-0.93121 1.17122,-0.91934 0.42274,0.0119 0.80426,0.32061 0.7871,0.69265 -0.0172,0.37204 -0.5786,0.66237 -0.9588,0.69833 z"
           id="path4796-1-6"
           inkscape:connector-curvature="0"
           sodipodi:nodetypes="zzzzz" />
      </g>
      <g
         transform="matrix(0.8543897,0,0,0.8543897,431.06101,-197.58231)"
         id="g5414">
        <path
           style="opacity:1;fill:#ad1029;fill-opacity:1;fill-rule:nonzero;stroke:none;stroke-width:0.58438504;stroke-linecap:round;stroke-linejoin:miter;stroke-miterlimit:4;stroke-dasharray:none;stroke-opacity:1;paint-order:stroke fill markers"
           d="m -148.48642,225.3876 c -0.52912,2.81687 -2.18851,3.852 -5.19503,3.65534 -2.27986,-0.14912 -4.90225,-1.26768 -5.01374,-3.74542 -0.074,-1.6442 2.76033,-3.83115 5.01538,-3.74152 4.36313,0.17341 5.58468,1.74847 5.19339,3.8316 z"
           id="path1008-2-0-6"
           inkscape:connector-curvature="0"
           sodipodi:nodetypes="sssss" />
        <path
           style="opacity:1;fill:#941829;fill-opacity:1;fill-rule:nonzero;stroke:none;stroke-width:0.64941782;stroke-linecap:round;stroke-linejoin:miter;stroke-miterlimit:4;stroke-dasharray:none;stroke-opacity:1;paint-order:stroke fill markers"
           d="m -152.5788,227.55194 c -0.18103,0.53008 -1.06868,0.78116 -1.58386,0.56128 -0.52689,-0.22487 -1.0397,-1.1011 -0.70616,-1.56686 0.37928,-0.52959 0.92725,-0.5321 1.37781,-0.35916 0.51291,0.19686 1.08964,0.84481 0.91221,1.36474 z"
           id="path1097-6-2-2"
           inkscape:connector-curvature="0"
           sodipodi:nodetypes="sssss" />
        <path
           style="opacity:1;fill:#941829;fill-opacity:1;fill-rule:nonzero;stroke:none;stroke-width:0.76121199;stroke-linecap:round;stroke-linejoin:miter;stroke-miterlimit:4;stroke-dasharray:none;stroke-opacity:1;paint-order:stroke fill markers"
           d="m -155.19556,224.94329 c -0.34661,0.73778 -1.21724,0.93972 -1.76293,0.62123 -0.54569,-0.31851 -0.67302,-0.89739 -0.25281,-1.59953 0.42024,-0.70215 1.57042,-1.2507 1.98828,-1.01911 0.55314,0.30663 0.3756,1.25632 0.0274,1.99741 z"
           id="path1079-1-0"
           inkscape:connector-curvature="0"
           sodipodi:nodetypes="scsss" />
        <path
           style="fill:none;stroke:#941829;stroke-width:0.30000001;stroke-linecap:butt;stroke-linejoin:miter;stroke-miterlimit:4;stroke-dasharray:none;stroke-opacity:1"
           d="m -151.32973,227.3432 c 0.0685,0.33846 0.29817,0.81424 0.72329,0.75094 0.42515,-0.0632 0.69004,-0.87717 0.56404,-1.24077 -0.12611,-0.36354 -0.52551,-0.61865 -0.87764,-0.51259 -0.35209,0.10609 -0.47831,0.664 -0.40969,1.00242 z"
           id="path4796-1-9-0-4"
           inkscape:connector-curvature="0"
           sodipodi:nodetypes="zzzzz" />
        <path
           style="fill:none;stroke:#941829;stroke-width:0.30000001;stroke-linecap:butt;stroke-linejoin:miter;stroke-miterlimit:4;stroke-dasharray:none;stroke-opacity:1"
           d="m -152.60137,224.50047 c -0.0884,0.40573 -0.57214,0.84702 -0.98,0.76907 -0.44258,-0.0846 -0.77388,-0.72701 -0.68073,-1.16787 0.0901,-0.42649 0.63524,-0.86788 1.05927,-0.76684 0.42532,0.10134 0.69454,0.73844 0.60146,1.16564 z"
           id="path4796-1-2-0"
           inkscape:connector-curvature="0"
           sodipodi:nodetypes="sssss" />
        <path
           style="fill:#941829;fill-opacity:1;stroke:none;stroke-width:0.18347505px;stroke-linecap:butt;stroke-linejoin:miter;stroke-opacity:1"
           d="m -156.64113,228.25556 c 0,0 0.55598,-1.35026 -0.38658,-1.73229 -0.55098,-0.22331 -1.30442,0.13968 -1.30442,0.13968 0.14083,0.97956 0.91852,1.37308 1.691,1.59261 z"
           id="path4873-1-6"
           inkscape:connector-curvature="0"
           sodipodi:nodetypes="cscc" />
        <path
           style="opacity:1;fill:#941829;fill-opacity:1;fill-rule:nonzero;stroke:none;stroke-width:0.73453176;stroke-linecap:round;stroke-linejoin:miter;stroke-miterlimit:4;stroke-dasharray:none;stroke-opacity:1;paint-order:stroke fill markers"
           d="m -149.93689,222.97424 c 0.67488,0.42372 0.77523,1.27634 0.40823,1.7537 -0.75453,1.29254 -0.85979,0.25679 -1.49226,-0.23227 -0.63248,-0.48905 -1.692,-0.92994 -0.84822,-1.75141 0.43176,-0.42035 1.25431,-0.19562 1.93225,0.22997 z"
           id="path1079-9-9-6-7"
           inkscape:connector-curvature="0"
           sodipodi:nodetypes="ccsssc" />
      </g>
      <path
         sodipodi:nodetypes="cc"
         inkscape:connector-curvature="0"
         id="path5057-6"
         d="m 293.36519,27.383104 c -3.4357,6.07321 -10.74375,3.48742 -12.13279,9.25021"
         style="fill:none;stroke:#ae122a;stroke-width:0.60000002;stroke-linecap:butt;stroke-linejoin:miter;stroke-miterlimit:4;stroke-dasharray:none;stroke-opacity:1" />
      <path
         sodipodi:nodetypes="csc"
         inkscape:connector-curvature="0"
         id="path5059-2"
         d="m 293.73936,29.066904 c -0.0404,0.36385 2.6879,2.37903 4.32976,2.32524 9.90385,-0.32443 8.98027,5.4523 8.98027,5.4523"
         style="fill:none;stroke:#ae122a;stroke-width:0.60000002;stroke-linecap:butt;stroke-linejoin:miter;stroke-miterlimit:4;stroke-dasharray:none;stroke-opacity:1" />
      <path
         sodipodi:nodetypes="cc"
         inkscape:connector-curvature="0"
         id="path5061-8"
         d="m 298.44887,31.362784 c -2.30312,1.28837 -2.36902,3.22974 -2.3932,5.05303"
         style="fill:none;stroke:#ae122a;stroke-width:0.40000001;stroke-linecap:butt;stroke-linejoin:miter;stroke-miterlimit:4;stroke-dasharray:none;stroke-opacity:1" />
      <path
         sodipodi:nodetypes="cc"
         inkscape:connector-curvature="0"
         id="path5063-4"
         d="m 299.30483,31.345884 c 2.57086,0.73218 2.7673,3.649 3.07212,5.05617"
         style="fill:none;stroke:#ae122a;stroke-width:0.40000001;stroke-linecap:butt;stroke-linejoin:miter;stroke-miterlimit:4;stroke-dasharray:none;stroke-opacity:1" />
      <g
         transform="translate(453.95506,-227.66359)"
         id="g5462">
        <path
           style="opacity:1;fill:#ad1029;fill-opacity:1;fill-rule:nonzero;stroke:none;stroke-width:0.75;stroke-linecap:round;stroke-linejoin:miter;stroke-miterlimit:4;stroke-dasharray:none;stroke-opacity:1;paint-order:stroke fill markers"
           d="m -160.8421,220.11715 c -0.26875,2.60518 -2.02673,3.9593 -5.43341,3.9593 -2.89641,0 -5.71689,-1.99831 -5.71689,-3.9971 -1e-5,-1.99878 2.62655,-3.71306 5.509,-3.9971 4.21934,-0.41578 5.91624,1.36963 5.6413,4.0349 z"
           id="path1008-3"
           inkscape:connector-curvature="0"
           sodipodi:nodetypes="sscss" />
        <path
           style="opacity:1;fill:#941829;fill-opacity:1;fill-rule:nonzero;stroke:none;stroke-width:0.73191899;stroke-linecap:round;stroke-linejoin:miter;stroke-miterlimit:4;stroke-dasharray:none;stroke-opacity:1;paint-order:stroke fill markers"
           d="m -168.48313,219.93442 c -0.15698,0.68954 -1.00295,1.03484 -1.65493,0.87749 -0.65201,-0.15735 -0.94214,-0.61781 -0.69921,-1.29229 0.24292,-0.67448 1.28346,-1.36729 1.77936,-1.25712 0.65643,0.14588 0.73244,0.97927 0.57478,1.67192 z"
           id="path1079-9-96"
           inkscape:connector-curvature="0"
           sodipodi:nodetypes="scsss" />
        <path
           style="opacity:1;fill:#941829;fill-opacity:1;fill-rule:nonzero;stroke:none;stroke-width:0.73453176;stroke-linecap:round;stroke-linejoin:miter;stroke-miterlimit:4;stroke-dasharray:none;stroke-opacity:1;paint-order:stroke fill markers"
           d="m -164.37502,217.16864 c 0.79022,0.10271 1.23789,0.83526 1.10411,1.42234 -0.13376,0.58708 -0.63473,0.86908 -1.41374,0.68929 -0.77902,-0.17978 -1.63275,-1.06657 -1.54176,-1.51259 0.1205,-0.59042 1.0576,-0.70217 1.85139,-0.59904 z"
           id="path1079-9-9-1"
           inkscape:connector-curvature="0"
           sodipodi:nodetypes="scsss" />
        <path
           style="opacity:1;fill:#941829;fill-opacity:1;fill-rule:nonzero;stroke:none;stroke-width:0.69972163;stroke-linecap:round;stroke-linejoin:miter;stroke-miterlimit:4;stroke-dasharray:none;stroke-opacity:1;paint-order:stroke fill markers"
           d="m -168.83627,222.91421 c -0.0433,-0.60313 0.96601,-1.09654 1.55053,-0.94166 0.44247,0.11724 0.85573,0.78359 0.66674,1.20049 -0.15028,0.33153 -0.71449,0.3783 -1.07685,0.34383 -0.41467,-0.0394 -1.11056,-0.18718 -1.14042,-0.60266 z"
           id="path1100-1-4-1"
           inkscape:connector-curvature="0"
           sodipodi:nodetypes="sssss" />
        <path
           style="fill:#941829;fill-opacity:1;stroke:none;stroke-width:0.26458332px;stroke-linecap:butt;stroke-linejoin:miter;stroke-opacity:1"
           d="m -162.32469,219.54308 c -0.17509,0.91733 1.06393,2.19803 1.22529,1.77389 0.52854,-0.6086 0.88286,-2.42637 0.0414,-3.1332 -0.58931,0.18402 -1.15757,0.87223 -1.26663,1.35931 z"
           id="path4794-0-82"
           inkscape:connector-curvature="0"
           sodipodi:nodetypes="ccccc" />
        <path
           style="fill:#941829;fill-opacity:1;stroke:none;stroke-width:0.26458332px;stroke-linecap:butt;stroke-linejoin:miter;stroke-opacity:1"
           d="m -169.83815,217.11789 c 0,0 1.72969,0.63942 2.326,0.33065 0.47739,-0.2472 0.67014,-1.32899 0.67014,-1.32899 -1.1036,-0.0385 -2.15251,0.18465 -2.99614,0.99834 z"
           id="path4873-5"
           inkscape:connector-curvature="0"
           sodipodi:nodetypes="cscc" />
        <path
           style="fill:none;stroke:#941829;stroke-width:0.30000001;stroke-linecap:butt;stroke-linejoin:miter;stroke-miterlimit:4;stroke-dasharray:none;stroke-opacity:1"
           d="m -166.60625,219.45569 c -0.95908,-0.18922 -0.0556,1.43835 0.60465,1.88881 0.81631,0.55697 2.23241,0.062 1.58884,-0.67386 -0.65112,-0.74447 -1.06365,-0.99205 -2.19349,-1.21495 z"
           id="path4875-2"
           inkscape:connector-curvature="0"
           sodipodi:nodetypes="ssss" />
        <path
           style="opacity:1;fill:#941829;fill-opacity:1;fill-rule:nonzero;stroke:none;stroke-width:0.5247283;stroke-linecap:round;stroke-linejoin:miter;stroke-miterlimit:4;stroke-dasharray:none;stroke-opacity:1;paint-order:stroke fill markers"
           d="m -162.95468,222.21744 c 0.1561,0.37524 -0.40504,0.89673 -0.87126,0.93699 -0.32325,0.028 -0.72297,-0.25785 -0.7457,-0.53311 -0.022,-0.26552 0.32911,-0.51373 0.62775,-0.59451 0.32218,-0.0871 0.87657,-0.0801 0.98921,0.19063 z"
           id="path1100-1-0"
           inkscape:connector-curvature="0"
           sodipodi:nodetypes="sssss" />
      </g>
      <g
         transform="translate(454.64996,-225.95306)"
         id="g5446">
        <path
           style="opacity:1;fill:#ad1029;fill-opacity:1;fill-rule:nonzero;stroke:none;stroke-width:0.30776051;stroke-linecap:round;stroke-linejoin:miter;stroke-miterlimit:4;stroke-dasharray:none;stroke-opacity:1;paint-order:stroke fill markers"
           d="m -159.28867,225.9878 c -0.17654,1.34425 -1.20302,1.87097 -2.9783,1.8628 -1.3462,-0.006 -3.26482,-0.46804 -3.22694,-1.63535 0.0399,-1.22916 1.56801,-1.67349 2.89048,-1.81111 2.56308,-0.26675 3.49594,0.20401 3.31476,1.58366 z"
           id="path1008-2-8-9-1"
           inkscape:connector-curvature="0"
           sodipodi:nodetypes="sssss" />
        <path
           style="opacity:1;fill:#941829;fill-opacity:1;fill-rule:nonzero;stroke:none;stroke-width:0.34316498;stroke-linecap:round;stroke-linejoin:miter;stroke-miterlimit:4;stroke-dasharray:none;stroke-opacity:1;paint-order:stroke fill markers"
           d="m -161.04894,226.9231 c -0.0109,0.29578 -0.42191,0.55792 -0.71606,0.52506 -0.30085,-0.0336 -0.69369,-0.39897 -0.59579,-0.68542 0.11133,-0.32571 0.38824,-0.41037 0.64256,-0.39142 0.2895,0.0216 0.67995,0.26168 0.66929,0.55178 z"
           id="path1097-6-1"
           inkscape:connector-curvature="0"
           sodipodi:nodetypes="sssss" />
        <path
           style="opacity:1;fill:#941829;fill-opacity:1;fill-rule:nonzero;stroke:none;stroke-width:0.43811163;stroke-linecap:round;stroke-linejoin:miter;stroke-miterlimit:4;stroke-dasharray:none;stroke-opacity:1;paint-order:stroke fill markers"
           d="m -163.20727,225.80063 c 0.19283,0.30719 -0.11364,0.87453 -0.44951,0.99466 -0.23286,0.0834 -0.58705,-0.0999 -0.66073,-0.34187 -0.0711,-0.23332 0.13677,-0.51853 0.34055,-0.64462 0.21983,-0.13603 0.63057,-0.22976 0.76969,-0.008 z"
           id="path1100-3-4"
           inkscape:connector-curvature="0"
           sodipodi:nodetypes="sssss" />
        <path
           style="fill:none;stroke:#941829;stroke-width:0.30000001;stroke-linecap:butt;stroke-linejoin:miter;stroke-miterlimit:4;stroke-dasharray:none;stroke-opacity:1"
           d="m -160.39173,226.31821 c 0.28512,0.027 0.71321,-0.0315 0.74955,-0.35368 0.0364,-0.32218 -0.56129,-0.69832 -0.87831,-0.68942 -0.31701,0.009 -0.60311,0.24043 -0.59025,0.51942 0.0129,0.279 0.4339,0.49672 0.71901,0.52368 z"
           id="path4796-1-9-8"
           inkscape:connector-curvature="0"
           sodipodi:nodetypes="zzzzz" />
      </g>
      <path
         sodipodi:nodetypes="cc"
         inkscape:connector-curvature="0"
         id="path5063-6-8"
         d="m 305.66908,33.361684 c 4.10166,0.52429 4.91314,1.15501 4.6321,3.03465"
         style="fill:none;stroke:#ae122a;stroke-width:0.40000001;stroke-linecap:butt;stroke-linejoin:miter;stroke-miterlimit:4;stroke-dasharray:none;stroke-opacity:1" />
      <path
         sodipodi:nodetypes="cc"
         inkscape:connector-curvature="0"
         id="path5063-2-44"
         d="m 287.95556,31.514024 c 1.9695,0.946 2.23814,3.17021 2.06187,4.61747"
         style="fill:none;stroke:#ae122a;stroke-width:0.40000001;stroke-linecap:butt;stroke-linejoin:miter;stroke-miterlimit:4;stroke-dasharray:none;stroke-opacity:1" />
      <path
         sodipodi:nodetypes="cc"
         inkscape:connector-curvature="0"
         id="path5063-2-4-7"
         d="m 284.09655,33.119184 c -2.89158,-0.13644 -5.87528,0.58566 -6.22019,3.20893"
         style="fill:none;stroke:#ae122a;stroke-width:0.40000001;stroke-linecap:butt;stroke-linejoin:miter;stroke-miterlimit:4;stroke-dasharray:none;stroke-opacity:1" />
    </g>
  </g>
</svg>
