<?xml version="1.0" encoding="UTF-8" standalone="no"?>
<svg
   xmlns:dc="http://purl.org/dc/elements/1.1/"
   xmlns:cc="http://creativecommons.org/ns#"
   xmlns:rdf="http://www.w3.org/1999/02/22-rdf-syntax-ns#"
   xmlns:svg="http://www.w3.org/2000/svg"
   xmlns="http://www.w3.org/2000/svg"
   xmlns:sodipodi="http://sodipodi.sourceforge.net/DTD/sodipodi-0.dtd"
   xmlns:inkscape="http://www.inkscape.org/namespaces/inkscape"
   width="3000"
   height="1000"
   viewBox="0 0 793.74998 264.58332"
   version="1.1"
   id="svg2968"
   inkscape:version="1.0.1 (3bc2e813f5, 2020-09-07)"
   sodipodi:docname="default_pike.svg">
  <defs
     id="defs2962" />
  <sodipodi:namedview
     id="base"
     pagecolor="#ffffff"
     bordercolor="#666666"
     borderopacity="1.0"
     inkscape:pageopacity="0.0"
     inkscape:pageshadow="2"
     inkscape:zoom="0.24748738"
     inkscape:cx="1279.9637"
     inkscape:cy="-148.84021"
     inkscape:document-units="mm"
     inkscape:current-layer="layer1"
     showgrid="false"
     units="px"
     inkscape:window-width="1920"
     inkscape:window-height="1017"
     inkscape:window-x="1912"
     inkscape:window-y="-8"
     inkscape:window-maximized="1"
     inkscape:document-rotation="0" />
  <metadata
     id="metadata2965">
    <rdf:RDF>
      <cc:Work
         rdf:about="">
        <dc:format>image/svg+xml</dc:format>
        <dc:type
           rdf:resource="http://purl.org/dc/dcmitype/StillImage" />
        <dc:title></dc:title>
      </cc:Work>
    </rdf:RDF>
  </metadata>
  <g
     inkscape:label="Layer 1"
     inkscape:groupmode="layer"
     id="layer1"
     transform="translate(0,-32.41668)">
    <path
       id="path861"
       style="fill:#000000;fill-opacity:1;stroke:none;stroke-width:2.59004px;stroke-linecap:butt;stroke-linejoin:miter;stroke-opacity:1"
       d="m 789.99849,164.71085 c -22.89298,-5.26802 -54.45376,-9.70903 -82.4158,-11.77662 -5.39931,4.82421 -11.27946,7.74229 -19.62263,9.81386 v -12.42912 c -10.36177,7.89522 -21.56249,9.73969 -33.68572,10.5928 l -4.9018,-4.37569 -4.74508,4.37569 H 50.557484 l -5.068802,-4.70454 -30.41774,8.50362 30.41774,8.5036 5.068802,-4.70454 H 644.62746 l 4.74508,4.3757 4.9018,-4.3757 c 12.12323,0.85263 23.32395,2.69259 33.68572,10.58781 v -12.42408 c 8.34317,2.07156 14.22332,4.98457 19.62263,9.80873 27.96204,-2.06757 59.52282,-6.50352 82.4158,-11.77152 z" />
  </g>
</svg>
