<?xml version="1.0" encoding="UTF-8" standalone="no"?>
<!-- Created with Inkscape (http://www.inkscape.org/) -->

<svg
   xmlns:dc="http://purl.org/dc/elements/1.1/"
   xmlns:cc="http://creativecommons.org/ns#"
   xmlns:rdf="http://www.w3.org/1999/02/22-rdf-syntax-ns#"
   xmlns:svg="http://www.w3.org/2000/svg"
   xmlns="http://www.w3.org/2000/svg"
   xmlns:sodipodi="http://sodipodi.sourceforge.net/DTD/sodipodi-0.dtd"
   xmlns:inkscape="http://www.inkscape.org/namespaces/inkscape"
   width="73.420845"
   height="50.534039"
   viewBox="0 0 19.425932 13.370465"
   version="1.1"
   id="svg3032"
   sodipodi:docname="tower_icon_top.svg"
   inkscape:version="0.92.2 (5c3e80d, 2017-08-06)">
  <defs
     id="defs3026" />
  <sodipodi:namedview
     id="base"
     pagecolor="#161616"
     bordercolor="#666666"
     borderopacity="1.0"
     inkscape:pageopacity="0"
     inkscape:pageshadow="2"
     inkscape:zoom="11.2"
     inkscape:cx="24.74452"
     inkscape:cy="23.960557"
     inkscape:document-units="mm"
     inkscape:current-layer="g4381"
     showgrid="false"
     fit-margin-top="0"
     fit-margin-left="0"
     fit-margin-right="0"
     fit-margin-bottom="0"
     units="px"
     inkscape:window-width="1920"
     inkscape:window-height="1017"
     inkscape:window-x="1912"
     inkscape:window-y="-8"
     inkscape:window-maximized="1" />
  <metadata
     id="metadata3029">
    <rdf:RDF>
      <cc:Work
         rdf:about="">
        <dc:format>image/svg+xml</dc:format>
        <dc:type
           rdf:resource="http://purl.org/dc/dcmitype/StillImage" />
        <dc:title></dc:title>
      </cc:Work>
    </rdf:RDF>
  </metadata>
  <g
     inkscape:label="Layer 1"
     inkscape:groupmode="layer"
     id="layer1"
     transform="translate(-111.32391,-142.25769)">
    <g
       id="g5097"
       transform="translate(-127.00357,102.5915)">
      <g
         id="g4381"
         transform="matrix(1.1923326,0,0,1.1923326,-46.474582,-13.231449)">
        <path
           inkscape:connector-curvature="0"
           style="opacity:1;fill:#141414;fill-opacity:1;fill-rule:evenodd;stroke:#ffffff;stroke-width:0.58708447;stroke-linecap:round;stroke-linejoin:miter;stroke-miterlimit:2;stroke-dasharray:none;stroke-opacity:1;paint-order:stroke markers fill"
           d="m 245.27264,45.413245 v 1.632641 h 3.40137 v -1.632641 z m -1.81424,1.889218 v 2.44181 h 3.4018 v -2.44181 z m 3.69652,0 v 2.44181 h 3.40137 v -2.44181 z m -5.49906,2.680183 v 1.632642 h 3.40137 v -1.632642 z m 3.65102,0 v 1.632642 h 3.40137 v -1.632642 z m 3.65058,0 v 1.632642 h 3.4018 v -1.632642 z m -9.04779,1.932992 v 2.61474 h 3.3719 v -2.61474 z m 3.60767,0 v 2.61474 h 3.3719 v -2.61474 z m 3.60811,0 v 2.61474 h 3.3719 v -2.61474 z m 3.6081,0 v 2.61474 h 3.3719 v -2.61474 z"
           id="rect4129-8-7-6" />
        <path
           style="opacity:1;fill:#141414;fill-opacity:1;fill-rule:evenodd;stroke:none;stroke-width:2.64566925;stroke-linecap:round;stroke-linejoin:miter;stroke-miterlimit:2;stroke-dasharray:none;stroke-opacity:1;paint-order:stroke markers fill"
           d="M 28.892578 4.7246094 L 28.892578 12.082031 L 44.220703 12.082031 L 44.220703 4.7246094 L 28.892578 4.7246094 z M 20.716797 13.238281 L 20.716797 24.242188 L 36.046875 24.242188 L 36.046875 13.238281 L 20.716797 13.238281 z M 37.375 13.238281 L 37.375 24.242188 L 52.703125 24.242188 L 52.703125 13.238281 L 37.375 13.238281 z M 12.59375 25.316406 L 12.59375 32.673828 L 27.921875 32.673828 L 27.921875 25.316406 L 12.59375 25.316406 z M 29.046875 25.316406 L 29.046875 32.673828 L 44.375 32.673828 L 44.375 25.316406 L 29.046875 25.316406 z M 45.498047 25.316406 L 45.498047 32.673828 L 60.828125 32.673828 L 60.828125 25.316406 L 45.498047 25.316406 z M 4.7246094 34.027344 L 4.7246094 45.810547 L 19.919922 45.810547 L 19.919922 34.027344 L 4.7246094 34.027344 z M 20.982422 34.027344 L 20.982422 45.810547 L 36.177734 45.810547 L 36.177734 34.027344 L 20.982422 34.027344 z M 37.242188 34.027344 L 37.242188 45.810547 L 52.4375 45.810547 L 52.4375 34.027344 L 37.242188 34.027344 z M 53.501953 34.027344 L 53.501953 45.810547 L 68.697266 45.810547 L 68.697266 34.027344 L 53.501953 34.027344 z "
           transform="matrix(0.22190397,0,0,0.22190397,238.86126,44.364835)"
           id="rect4129-8-7" />
      </g>
    </g>
  </g>
</svg>
