<?xml version="1.0" encoding="UTF-8" standalone="no"?>
<!-- Created with Inkscape (http://www.inkscape.org/) -->

<svg
   xmlns:dc="http://purl.org/dc/elements/1.1/"
   xmlns:cc="http://creativecommons.org/ns#"
   xmlns:rdf="http://www.w3.org/1999/02/22-rdf-syntax-ns#"
   xmlns:svg="http://www.w3.org/2000/svg"
   xmlns="http://www.w3.org/2000/svg"
   xmlns:sodipodi="http://sodipodi.sourceforge.net/DTD/sodipodi-0.dtd"
   xmlns:inkscape="http://www.inkscape.org/namespaces/inkscape"
   width="256.09415"
   height="28.85989"
   viewBox="0 0 67.758244 7.6358461"
   version="1.1"
   id="svg3032"
   sodipodi:docname="TowerControlClipFrame.svg"
   inkscape:version="0.92.2 (5c3e80d, 2017-08-06)">
  <defs
     id="defs3026" />
  <sodipodi:namedview
     id="base"
     pagecolor="#161616"
     bordercolor="#666666"
     borderopacity="1.0"
     inkscape:pageopacity="0"
     inkscape:pageshadow="2"
     inkscape:zoom="5.6"
     inkscape:cx="98.605599"
     inkscape:cy="36.22867"
     inkscape:document-units="mm"
     inkscape:current-layer="g5097"
     showgrid="false"
     fit-margin-top="0"
     fit-margin-left="0"
     fit-margin-right="0"
     fit-margin-bottom="0"
     units="px"
     inkscape:window-width="1920"
     inkscape:window-height="1017"
     inkscape:window-x="-8"
     inkscape:window-y="-8"
     inkscape:window-maximized="1" />
  <metadata
     id="metadata3029">
    <rdf:RDF>
      <cc:Work
         rdf:about="">
        <dc:format>image/svg+xml</dc:format>
        <dc:type
           rdf:resource="http://purl.org/dc/dcmitype/StillImage" />
        <dc:title />
      </cc:Work>
    </rdf:RDF>
  </metadata>
  <g
     inkscape:label="Layer 1"
     inkscape:groupmode="layer"
     id="layer1"
     transform="translate(-87.89545,-148.12245)">
    <g
       id="g5097"
       transform="translate(-127.00357,102.5915)">
      <rect
         ry="0"
         rx="0"
         y="46.307869"
         x="229.68459"
         height="1.4457228"
         width="37.289677"
         id="rect5089"
         style="opacity:1;fill:#000000;fill-opacity:0.39215686;fill-rule:evenodd;stroke:none;stroke-width:1.27056408;stroke-linecap:round;stroke-linejoin:miter;stroke-miterlimit:4;stroke-dasharray:none;stroke-opacity:1;paint-order:normal" />
      <path
         id="path5005-2"
         d="m 224.75354,45.530954 -4.02948,2.575816 h -2.64452 l -3.18052,1.242107 3.18052,1.242107 h 2.64452 l 4.02948,2.575816 9.05462,-0.06271 c 0.0861,0.0071 0.17224,0.01362 0.26009,0.01362 h 29.42069 c 0.0865,0 0.17144,-0.0068 0.25627,-0.01362 0.001,-1.01e-4 0.002,1.03e-4 0.004,0 l 9.05355,0.06271 4.03001,-2.575816 h 2.64398 l 3.18051,-1.242107 -3.18051,-1.242107 h -2.64398 l -4.03001,-2.575816 -8.9265,0.07634 c -5.6e-4,-6.8e-5 -10e-4,6.4e-5 -0.002,0 -0.12671,-0.01552 -0.25469,-0.02616 -0.38551,-0.02616 H 234.0681 c -0.13082,0 -0.25879,0.01067 -0.3855,0.02616 z m 9.31471,1.105242 h 29.42069 c 1.17823,0 2.11016,0.931937 2.11016,2.110166 v 1.205574 c 0,1.178226 -0.93193,2.110162 -2.11016,2.110162 h -29.42069 c -1.17823,0 -2.11017,-0.931936 -2.11017,-2.110162 v -1.205572 c 0,-1.178229 0.93194,-2.110166 2.11017,-2.110166 z"
         style="opacity:1;fill:#ffffff;fill-opacity:1;fill-rule:evenodd;stroke:none;stroke-width:1.30517209;stroke-linecap:round;stroke-linejoin:miter;stroke-miterlimit:4;stroke-dasharray:none;stroke-opacity:1;paint-order:normal"
         inkscape:connector-curvature="0"
         sodipodi:nodetypes="ccccccccsscccccccccccsscccssssssscc" />
    </g>
  </g>
</svg>
