<?xml version="1.0" encoding="UTF-8" standalone="no"?>
<!-- Created with Inkscape (http://www.inkscape.org/) -->

<svg
   xmlns:dc="http://purl.org/dc/elements/1.1/"
   xmlns:cc="http://creativecommons.org/ns#"
   xmlns:rdf="http://www.w3.org/1999/02/22-rdf-syntax-ns#"
   xmlns:svg="http://www.w3.org/2000/svg"
   xmlns="http://www.w3.org/2000/svg"
   xmlns:sodipodi="http://sodipodi.sourceforge.net/DTD/sodipodi-0.dtd"
   xmlns:inkscape="http://www.inkscape.org/namespaces/inkscape"
   width="1024"
   height="1024"
   viewBox="0 0 270.93332 270.93334"
   version="1.1"
   id="svg1013"
   inkscape:version="0.92.2 (5c3e80d, 2017-08-06)"
   sodipodi:docname="vectorial_drum_pressure_chaka.svg">
  <defs
     id="defs1007" />
  <sodipodi:namedview
     id="base"
     pagecolor="#ffffff"
     bordercolor="#666666"
     borderopacity="1.0"
     inkscape:pageopacity="0.0"
     inkscape:pageshadow="2"
     inkscape:zoom="0.7"
     inkscape:cx="315.51114"
     inkscape:cy="400.75238"
     inkscape:document-units="mm"
     inkscape:current-layer="g51764"
     showgrid="false"
     units="px"
     fit-margin-top="0"
     fit-margin-left="0"
     fit-margin-right="0"
     fit-margin-bottom="0"
     inkscape:window-width="1920"
     inkscape:window-height="1017"
     inkscape:window-x="-8"
     inkscape:window-y="-8"
     inkscape:window-maximized="1" />
  <metadata
     id="metadata1010">
    <rdf:RDF>
      <cc:Work
         rdf:about="">
        <dc:format>image/svg+xml</dc:format>
        <dc:type
           rdf:resource="http://purl.org/dc/dcmitype/StillImage" />
        <dc:title />
      </cc:Work>
    </rdf:RDF>
  </metadata>
  <g
     inkscape:label="Layer 1"
     inkscape:groupmode="layer"
     id="layer1"
     transform="translate(-35.308504,31.916785)">
    <g
       transform="matrix(5.1297872,0,0,5.1297872,-704.42295,-469.75257)"
       id="g51764">
      <path
         style="color:#000000;font-style:normal;font-variant:normal;font-weight:normal;font-stretch:normal;font-size:medium;line-height:normal;font-family:sans-serif;font-variant-ligatures:normal;font-variant-position:normal;font-variant-caps:normal;font-variant-numeric:normal;font-variant-alternates:normal;font-feature-settings:normal;text-indent:0;text-align:start;text-decoration:none;text-decoration-line:none;text-decoration-style:solid;text-decoration-color:#000000;letter-spacing:normal;word-spacing:normal;text-transform:none;writing-mode:lr-tb;direction:ltr;text-orientation:mixed;dominant-baseline:auto;baseline-shift:baseline;text-anchor:start;white-space:normal;shape-padding:0;clip-rule:nonzero;display:inline;overflow:visible;visibility:visible;opacity:1;isolation:auto;mix-blend-mode:normal;color-interpolation:sRGB;color-interpolation-filters:linearRGB;solid-color:#000000;solid-opacity:1;vector-effect:none;fill:#000000;fill-opacity:1;fill-rule:nonzero;stroke:none;stroke-width:102.59574127;stroke-linecap:butt;stroke-linejoin:miter;stroke-miterlimit:4;stroke-dasharray:none;stroke-dashoffset:0;stroke-opacity:1;paint-order:stroke fill markers;color-rendering:auto;image-rendering:auto;shape-rendering:auto;text-rendering:auto;enable-background:accumulate"
         d="M 949.05078 189.69922 L 949.04102 189.73047 L 949.03516 189.71484 L 900.30078 336.375 L 872.01758 421.50586 L 853.91992 368.70703 L 717.18945 449.50586 L 673.95312 314.00781 L 596.59375 314.00781 L 616.56836 253.25391 L 503.91406 253.25391 L 460.5918 253.25391 L 347.93555 253.25391 L 336.33789 288.5293 L 320.17773 337.67773 L 280.38672 362.89258 L -113.04688 612.20898 L 334.75195 834.28516 L 353.39258 711.49219 L 401.23828 711.49219 L 365.42578 818.27539 L 520.49219 818.27539 L 555.09766 804.81055 L 588.46094 818.27539 L 743.41797 818.27539 L 729.61328 775.96289 L 821.35352 775.96289 L 815.2207 756.74219 L 915.67383 756.74219 L 915.67969 756.72852 L 915.68164 756.72852 L 941.83008 683.54297 L 957.55273 688.53711 L 971.20117 726.52734 L 982.04688 756.72852 L 982.05078 756.72852 L 982.05664 756.74219 L 1137.0469 756.74219 L 1137.043 756.72852 L 1137.0469 756.72852 L 949.05078 189.69922 z M 385.06836 304.55273 L 433.04688 304.55273 L 359.26367 528.95508 L 417.20117 549.45312 L 497.72461 304.55273 L 545.70312 304.55273 L 428.77344 660.18164 L 380.79492 660.18164 L 401.45508 597.34375 L 377.28711 588.79492 L 343.51562 576.85156 L 316.11719 660.18164 L 268.13867 660.18164 L 385.06836 304.55273 z M 948.99805 352.54492 L 1065.9961 705.42969 L 1018.1309 705.42969 L 997.26562 647.32617 L 910.17773 619.66602 L 879.53516 705.42969 L 831.74609 705.42969 L 948.99805 352.54492 z M 586.28516 365.30664 L 636.47656 365.30664 L 687.88281 526.41016 L 825.81055 444.90234 L 842.40039 493.29883 L 714.99414 568.88477 L 826.45898 628.14453 L 813.7832 679.54688 L 720.74219 629.39258 L 751.14062 724.66406 L 703.23828 724.66406 L 586.28516 365.30664 z M 307.8457 406.22266 L 292.89844 474.7793 L 92.699219 601.71289 L 302.88281 702.43945 L 294.58398 757.10547 L -8.5957031 606.75 L 307.8457 406.22266 z M 556.34961 410.29297 L 672.73242 766.9707 L 624.86719 766.9707 L 603.06641 704.54297 L 517.01953 677.21289 L 484.50781 766.9707 L 436.71875 766.9707 L 556.34961 410.29297 z M 948.65625 511.9668 L 927.14844 572.16602 L 975.82422 587.61914 L 948.65625 511.9668 z M 555.9707 569.67773 L 534.20117 629.78125 L 582.29102 645.04883 L 555.9707 569.67773 z "
         transform="matrix(0.05157784,0,0,0.05157784,144.20315,85.351647)"
         id="path51308-6-3" />
      <path
         inkscape:connector-curvature="0"
         style="color:#000000;font-style:normal;font-variant:normal;font-weight:normal;font-stretch:normal;font-size:medium;line-height:normal;font-family:sans-serif;font-variant-ligatures:normal;font-variant-position:normal;font-variant-caps:normal;font-variant-numeric:normal;font-variant-alternates:normal;font-feature-settings:normal;text-indent:0;text-align:start;text-decoration:none;text-decoration-line:none;text-decoration-style:solid;text-decoration-color:#000000;letter-spacing:normal;word-spacing:normal;text-transform:none;writing-mode:lr-tb;direction:ltr;text-orientation:mixed;dominant-baseline:auto;baseline-shift:baseline;text-anchor:start;white-space:normal;shape-padding:0;clip-rule:nonzero;display:inline;overflow:visible;visibility:visible;opacity:1;isolation:auto;mix-blend-mode:normal;color-interpolation:sRGB;color-interpolation-filters:linearRGB;solid-color:#000000;solid-opacity:1;vector-effect:none;fill:#5cb983;fill-opacity:1;fill-rule:nonzero;stroke:none;stroke-width:5.29166651;stroke-linecap:butt;stroke-linejoin:miter;stroke-miterlimit:4;stroke-dasharray:none;stroke-dashoffset:0;stroke-opacity:1;paint-order:stroke fill markers;color-rendering:auto;image-rendering:auto;shape-rendering:auto;text-rendering:auto;enable-background:accumulate"
         d="m 164.06414,101.05982 -6.03098,18.34257 h 2.47463 l 1.41315,-4.29799 1.74186,0.61601 1.24653,0.44093 -1.06561,3.24105 h 2.47463 l 6.03098,-18.34257 h -2.47463 l -4.15322,12.63143 -2.98829,-1.05724 3.80558,-11.57419 z m 29.08627,2.47533 -6.0476,18.20103 h 2.46486 l 1.58047,-4.4235 4.49181,1.42665 1.07618,2.99685 h 2.46879 z m -18.70795,0.65822 6.03219,18.53488 h 2.4707 l -1.56788,-4.9139 4.79885,2.58685 0.65379,-2.65122 -5.74911,-3.05649 6.57133,-3.89855 -0.85566,-2.49619 -7.11402,4.204 -2.65142,-8.30938 z m -14.3613,2.11036 -16.32136,10.34277 15.63735,7.75501 0.42803,-2.81956 -10.84081,-5.19525 10.32584,-6.54696 z m 12.81729,0.20994 -6.1703,18.39667 h 2.46486 l 1.67688,-4.62952 4.43812,1.40963 1.12443,3.21989 h 2.46879 z m 20.23433,5.24412 1.40127,3.90198 -2.51059,-0.79704 z m -20.25387,2.9766 1.35755,3.88748 -2.48037,-0.78747 z"
         id="path51385" />
    </g>
  </g>
</svg>
