<?xml version="1.0" encoding="UTF-8" standalone="no"?>
<!-- Created with Inkscape (http://www.inkscape.org/) -->

<svg
   xmlns:dc="http://purl.org/dc/elements/1.1/"
   xmlns:cc="http://creativecommons.org/ns#"
   xmlns:rdf="http://www.w3.org/1999/02/22-rdf-syntax-ns#"
   xmlns:svg="http://www.w3.org/2000/svg"
   xmlns="http://www.w3.org/2000/svg"
   xmlns:sodipodi="http://sodipodi.sourceforge.net/DTD/sodipodi-0.dtd"
   xmlns:inkscape="http://www.inkscape.org/namespaces/inkscape"
   width="1024"
   height="1024"
   viewBox="0 0 270.93332 270.93334"
   version="1.1"
   id="svg1013"
   inkscape:version="0.92.2 (5c3e80d, 2017-08-06)"
   sodipodi:docname="vectorial_drum_pressure_pata.svg">
  <defs
     id="defs1007" />
  <sodipodi:namedview
     id="base"
     pagecolor="#ffffff"
     bordercolor="#666666"
     borderopacity="1.0"
     inkscape:pageopacity="0.0"
     inkscape:pageshadow="2"
     inkscape:zoom="0.7"
     inkscape:cx="191.72883"
     inkscape:cy="498.4548"
     inkscape:document-units="mm"
     inkscape:current-layer="g51801"
     showgrid="false"
     units="px"
     fit-margin-top="0"
     fit-margin-left="0"
     fit-margin-right="0"
     fit-margin-bottom="0"
     inkscape:window-width="1920"
     inkscape:window-height="1017"
     inkscape:window-x="-8"
     inkscape:window-y="-8"
     inkscape:window-maximized="1" />
  <metadata
     id="metadata1010">
    <rdf:RDF>
      <cc:Work
         rdf:about="">
        <dc:format>image/svg+xml</dc:format>
        <dc:type
           rdf:resource="http://purl.org/dc/dcmitype/StillImage" />
        <dc:title />
      </cc:Work>
    </rdf:RDF>
  </metadata>
  <g
     inkscape:label="Layer 1"
     inkscape:groupmode="layer"
     id="layer1"
     transform="translate(-35.308504,31.916785)">
    <g
       transform="matrix(5.1297872,0,0,5.1297872,15.053065,-392.8623)"
       id="g51801">
      <path
         style="color:#000000;font-style:normal;font-variant:normal;font-weight:normal;font-stretch:normal;font-size:medium;line-height:normal;font-family:sans-serif;font-variant-ligatures:normal;font-variant-position:normal;font-variant-caps:normal;font-variant-numeric:normal;font-variant-alternates:normal;font-feature-settings:normal;text-indent:0;text-align:start;text-decoration:none;text-decoration-line:none;text-decoration-style:solid;text-decoration-color:#000000;letter-spacing:normal;word-spacing:normal;text-transform:none;writing-mode:lr-tb;direction:ltr;text-orientation:mixed;dominant-baseline:auto;baseline-shift:baseline;text-anchor:start;white-space:normal;shape-padding:0;clip-rule:nonzero;display:inline;overflow:visible;visibility:visible;opacity:1;isolation:auto;mix-blend-mode:normal;color-interpolation:sRGB;color-interpolation-filters:linearRGB;solid-color:#000000;solid-opacity:1;vector-effect:none;fill:#000000;fill-opacity:1;fill-rule:nonzero;stroke:none;stroke-width:102.59574127;stroke-linecap:butt;stroke-linejoin:miter;stroke-miterlimit:4;stroke-dasharray:none;stroke-dashoffset:0;stroke-opacity:1;paint-order:stroke fill markers;color-rendering:auto;image-rendering:auto;shape-rendering:auto;text-rendering:auto;enable-background:accumulate"
         d="M 796.10156 194.00781 L 747.13867 342.06836 L 737.70117 370.59766 L 618.43945 329.89844 L 510.52344 293.06836 L 508.12695 292.25195 L 382.36133 249.33203 L 403.98242 339.87305 L 408.41211 358.37305 L 39.734375 327.60352 L 91.576172 413.52539 L 312.94922 780.72656 L 330.35938 770.23828 L 310.71289 829.99219 L 465.74805 829.99219 L 492.56836 753.40625 L 505.95117 757.65625 L 529.74023 825.33398 L 684.73633 825.33398 L 664.41016 763.23242 L 762.85352 763.23242 L 789.07227 689.23633 L 802.85156 693.61133 L 829.31055 769.13867 L 984.26562 769.13867 L 922.57031 580.56641 L 920.83789 575.26953 L 919.11328 569.99609 L 796.10156 194.00781 z M 453.88672 327.94531 L 684.74023 406.73633 L 673.14648 450.24219 L 595.78125 424.9668 L 679.16602 677.80273 L 631.56641 677.80273 L 536.54688 405.61523 L 467.02734 382.90234 L 453.88672 327.94531 z M 795.83594 358.16406 L 913.51367 717.82812 L 865.6875 717.82812 L 842.7832 652.47461 L 757.30469 625.33594 L 726.62305 711.92578 L 678.83398 711.92578 L 795.83594 358.16406 z M 135.50195 387.05664 L 470.78125 415.04102 L 309.76758 578.47656 L 373.57617 684.31641 L 330.40625 710.33203 L 135.50195 387.05664 z M 498.80273 422.16016 L 613.96875 774.03906 L 566.10547 774.03906 L 545.89258 716.51562 L 460.65039 689.45312 L 429.37695 778.70703 L 381.58789 778.70703 L 498.80273 422.16016 z M 229.60352 445.48633 L 282.91992 533.94336 L 359.33789 456.35352 L 229.60352 445.48633 z M 795.49609 517.54688 L 774.15234 577.78516 L 821.92383 592.95312 L 795.49609 517.54688 z M 498.46289 581.54297 L 477.33203 641.84961 L 524.96875 656.97266 L 498.46289 581.54297 z "
         transform="matrix(0.05157784,0,0,0.05157784,3.9485924,70.362668)"
         id="path51237-1" />
      <path
         inkscape:connector-curvature="0"
         style="color:#000000;font-style:normal;font-variant:normal;font-weight:normal;font-stretch:normal;font-size:medium;line-height:normal;font-family:sans-serif;font-variant-ligatures:normal;font-variant-position:normal;font-variant-caps:normal;font-variant-numeric:normal;font-variant-alternates:normal;font-feature-settings:normal;text-indent:0;text-align:start;text-decoration:none;text-decoration-line:none;text-decoration-style:solid;text-decoration-color:#000000;letter-spacing:normal;word-spacing:normal;text-transform:none;writing-mode:lr-tb;direction:ltr;text-orientation:mixed;dominant-baseline:auto;baseline-shift:baseline;text-anchor:start;white-space:normal;shape-padding:0;clip-rule:nonzero;display:inline;overflow:visible;visibility:visible;opacity:1;isolation:auto;mix-blend-mode:normal;color-interpolation:sRGB;color-interpolation-filters:linearRGB;solid-color:#000000;solid-opacity:1;vector-effect:none;fill:#df000f;fill-opacity:1;fill-rule:nonzero;stroke:none;stroke-width:5.29166651;stroke-linecap:butt;stroke-linejoin:miter;stroke-miterlimit:4;stroke-dasharray:none;stroke-dashoffset:0;stroke-opacity:1;paint-order:stroke fill markers;color-rendering:auto;image-rendering:auto;shape-rendering:auto;text-rendering:auto;enable-background:accumulate"
         d="m 27.359089,87.277379 0.677764,2.834565 3.585668,1.171482 4.900902,14.038844 h 2.455085 l -4.300806,-13.040732 3.990331,1.30365 0.59798,-2.243938 z m 17.637001,1.558618 -6.034708,18.246263 h 2.464857 l 1.582492,-4.46612 4.408797,1.39976 1.181354,3.37079 h 2.466771 z m -34.0586,1.490217 10.052743,16.673846 2.226611,-1.34183 -3.291109,-5.45899 8.304737,-8.429652 z m 18.738269,1.810564 -6.045688,18.389912 h 2.464857 l 1.613016,-4.60352 4.396608,1.39583 1.042537,2.96693 h 2.468685 z m -13.884713,1.203113 6.691418,0.560506 -3.941473,4.001916 z m 29.187515,3.716727 1.363086,3.889292 -2.46395,-0.78233 z m -15.32033,3.300782 1.367115,3.8905 -2.456999,-0.78002 z"
         id="path51237-1-1" />
    </g>
  </g>
</svg>
