<?xml version="1.0" encoding="UTF-8" standalone="no"?>
<!-- Created with Inkscape (http://www.inkscape.org/) -->

<svg
   xmlns:dc="http://purl.org/dc/elements/1.1/"
   xmlns:cc="http://creativecommons.org/ns#"
   xmlns:rdf="http://www.w3.org/1999/02/22-rdf-syntax-ns#"
   xmlns:svg="http://www.w3.org/2000/svg"
   xmlns="http://www.w3.org/2000/svg"
   xmlns:sodipodi="http://sodipodi.sourceforge.net/DTD/sodipodi-0.dtd"
   xmlns:inkscape="http://www.inkscape.org/namespaces/inkscape"
   width="1024"
   height="1024"
   viewBox="0 0 270.93332 270.93334"
   version="1.1"
   id="svg1013"
   inkscape:version="0.92.2 (5c3e80d, 2017-08-06)"
   sodipodi:docname="vectorial_drum_pressure_don.svg">
  <defs
     id="defs1007" />
  <sodipodi:namedview
     id="base"
     pagecolor="#ffffff"
     bordercolor="#666666"
     borderopacity="1.0"
     inkscape:pageopacity="0.0"
     inkscape:pageshadow="2"
     inkscape:zoom="0.98994949"
     inkscape:cx="341.40613"
     inkscape:cy="551.23687"
     inkscape:document-units="mm"
     inkscape:current-layer="layer1"
     showgrid="false"
     units="px"
     fit-margin-top="0"
     fit-margin-left="0"
     fit-margin-right="0"
     fit-margin-bottom="0"
     inkscape:window-width="1920"
     inkscape:window-height="1017"
     inkscape:window-x="-8"
     inkscape:window-y="-8"
     inkscape:window-maximized="1" />
  <metadata
     id="metadata1010">
    <rdf:RDF>
      <cc:Work
         rdf:about="">
        <dc:format>image/svg+xml</dc:format>
        <dc:type
           rdf:resource="http://purl.org/dc/dcmitype/StillImage" />
        <dc:title />
      </cc:Work>
    </rdf:RDF>
  </metadata>
  <g
     inkscape:label="Layer 1"
     inkscape:groupmode="layer"
     id="layer1"
     transform="translate(-35.308504,31.916785)">
    <path
       style="color:#000000;font-style:normal;font-variant:normal;font-weight:normal;font-stretch:normal;font-size:medium;line-height:normal;font-family:sans-serif;font-variant-ligatures:normal;font-variant-position:normal;font-variant-caps:normal;font-variant-numeric:normal;font-variant-alternates:normal;font-feature-settings:normal;text-indent:0;text-align:start;text-decoration:none;text-decoration-line:none;text-decoration-style:solid;text-decoration-color:#000000;letter-spacing:normal;word-spacing:normal;text-transform:none;writing-mode:lr-tb;direction:ltr;text-orientation:mixed;dominant-baseline:auto;baseline-shift:baseline;text-anchor:start;white-space:normal;shape-padding:0;clip-rule:nonzero;display:inline;overflow:visible;visibility:visible;opacity:1;isolation:auto;mix-blend-mode:normal;color-interpolation:sRGB;color-interpolation-filters:linearRGB;solid-color:#000000;solid-opacity:1;vector-effect:none;fill:#000000;fill-opacity:1;fill-rule:nonzero;stroke:none;stroke-width:102.59574127;stroke-linecap:butt;stroke-linejoin:miter;stroke-miterlimit:4;stroke-dasharray:none;stroke-dashoffset:0;stroke-opacity:1;paint-order:stroke fill markers;color-rendering:auto;image-rendering:auto;shape-rendering:auto;text-rendering:auto;enable-background:accumulate"
       d="M 736.72461 208.85352 L 734.44922 361.69922 C 693.17874 321.82457 637.1634 297.13086 575.74219 297.13086 C 528.84717 297.13086 485.08643 311.51329 448.63867 336.05664 L 7.6035156 226.6875 L 51.320312 323.14258 L 72.789062 370.51172 L 241.76367 743.54492 L 352.83984 577.79102 C 376.52149 678.87338 467.81842 755.00195 575.74219 755.00195 C 634.71586 755.00195 688.74129 732.27424 729.48438 695.16797 L 727.91797 800.44141 L 881.42969 746.94336 L 882.97461 649.03516 L 1011.0781 815.14648 L 1016.3965 225.07227 L 948.09961 248.03906 L 863.10352 276.62305 L 862.19922 371.50977 L 736.72461 208.85352 z M 964.45117 296.66211 L 961.11914 666.36523 L 833.99805 501.5293 L 830.70312 710.29688 L 780.30273 727.86133 L 785.83008 356.49609 L 912.08203 520.16016 L 914.05078 313.61133 L 964.45117 296.66211 z M 98.042969 301.9668 L 422.07617 382.32227 L 250.45898 638.41992 L 119.51367 349.33984 L 98.042969 301.9668 z M 575.74219 348.42969 C 673.49234 348.42969 753.37891 428.31631 753.37891 526.06641 C 753.37891 623.81655 673.49234 703.70312 575.74219 703.70312 C 477.99227 703.70312 398.10547 623.81655 398.10547 526.06641 C 398.10547 428.31631 477.99227 348.42969 575.74219 348.42969 z M 186.91797 375.96094 L 259.01758 535.1543 L 340.20508 413.94141 L 186.91797 375.96094 z M 575.74219 408.22266 C 510.29627 408.22266 457.89844 460.62043 457.89844 526.06641 C 457.89844 591.5124 510.29627 643.94922 575.74219 643.94922 C 641.18837 643.94922 693.62305 591.5124 693.62305 526.06641 C 693.62305 460.62043 641.18837 408.22266 575.74219 408.22266 z M 575.74609 455.13477 A 70.941184 70.941184 0 0 1 646.68555 526.07617 A 70.941184 70.941184 0 0 1 575.74609 597.01758 A 70.941184 70.941184 0 0 1 504.80469 526.07617 A 70.941184 70.941184 0 0 1 575.74609 455.13477 z "
       transform="matrix(0.26458333,0,0,0.26458333,35.308504,-31.916785)"
       id="path51239-8" />
    <path
       inkscape:connector-curvature="0"
       id="path51239-8-5"
       d="m 290.48622,46.575065 -13.3351,4.484481 -0.5209,54.649384 -33.40416,-43.302791 -1.46245,98.257071 13.3351,-4.64726 0.87179,-55.23644 33.63412,43.61286 z M 61.249039,47.978598 66.929829,60.512714 101.57578,136.9985 146.98283,69.239317 Z M 187.6403,60.271903 c -25.863,0 -46.99972,21.136674 -46.99972,46.999717 0,25.86306 21.13672,46.99974 46.99972,46.99974 25.86306,0 46.99972,-21.13668 46.99972,-46.99974 0,-25.863043 -21.13666,-46.999717 -46.99972,-46.999717 z M 84.763883,67.556214 125.3211,77.605213 103.84024,109.67613 Z M 187.6403,76.092127 c 17.31597,0 31.18931,13.863579 31.18931,31.179493 0,17.31592 -13.87334,31.18985 -31.18931,31.18985 -17.3159,0 -31.17949,-13.87393 -31.17949,-31.18985 0,-17.315914 13.86359,-31.179493 31.17949,-31.179493 z m 0.001,12.412163 a 18.769855,18.769855 0 0 0 -18.76988,18.76991 18.769855,18.769855 0 0 0 18.76991,18.76993 18.769855,18.769855 0 0 0 18.7694,-18.76993 18.769855,18.769855 0 0 0 -18.7694,-18.76991 z"
       style="color:#000000;font-style:normal;font-variant:normal;font-weight:normal;font-stretch:normal;font-size:medium;line-height:normal;font-family:sans-serif;font-variant-ligatures:normal;font-variant-position:normal;font-variant-caps:normal;font-variant-numeric:normal;font-variant-alternates:normal;font-feature-settings:normal;text-indent:0;text-align:start;text-decoration:none;text-decoration-line:none;text-decoration-style:solid;text-decoration-color:#000000;letter-spacing:normal;word-spacing:normal;text-transform:none;writing-mode:lr-tb;direction:ltr;text-orientation:mixed;dominant-baseline:auto;baseline-shift:baseline;text-anchor:start;white-space:normal;shape-padding:0;clip-rule:nonzero;display:inline;overflow:visible;visibility:visible;opacity:1;isolation:auto;mix-blend-mode:normal;color-interpolation:sRGB;color-interpolation-filters:linearRGB;solid-color:#000000;solid-opacity:1;vector-effect:none;fill:#fbc601;fill-opacity:0.99607843;fill-rule:nonzero;stroke:none;stroke-width:27.14512253;stroke-linecap:butt;stroke-linejoin:miter;stroke-miterlimit:4;stroke-dasharray:none;stroke-dashoffset:0;stroke-opacity:1;paint-order:stroke fill markers;color-rendering:auto;image-rendering:auto;shape-rendering:auto;text-rendering:auto;enable-background:accumulate" />
  </g>
</svg>
