<?xml version="1.0" encoding="UTF-8" standalone="no"?>
<!-- Created with Inkscape (http://www.inkscape.org/) -->

<svg
   xmlns:dc="http://purl.org/dc/elements/1.1/"
   xmlns:cc="http://creativecommons.org/ns#"
   xmlns:rdf="http://www.w3.org/1999/02/22-rdf-syntax-ns#"
   xmlns:svg="http://www.w3.org/2000/svg"
   xmlns="http://www.w3.org/2000/svg"
   xmlns:sodipodi="http://sodipodi.sourceforge.net/DTD/sodipodi-0.dtd"
   xmlns:inkscape="http://www.inkscape.org/namespaces/inkscape"
   width="1024"
   height="1024"
   viewBox="0 0 270.93333 270.93334"
   version="1.1"
   id="svg8501"
   inkscape:version="0.92.2 (5c3e80d, 2017-08-06)"
   sodipodi:docname="fear_spear_smoke.svg">
  <defs
     id="defs8495" />
  <sodipodi:namedview
     id="base"
     pagecolor="#ffffff"
     bordercolor="#666666"
     borderopacity="1.0"
     inkscape:pageopacity="0.0"
     inkscape:pageshadow="2"
     inkscape:zoom="0.24748737"
     inkscape:cx="352.56247"
     inkscape:cy="639.31767"
     inkscape:document-units="mm"
     inkscape:current-layer="layer1"
     showgrid="false"
     units="px"
     inkscape:pagecheckerboard="true"
     inkscape:window-width="1920"
     inkscape:window-height="1017"
     inkscape:window-x="-8"
     inkscape:window-y="-8"
     inkscape:window-maximized="1" />
  <metadata
     id="metadata8498">
    <rdf:RDF>
      <cc:Work
         rdf:about="">
        <dc:format>image/svg+xml</dc:format>
        <dc:type
           rdf:resource="http://purl.org/dc/dcmitype/StillImage" />
        <dc:title></dc:title>
      </cc:Work>
    </rdf:RDF>
  </metadata>
  <g
     inkscape:label="Layer 1"
     inkscape:groupmode="layer"
     id="layer1"
     transform="translate(0,-26.06665)">
    <g
       id="g9068"
       transform="matrix(2.0651376,0,0,2.0651376,13.697302,-134.89995)">
      <path
         sodipodi:nodetypes="sssssssss"
         inkscape:connector-curvature="0"
         id="path1709-6"
         d="m 123.22033,143.54165 c 0,17.18682 -8.98334,30.72957 -20.24638,41.99261 -11.263056,11.26304 -26.822816,18.22936 -44.009659,18.22936 -17.186834,0 -32.746601,-2.93233 -44.009653,-14.19537 -11.2630491,-11.26304 -20.2463973,-28.83978 -20.2463973,-46.0266 0,-17.18682 8.9833482,-30.52786 20.2463973,-41.7909 11.263052,-11.26304 26.822819,-18.43107 44.009653,-18.43107 17.186843,0 32.746603,2.93233 44.009659,14.19537 11.26304,11.26304 20.24638,28.83978 20.24638,46.0266 z"
         style="opacity:1;fill:#ffffff;fill-opacity:0.07843137;fill-rule:evenodd;stroke:none;stroke-width:1.90583026;stroke-linecap:round;stroke-linejoin:miter;stroke-miterlimit:4;stroke-dasharray:none;stroke-opacity:0;paint-order:stroke fill markers" />
      <path
         sodipodi:nodetypes="sssssssss"
         inkscape:connector-curvature="0"
         id="path1709-1-6"
         d="m 6.3218957,143.54165 c 0,14.67994 7.3596933,26.24734 16.5870553,35.86754 9.22737,9.62021 21.97486,15.57042 36.055347,15.57042 14.080483,0 26.827978,-2.50462 36.055343,-12.12483 9.227359,-9.6202 16.587049,-24.63319 16.587049,-39.31313 0,-14.67994 -7.35969,-26.07504 -16.587049,-35.69526 -9.227365,-9.6202 -21.97486,-15.7427 -36.055343,-15.7427 -14.080487,0 -26.827977,2.50462 -36.055347,12.12483 -9.227362,9.6202 -16.5870553,24.63319 -16.5870553,39.31313 z"
         style="opacity:1;fill:#ffffff;fill-opacity:0.09803922;fill-rule:evenodd;stroke:none;stroke-width:1.59426093;stroke-linecap:round;stroke-linejoin:miter;stroke-miterlimit:4;stroke-dasharray:none;stroke-opacity:0;paint-order:stroke fill markers" />
      <path
         sodipodi:nodetypes="sssssssss"
         inkscape:connector-curvature="0"
         id="path1709-1-4-9"
         d="m 13.249347,143.54165 c 3.249397,-11.10401 5.65178,-21.28754 14.404289,-27.88661 9.71517,-7.32488 17.84522,-16.28363 30.072799,-16.28363 12.227568,0 24.535423,6.12512 32.54852,13.60473 8.013096,7.47959 15.243925,11.92499 16.261085,23.29305 1.54733,17.29334 -7.474319,35.28217 -15.487419,42.76177 -8.013097,7.47961 -20.475686,8.21673 -32.703254,6.82413 C 46.19633,184.47143 34.274141,181.89623 26.261039,174.41663 18.247942,166.93704 10.043823,154.49574 13.249347,143.54165 Z"
         style="opacity:1;fill:#ffffff;fill-opacity:0.11764706;fill-rule:evenodd;stroke:none;stroke-width:1.30998933;stroke-linecap:round;stroke-linejoin:miter;stroke-miterlimit:4;stroke-dasharray:none;stroke-opacity:0;paint-order:stroke fill markers" />
      <path
         sodipodi:nodetypes="sssssssss"
         inkscape:connector-curvature="0"
         id="path1709-1-4-7-0"
         d="m 21.131357,142.33811 c 2.516496,-8.57289 7.202883,-13.83565 11.546053,-21.88126 3.992086,-7.39523 16.677693,-11.00603 26.943365,-11.00603 10.265669,0 17.042987,7.84855 23.770386,14.04023 6.727399,6.19168 17.673169,8.30474 17.673169,17.75293 0,9.44819 -7.553973,21.92463 -14.281372,28.11631 -6.727396,6.19168 -17.990643,11.33576 -28.256309,11.33576 -10.265675,0 -21.4195,-2.59674 -24.973937,-10.42961 -3.778154,-8.32589 -15.082506,-18.86265 -12.421355,-27.92833 z"
         style="opacity:1;fill:#ffffff;fill-opacity:0.1372549;fill-rule:evenodd;stroke:none;stroke-width:1.09208477;stroke-linecap:round;stroke-linejoin:miter;stroke-miterlimit:4;stroke-dasharray:none;stroke-opacity:0;paint-order:stroke fill markers" />
      <path
         sodipodi:nodetypes="sssssssss"
         inkscape:connector-curvature="0"
         id="path1709-1-4-7-6-6"
         d="m 88.877333,143.54165 c 0,-8.23125 -6.624351,-13.40431 -11.637483,-18.7985 -5.01314,-5.39421 -11.50107,-8.51174 -19.150862,-8.51174 -7.649782,0 -12.715343,0.7479 -17.728483,6.1421 -5.013134,5.39418 -10.871597,12.82748 -10.871597,21.05873 0,8.23126 4.432641,15.22681 11.090421,18.37365 5.013139,2.3695 11.532121,10.08026 18.384962,10.57779 7.62971,0.55394 13.809485,-2.93617 18.822622,-8.33037 5.013132,-5.39418 11.09042,-12.2804 11.09042,-20.51166 z"
         style="opacity:1;fill:#ffffff;fill-opacity:0.15686275;fill-rule:evenodd;stroke:none;stroke-width:0.87992609;stroke-linecap:round;stroke-linejoin:miter;stroke-miterlimit:4;stroke-dasharray:none;stroke-opacity:0;paint-order:stroke fill markers" />
      <path
         sodipodi:nodetypes="sssssssss"
         inkscape:connector-curvature="0"
         id="path1709-1-4-7-6-5-6"
         d="m 80.093331,142.88517 c 0,-4.9794 -7.873921,-7.37126 -10.887075,-10.63442 -3.013165,-3.26316 -7.175807,-9.65796 -11.773744,-9.65796 -4.597927,0 -5.806424,6.86727 -8.819592,10.13043 -3.013149,3.26315 -9.027051,5.83903 -9.027051,10.81843 0,4.97941 4.591534,8.84462 7.604685,12.10775 3.013168,3.26318 7.17581,5.3399 11.773737,5.3399 4.597937,0 7.447626,-3.80371 10.460791,-7.06687 3.013154,-3.26315 10.668249,-6.05785 10.668249,-11.03726 z"
         style="opacity:1;fill:#ffffff;fill-opacity:0.17647059;fill-rule:evenodd;stroke:none;stroke-width:0.5305891;stroke-linecap:round;stroke-linejoin:miter;stroke-miterlimit:4;stroke-dasharray:none;stroke-opacity:0;paint-order:stroke fill markers" />
    </g>
  </g>
</svg>
