<?xml version="1.0" encoding="UTF-8" standalone="no"?>
<!-- Created with Inkscape (http://www.inkscape.org/) -->

<svg
   xmlns:dc="http://purl.org/dc/elements/1.1/"
   xmlns:cc="http://creativecommons.org/ns#"
   xmlns:rdf="http://www.w3.org/1999/02/22-rdf-syntax-ns#"
   xmlns:svg="http://www.w3.org/2000/svg"
   xmlns="http://www.w3.org/2000/svg"
   xmlns:xlink="http://www.w3.org/1999/xlink"
   xmlns:sodipodi="http://sodipodi.sourceforge.net/DTD/sodipodi-0.dtd"
   xmlns:inkscape="http://www.inkscape.org/namespaces/inkscape"
   width="1024"
   height="1024"
   viewBox="0 0 270.93333 270.93334"
   version="1.1"
   id="svg8501"
   inkscape:version="0.92.2 (5c3e80d, 2017-08-06)"
   sodipodi:docname="fear_spear_shockwave.svg">
  <defs
     id="defs8495">
    <radialGradient
       inkscape:collect="always"
       xlink:href="#linearGradient2553"
       id="radialGradient2509-0-3-7"
       cx="242.28273"
       cy="218.00296"
       fx="242.28273"
       fy="218.00296"
       r="63.238094"
       gradientUnits="userSpaceOnUse"
       gradientTransform="matrix(0.81471197,0,0,0.81471197,219.89508,-52.699528)" />
    <linearGradient
       id="linearGradient2553"
       inkscape:collect="always">
      <stop
         id="stop2545"
         offset="0"
         style="stop-color:#48f5ba;stop-opacity:0" />
      <stop
         style="stop-color:#4ef3b9;stop-opacity:0.09803922"
         offset="0.37799999"
         id="stop2555" />
      <stop
         id="stop2557"
         offset="0.80632079"
         style="stop-color:#50f2b9;stop-opacity:0.29411766" />
      <stop
         id="stop2549"
         offset="0.94499999"
         style="stop-color:#54f1b9;stop-opacity:1" />
      <stop
         id="stop2551"
         offset="1"
         style="stop-color:#4af0b5;stop-opacity:1" />
    </linearGradient>
  </defs>
  <sodipodi:namedview
     id="base"
     pagecolor="#ffffff"
     bordercolor="#666666"
     borderopacity="1.0"
     inkscape:pageopacity="0.0"
     inkscape:pageshadow="2"
     inkscape:zoom="0.49497475"
     inkscape:cx="-407.4788"
     inkscape:cy="712.06547"
     inkscape:document-units="mm"
     inkscape:current-layer="g2788-7-9"
     showgrid="false"
     units="px"
     inkscape:pagecheckerboard="true"
     inkscape:window-width="1920"
     inkscape:window-height="1017"
     inkscape:window-x="-8"
     inkscape:window-y="-8"
     inkscape:window-maximized="1" />
  <metadata
     id="metadata8498">
    <rdf:RDF>
      <cc:Work
         rdf:about="">
        <dc:format>image/svg+xml</dc:format>
        <dc:type
           rdf:resource="http://purl.org/dc/dcmitype/StillImage" />
        <dc:title></dc:title>
      </cc:Work>
    </rdf:RDF>
  </metadata>
  <g
     inkscape:label="Layer 1"
     inkscape:groupmode="layer"
     id="layer1"
     transform="translate(0,-26.06665)">
    <g
       transform="matrix(2.0307212,-1.4636272,1.4636272,2.0307212,-894.85081,520.28436)"
       id="g2788-7-9">
      <path
         sodipodi:nodetypes="sssssssssssssssssssssssssssssssssssssssss"
         inkscape:connector-curvature="0"
         id="path2490-8-3-7-7"
         transform="matrix(0.26458333,0,0,0.26458333,0,11.249983)"
         d="m 1577.1426,238.70703 c -105.4173,0 -190.875,85.45773 -190.875,190.875 0,105.41727 85.4577,190.875 190.875,190.875 105.4173,0 190.875,-85.45773 190.875,-190.875 0,-105.41727 -85.4577,-190.875 -190.875,-190.875 z m 52.5,36.29297 c 7.2099,1.34802 12.6096,7.73289 17.8574,12.85742 3.9522,3.85938 5.3914,10.16928 10,13.21485 6.5521,4.3299 15.9716,1.93626 22.8574,5.71289 8.1959,4.49517 16.8694,10.61452 20.3574,19.28711 2.8017,6.96622 -2.9036,15.21826 -1.0722,22.5 3.0476,12.11734 13.1204,21.27455 19.2851,32.14257 6.5959,11.62816 18.1879,22.0094 18.9297,35.35743 0.7826,14.08217 -8.3996,27.22667 -15.7148,39.28515 -4.6413,7.65072 -16.2264,11.50006 -17.5,20.35742 -1.9337,13.44808 19.7349,23.88028 16.7851,37.14258 -2.8596,12.85672 -18.4205,19.43892 -30,25.71485 -8.9422,4.84654 -21.5281,1.99154 -29.2851,8.57031 -5.4413,4.61477 -4.4891,14.003 -9.2852,19.28515 -8.7976,9.68924 -20.745,17.76061 -33.5722,20.35743 -8.8445,1.79054 -17.8886,-2.41726 -26.7852,-3.92774 -17.3326,-2.94278 -49.6424,-10 -51.7852,-10 -2.1429,0 -18.2148,-14.28655 -18.2148,-16.07226 0,-1.78572 -12.2781,-14.17232 -20,-19.28516 -10.8964,-7.21477 -23.0053,-15.16511 -36.0723,-15.35742 -5.8797,-0.0865 -10.5482,6.32557 -16.4277,6.42969 -11.8586,0.21 -28.873,-0.89735 -33.5723,-11.78711 -1.3937,-3.22966 4.0409,-6.13365 4.2871,-9.64258 0.182,-2.59363 -2.3832,-4.91116 -2.1425,-7.5 0.6653,-7.15629 7.7465,-12.35261 9.6425,-19.28516 2.2353,-8.17323 0.5347,-16.9768 1.7852,-25.35742 1.5684,-10.51118 3.5711,-23.57226 7.1426,-31.07227 3.5714,-7.49999 9.388,-20.06118 8.9297,-30.71289 -0.4116,-9.56442 -10.7146,-23.57281 -10.3575,-26.78711 0.3571,-3.21426 6.2673,-21.45448 13.9278,-28.92773 10.5646,-10.30639 30.6351,-7.11034 40.3574,-18.21484 4.9122,-5.6105 2.1325,-15.33201 6.4277,-21.42774 6.1308,-8.70065 15.745,-15.20282 25.7149,-18.92969 8.2793,-3.09489 17.7145,-3.61578 26.4297,-2.14257 9.8803,1.67017 17.5121,11.33457 27.5,12.14257 18.3903,1.48774 35.4342,-17.31861 53.5703,-13.92773 z"
         style="opacity:1;fill:#48f5ba;fill-opacity:0.09803922;fill-rule:evenodd;stroke:none;stroke-width:7.69806576;stroke-linecap:round;stroke-linejoin:miter;stroke-miterlimit:4;stroke-dasharray:none;stroke-opacity:1;paint-order:stroke fill markers" />
      <path
         sodipodi:nodetypes="sssssssssssssssssssssssssssssssssssssssss"
         inkscape:connector-curvature="0"
         id="path2490-8-3-4-8-0"
         d="m 417.28565,74.407885 c -27.89166,0 -50.50235,22.610691 -50.50235,50.502345 0,27.89165 22.61069,50.50234 50.50235,50.50234 27.89166,0 50.50234,-22.61069 50.50234,-50.50234 0,-27.891654 -22.61068,-50.502345 -50.50234,-50.502345 z m 13.89062,9.602515 c 1.90762,0.356664 3.33629,2.045994 4.72477,3.401859 1.04569,1.021128 1.42648,2.690622 2.64583,3.496429 1.73358,1.145619 4.22582,0.512302 6.04769,1.511536 2.1685,1.189347 4.46336,2.808425 5.38623,5.103047 0.74128,1.843146 -0.76824,4.026499 -0.28369,5.953129 0.80635,3.20604 3.47144,5.62889 5.10252,8.50438 1.74517,3.07662 4.81222,5.82332 5.00848,9.35499 0.20707,3.72591 -2.22239,7.20372 -4.15787,10.3942 -1.22801,2.02425 -4.29324,3.04272 -4.63021,5.38623 -0.51162,3.55814 5.22153,6.31832 4.44106,9.82731 -0.7566,3.40167 -4.87376,5.14321 -7.9375,6.80372 -2.36596,1.28231 -5.69598,0.52693 -7.74835,2.26756 -1.43968,1.22099 -1.18774,3.70496 -2.45671,5.10253 -2.3277,2.56361 -5.48878,4.69916 -8.88264,5.38623 -2.34011,0.47375 -4.73303,-0.63956 -7.08692,-1.03921 -4.58592,-0.77861 -13.13455,-2.64583 -13.7015,-2.64583 -0.56698,0 -4.81934,-3.77998 -4.81934,-4.25245 0,-0.47248 -3.24858,-3.74976 -5.29166,-5.10254 -2.88301,-1.9089 -6.08682,-4.01243 -9.54413,-4.06331 -1.55567,-0.0229 -2.79088,1.67364 -4.3465,1.70119 -3.13758,0.0556 -7.63931,-0.23743 -8.88267,-3.11868 -0.36875,-0.85451 1.06916,-1.62286 1.1343,-2.55126 0.0481,-0.68623 -0.63056,-1.29941 -0.56687,-1.98438 0.17602,-1.89343 2.04959,-3.26829 2.55124,-5.10253 0.59143,-2.1625 0.14148,-4.49178 0.47234,-6.70915 0.41497,-2.78108 0.94485,-6.23683 1.88981,-8.22121 0.94493,-1.98437 2.48391,-5.30785 2.36265,-8.12611 -0.1089,-2.53059 -2.83491,-6.23698 -2.74042,-7.08743 0.0945,-0.85044 1.65822,-5.67649 3.68506,-7.65379 2.79522,-2.726901 8.10554,-1.881279 10.6779,-4.819345 1.29968,-1.484445 0.56422,-4.056594 1.70066,-5.669423 1.62211,-2.302047 4.16586,-4.022412 6.80373,-5.00848 2.19057,-0.818856 4.68696,-0.956675 6.99286,-0.566888 2.61416,0.441899 4.63341,2.998938 7.27604,3.212721 4.86577,0.393631 9.3753,-4.582215 14.17381,-3.685045 z"
         style="opacity:1;fill:#48f5ba;fill-opacity:0.09803922;fill-rule:evenodd;stroke:none;stroke-width:2.03677988;stroke-linecap:round;stroke-linejoin:miter;stroke-miterlimit:4;stroke-dasharray:none;stroke-opacity:1;paint-order:stroke fill markers" />
      <path
         inkscape:connector-curvature="0"
         transform="matrix(0.26458333,0,0,0.26458333,0,11.249983)"
         id="path2490-8-2-1-9"
         d="m 1577.1426,238.70703 a 190.87537,190.87537 0 0 0 -190.875,190.875 190.87537,190.87537 0 0 0 190.875,190.875 190.87537,190.87537 0 0 0 190.875,-190.875 190.87537,190.87537 0 0 0 -190.875,-190.875 z m 22.2988,51.15235 c 4.3495,-0.0613 8.519,0.61551 12.2578,2.72656 6.1101,3.44993 4.2697,15.16824 10.6055,18.18359 6.9231,3.2949 17.2963,-8.94795 22.7285,-3.53711 3.9812,3.96556 -4.9306,11.58948 -2.5254,16.66797 5.3637,11.32523 27.5021,7.62717 32.3242,19.19336 2.9383,7.04776 -5.5055,14.58703 -5.5547,22.22266 -0.061,9.51469 3.3228,18.83436 6.5665,27.77929 4.62,12.74079 17.0162,22.8628 18.1816,36.36524 0.3023,3.50241 -1.0664,7.1852 -3.0293,10.10156 -5.5497,8.24515 -19.709,9.39684 -23.2344,18.68945 -3.2103,8.46225 6.2196,17.87314 4.5449,26.76758 -0.9082,4.8237 -4.3461,8.93103 -7.5761,12.62695 -6.3846,7.30545 -17.3586,10.10165 -22.7266,18.1836 -7.1651,10.78779 -0.021,29.91519 -10.6074,37.375 -6.2068,4.37374 -15.1363,-1.40867 -22.7285,-1.51563 -4.3802,-0.0616 -9.0579,-1.10168 -13.1328,0.50586 -7.6613,3.0223 -10.5195,15.10789 -18.6875,16.16211 -10.2305,1.32042 -21.6726,-5.32327 -27.7793,-13.63672 -2.6219,-3.56934 0.7436,-9.67171 -2.0196,-13.13281 -4.2913,-5.37513 -12.4871,-9.10359 -19.1933,-7.57617 -6.0404,1.37575 -6.7068,15.46373 -12.627,13.63867 -6.5075,-2.00613 0.5079,-14.38416 -3.0293,-20.20312 -4.3207,-7.10786 -12.8696,-10.72295 -20.2031,-14.64844 -5.5419,-2.96648 -12.0786,-3.70943 -17.6777,-6.56641 -3.785,-1.9313 -9.835,-2.89193 -10.6075,-7.07031 -1.1633,-6.29322 9.3167,-9.51316 11.1114,-15.65625 1.9379,-6.63364 3.4149,-15.40022 -1.0098,-20.70898 -5.203,-6.24269 -20.5135,1.90282 -23.7383,-5.55665 -2.9335,-6.78553 8.4487,-12.29512 11.1113,-19.1914 4.0321,-10.44291 2.1532,-22.77355 7.0704,-32.83008 3.5696,-7.30072 15.4227,-10.56619 15.6582,-18.68945 0.2372,-8.17886 -16.469,-11.72054 -14.6465,-19.69727 4.5288,-19.82158 49.0917,-8.56287 54.0429,-28.2832 2.6268,-10.46208 -19.4036,-16.05196 -18.1835,-26.76953 1.0645,-9.35114 11.5775,-16.91423 20.7089,-19.19336 8.9544,-2.23495 17.5385,7.07522 26.7676,7.07031 8.535,-0.005 16.2951,-5.39866 24.75,-6.56445 7.089,-0.97745 14.8387,-3.1303 22.0879,-3.23242 z"
         style="opacity:1;fill:#48f5ba;fill-opacity:0.03921569;fill-rule:evenodd;stroke:none;stroke-width:7.69806576;stroke-linecap:round;stroke-linejoin:miter;stroke-miterlimit:4;stroke-dasharray:none;stroke-opacity:1;paint-order:stroke fill markers" />
      <circle
         r="50.502441"
         cy="124.91011"
         cx="417.28571"
         id="path2490-8-7-0"
         style="opacity:1;fill:url(#radialGradient2509-0-3-7);fill-opacity:1;fill-rule:evenodd;stroke:#48f5ba;stroke-width:2.03677988;stroke-linecap:round;stroke-linejoin:miter;stroke-miterlimit:4;stroke-dasharray:none;stroke-opacity:1;paint-order:stroke fill markers" />
      <path
         inkscape:connector-curvature="0"
         id="path2675-2-6"
         transform="matrix(0.26458333,0,0,0.26458333,0,11.249983)"
         d="m 1537.8574,233.57227 -40,12.85546 c 0,0 -7.1428,5.71597 -10,7.14454 -2.8571,1.42857 -3.5722,7.85546 -3.5722,7.85546 l -30,12.85743 -29.2852,24.28711 5,7.14257 -21.4277,28.57032 -14.2871,22.14257 -2.1426,22.85743 -11.4278,29.28711 -0.7148,25 c 0,0 5.714,14.28544 7.1426,17.14257 1.4285,2.85714 -7.1426,42.14258 -7.1426,42.14258 l 22.8574,20.71485 7.8574,14.28515 5,17.85742 13.168,4.07618 c 3.5205,4.33661 7.231,8.51156 11.1113,12.52148 a 190.87537,190.87537 0 0 0 0.5957,0.60156 c 4.2256,4.32829 8.6571,8.4529 13.2754,12.36524 a 190.87537,190.87537 0 0 0 0.5957,0.50586 c 1.8071,1.51823 3.6327,3.01537 5.4961,4.46679 l 1.4707,2.60547 15.7149,17.14258 15.1777,0.60742 c 12.1433,6.03433 25.0178,10.81174 38.459,14.16602 l 15.6484,11.65429 27.1446,-0.71289 12.1425,-5 h 32.8575 l 23.5703,1.42774 14.2851,-12.85742 19.2871,-12.14258 38.5704,-24.28516 -0.5,-10.02148 c 2.6261,-2.69248 5.1838,-5.45154 7.6484,-8.29492 l 19.9941,-10.25586 -1.5898,-14.84961 c 12.441,-20.22741 21.2121,-42.95131 25.3945,-67.2461 0.9488,-1.34432 4.0528,-5.76172 4.0528,-5.76172 l 9.2871,-25 -11.4297,-32.14257 c 0,0 -0.9352,-1.54103 -2.1348,-3.64454 -1.1836,-6.59483 -2.7142,-13.06905 -4.5566,-19.41015 1.6678,-7.54712 4.5488,-18.37305 4.5488,-18.37305 0,0 -7.8574,-20.71458 -12.8574,-22.85742 -5,-2.14286 -17.8569,-18.57198 -22.1426,-20.71484 -4.2857,-2.14286 -12.8574,-23.57032 -12.8574,-23.57032 0,0 -12.1434,-19.28571 -15.7149,-20 -3.5714,-0.71428 -14.9988,-1.42968 -18.5703,-1.42968 -0.663,0 -1.8229,-0.29557 -3.2969,-0.79493 -10.3282,-6.58024 -21.331,-12.19376 -32.8828,-16.71484 -10.21,-6.43139 -24.6298,-15.34766 -28.1054,-15.34766 -2.1346,0 -12.6447,1.44467 -23.9395,3.08594 -5.7615,-0.52353 -11.5923,-0.80664 -17.4902,-0.80664 -4.4322,0 -8.8253,0.16622 -13.1817,0.46485 a 190.87537,190.87537 0 0 0 -0.6347,0.0508 c -3.3669,0.24199 -6.7146,0.55145 -10.0313,0.96484 z m 39.2852,9.14257 a 186.86706,186.86706 0 0 1 186.8672,186.86719 186.86706,186.86706 0 0 1 -186.8672,186.86719 186.86706,186.86706 0 0 1 -186.8672,-186.86719 186.86706,186.86706 0 0 1 186.8672,-186.86719 z"
         style="fill:#48f5ba;fill-opacity:1;stroke:none;stroke-width:0.99999994px;stroke-linecap:butt;stroke-linejoin:miter;stroke-opacity:1" />
    </g>
  </g>
</svg>
