<?xml version="1.0" encoding="UTF-8" standalone="no"?>
<svg
   width="512"
   height="512"
   viewBox="0 0 135.46666 135.46667"
   version="1.1"
   id="svg41751"
   inkscape:version="1.1-dev (fb4e0d3, 2020-08-16)"
   sodipodi:docname="patapon-ready-mark_0.svg"
   xmlns:inkscape="http://www.inkscape.org/namespaces/inkscape"
   xmlns:sodipodi="http://sodipodi.sourceforge.net/DTD/sodipodi-0.dtd"
   xmlns="http://www.w3.org/2000/svg"
   xmlns:svg="http://www.w3.org/2000/svg">
  <defs
     id="defs41747" />
  <sodipodi:namedview
     id="base"
     pagecolor="#ffffff"
     bordercolor="#666666"
     borderopacity="1.0"
     inkscape:pageopacity="0.0"
     inkscape:pageshadow="2"
     inkscape:zoom="0.98994949"
     inkscape:cx="220.21325"
     inkscape:cy="127.7843"
     inkscape:document-units="mm"
     inkscape:current-layer="layer1"
     showgrid="false"
     units="px"
     inkscape:pagecheckerboard="true"
     inkscape:window-width="1920"
     inkscape:window-height="1017"
     inkscape:window-x="1912"
     inkscape:window-y="-8"
     inkscape:window-maximized="1" />
  <g
     inkscape:label="Layer 1"
     inkscape:groupmode="layer"
     id="layer1">
    <g
       id="g41827"
       transform="matrix(2.0365357,0,0,2.0365357,-61.586686,-9.2428692)">
      <path
         style="color:#000000;font-style:normal;font-variant:normal;font-weight:normal;font-stretch:normal;font-size:medium;line-height:normal;font-family:sans-serif;font-variant-ligatures:normal;font-variant-position:normal;font-variant-caps:normal;font-variant-numeric:normal;font-variant-alternates:normal;font-feature-settings:normal;text-indent:0;text-align:start;text-decoration:none;text-decoration-line:none;text-decoration-style:solid;text-decoration-color:#000000;letter-spacing:normal;word-spacing:normal;text-transform:none;writing-mode:lr-tb;direction:ltr;text-orientation:mixed;dominant-baseline:auto;baseline-shift:baseline;text-anchor:start;white-space:normal;shape-padding:0;clip-rule:nonzero;display:inline;overflow:visible;visibility:visible;opacity:1;isolation:auto;mix-blend-mode:normal;color-interpolation:sRGB;color-interpolation-filters:linearRGB;solid-color:#000000;solid-opacity:1;vector-effect:none;fill:#fffefe;fill-opacity:1;fill-rule:evenodd;stroke:none;stroke-width:10.8346;stroke-linecap:round;stroke-linejoin:round;stroke-miterlimit:4;stroke-dasharray:none;stroke-dashoffset:0;stroke-opacity:1;color-rendering:auto;image-rendering:auto;shape-rendering:auto;text-rendering:auto;enable-background:accumulate"
         d="m 63.500027,4.792969 c -18.162889,0 -33.004736,14.8418 -33.004736,33.004601 0,18.1629 14.841847,33.004699 33.004736,33.004699 18.162842,0 33.004681,-14.841799 33.004681,-33.004699 0,-18.162801 -14.841839,-33.004601 -33.004681,-33.004601 z m 0,10.8346 c 12.30743,0 22.170041,9.8626 22.170041,22.170001 0,12.307398 -9.862611,22.170099 -22.170041,22.170099 -12.307409,0 -22.170089,-9.862701 -22.170089,-22.170099 0,-12.307401 9.86268,-22.170001 22.170089,-22.170001 z"
         id="path4485"
         inkscape:connector-curvature="0" />
      <path
         style="opacity:1;vector-effect:none;fill:#fffefe;fill-opacity:1;fill-rule:evenodd;stroke:none;stroke-width:2.0411;stroke-linecap:round;stroke-linejoin:miter;stroke-miterlimit:4;stroke-dasharray:none;stroke-dashoffset:0;stroke-opacity:1"
         d="M 73.949137,20.638569 A 4.3119101,16.65192 29.07401 0 0 62.088097,33.097171 4.3119101,16.65192 29.07401 0 0 57.009909,46.41007 l -2.289721,-1.273299 c 1.65498,-2.057101 3.49398,-6.215502 4.788909,-11.227001 1.908511,-7.396501 1.890461,-13.742401 -0.0343,-14.174801 -1.927302,-0.431 -5.036071,5.214 -6.946271,12.612499 -1.10575,4.286602 -1.54637,8.179602 -1.36177,10.814101 l -4.75461,-2.643601 -3.94592,7.096901 25.18385,14.002401 3.94598,-7.096901 -4.673349,-2.5986 a 3.5743621,13.83293 43.54722 0 0 8.332388,-6.812801 3.5743621,13.83293 43.54722 0 0 7.045052,-12.552 3.5743621,13.83293 43.54722 0 0 -12.058422,7.451302 3.5743621,13.83293 43.54722 0 0 -6.98672,9.874499 l -2.248728,-1.250501 a 4.3119101,16.65192 29.07401 0 0 8.6204,-11.343198 4.3119101,16.65192 29.07401 0 0 4.32339,-16.650101 z"
         id="rect4951"
         inkscape:connector-curvature="0" />
    </g>
  </g>
</svg>
