<?xml version="1.0" encoding="UTF-8" standalone="no"?>
<!-- Created with Inkscape (http://www.inkscape.org/) -->

<svg
   width="22"
   height="22"
   viewBox="0 0 5.8208334 5.8208334"
   version="1.1"
   id="svg719"
   inkscape:version="1.1 (c68e22c387, 2021-05-23)"
   sodipodi:docname="fire.svg"
   xmlns:inkscape="http://www.inkscape.org/namespaces/inkscape"
   xmlns:sodipodi="http://sodipodi.sourceforge.net/DTD/sodipodi-0.dtd"
   xmlns="http://www.w3.org/2000/svg"
   xmlns:svg="http://www.w3.org/2000/svg">
  <sodipodi:namedview
     id="namedview721"
     pagecolor="#ffffff"
     bordercolor="#666666"
     borderopacity="1.0"
     inkscape:pageshadow="2"
     inkscape:pageopacity="0.0"
     inkscape:pagecheckerboard="0"
     inkscape:document-units="mm"
     showgrid="false"
     width="64mm"
     units="px"
     inkscape:zoom="11.859035"
     inkscape:cx="-6.9567212"
     inkscape:cy="9.0648185"
     inkscape:window-width="1920"
     inkscape:window-height="1017"
     inkscape:window-x="1912"
     inkscape:window-y="-8"
     inkscape:window-maximized="1"
     inkscape:current-layer="g3898" />
  <defs
     id="defs716" />
  <g
     inkscape:label="Layer 1"
     inkscape:groupmode="layer"
     id="layer1">
    <g
       id="g3898"
       transform="matrix(0.07764784,0,0,0.07764784,65.712524,-55.703357)">
      <g
         transform="matrix(0.43316091,0,0,0.43316091,-523.34286,364.95255)"
         id="g3823">
        <path
           style="opacity:1;fill:#fec287;fill-opacity:1;fill-rule:evenodd;stroke:none;stroke-width:0.447859;stroke-linejoin:miter;stroke-miterlimit:4;stroke-dasharray:none;stroke-opacity:1;paint-order:stroke fill markers"
           d="m -699.30548,866.41378 c 0,0 -12.57813,25.73798 6.99884,63.22847 -28.62956,-1.54701 -26.11733,-57.45891 -15.46989,-72.16001 -9.22488,4.50446 -18.30156,30.86996 -18.32675,46.36959 -1.9e-4,32.90952 30.75119,63.98438 67.07795,63.9842 36.32676,1.8e-4 65.7755,-26.67831 65.77531,-59.58783 -0.007,-13.56367 -5.12074,-26.71943 -14.49767,-37.29351 0,0 7.44817,20.8236 -3.46565,19.47882 -0.73312,-8.40189 -5.38839,-21.09763 -8.27468,-29.95185 3.51028,26.01468 -3.35909,49.05835 -15.97312,68.09657 -2.46539,5.09193 -5.44157,10.69649 -10.68695,13.58357 -1.99391,1.09745 -4.59904,0.96697 -6.93045,0.88696 -5.75174,-0.19744 -12.6066,0.15313 -16.86591,-3.3541 -29.0506,-30.12029 -29.36103,-73.28088 -29.36103,-73.28088 z"
           id="path3763-1"
           inkscape:connector-curvature="0"
           sodipodi:nodetypes="ccccccccccsscc" />
        <path
           style="fill:#7e000a;fill-opacity:1;stroke:none;stroke-width:0.398984px;stroke-linecap:butt;stroke-linejoin:miter;stroke-opacity:1"
           d="m -658.39002,969.12105 c -39.57907,0 -41.22627,-43.15646 -28.38628,-93.01161 5.22365,8.22855 12.93028,18.31396 18.0127,21.39403 4.16856,-20.54766 8.43024,-41.09533 10.77256,-61.64299 6.66141,26.4581 13.25435,52.92305 21.74462,79.19827 0,0 5.43098,-0.94491 10.09145,-17.1684 0,0 14.15984,71.2307 -32.23505,71.2307 z"
           id="path3755"
           inkscape:connector-curvature="0"
           sodipodi:nodetypes="scccccs" />
        <path
           style="fill:#ffc289;fill-opacity:1;stroke:none;stroke-width:0.398984px;stroke-linecap:butt;stroke-linejoin:miter;stroke-opacity:1"
           d="m -657.29074,915.23508 c -37.60735,7.61933 -32.97155,44.3127 -0.002,45.00858 31.18594,0.65823 16.45808,-45.3844 16.45808,-45.3844 -1.1143,9.27598 -1.57027,19.38163 -7.08196,25.03623 -2.4693,-3.38975 -4.27659,-7.25237 -4.88755,-11.96951 -1.80915,4.95405 -3.96566,9.90809 -7.87993,14.86214 -14.4796,-5.38965 -1.0249,-22.48283 3.39344,-27.55304 z"
           id="path3757"
           inkscape:connector-curvature="0"
           sodipodi:nodetypes="csccccc" />
        <path
           style="fill:#7f0004;fill-opacity:1;stroke:none;stroke-width:0.398984px;stroke-linecap:butt;stroke-linejoin:miter;stroke-opacity:1"
           d="m -685.02219,852.41831 c -1.91713,-1.36776 -1.78691,4.57058 -3.59085,6.0845 -1.08801,0.91309 -3.40414,0.20219 -3.98984,1.49619 -1.50998,3.33607 1.89546,10.36644 3.89009,10.27383 3.4862,-0.16186 5.37495,-16.65284 3.6906,-17.85452 z"
           id="path3759"
           inkscape:connector-curvature="0"
           sodipodi:nodetypes="sssss" />
        <path
           style="fill:#7f0004;fill-opacity:1;stroke:none;stroke-width:0.398984px;stroke-linecap:butt;stroke-linejoin:miter;stroke-opacity:1"
           d="m -625.47386,895.70804 c -0.60044,0.43668 -3.84642,-18.59511 -2.5934,-30.32277 0.6874,-6.43376 -1.88113,-11.16761 -0.0997,-20.24842 0,0 8.10444,10.94349 6.18424,19.64995 -3.33989,15.14355 -3.4911,30.92124 -3.4911,30.92124 z"
           id="path3761"
           inkscape:connector-curvature="0"
           sodipodi:nodetypes="cscscc" />
      </g>
    </g>
  </g>
</svg>
