<?xml version="1.0" encoding="UTF-8" standalone="no"?>
<!-- Created with Inkscape (http://www.inkscape.org/) -->

<svg
   xmlns:dc="http://purl.org/dc/elements/1.1/"
   xmlns:cc="http://creativecommons.org/ns#"
   xmlns:rdf="http://www.w3.org/1999/02/22-rdf-syntax-ns#"
   xmlns:svg="http://www.w3.org/2000/svg"
   xmlns="http://www.w3.org/2000/svg"
   xmlns:sodipodi="http://sodipodi.sourceforge.net/DTD/sodipodi-0.dtd"
   xmlns:inkscape="http://www.inkscape.org/namespaces/inkscape"
   width="20.681826"
   height="20.681826"
   viewBox="0 0 5.4720663 5.4720665"
   version="1.1"
   id="svg1457"
   inkscape:version="0.92.2 (5c3e80d, 2017-08-06)"
   sodipodi:docname="ScoreLabelElimination.svg">
  <defs
     id="defs1451" />
  <sodipodi:namedview
     id="base"
     pagecolor="#ffffff"
     bordercolor="#666666"
     borderopacity="1.0"
     inkscape:pageopacity="0.0"
     inkscape:pageshadow="2"
     inkscape:zoom="7.9195959"
     inkscape:cx="13.03097"
     inkscape:cy="30.536498"
     inkscape:document-units="mm"
     inkscape:current-layer="layer1"
     showgrid="false"
     units="px"
     fit-margin-top="0"
     fit-margin-left="0"
     fit-margin-right="0"
     fit-margin-bottom="0"
     inkscape:window-width="1920"
     inkscape:window-height="1017"
     inkscape:window-x="-8"
     inkscape:window-y="-8"
     inkscape:window-maximized="1" />
  <metadata
     id="metadata1454">
    <rdf:RDF>
      <cc:Work
         rdf:about="">
        <dc:format>image/svg+xml</dc:format>
        <dc:type
           rdf:resource="http://purl.org/dc/dcmitype/StillImage" />
        <dc:title></dc:title>
      </cc:Work>
    </rdf:RDF>
  </metadata>
  <g
     inkscape:label="Layer 1"
     inkscape:groupmode="layer"
     id="layer1"
     transform="translate(-243.85183,-70.234838)">
    <path
       id="path23473-3"
       d="m 242.95658,70.660778 c 0.13751,0.799406 0.26303,1.290189 0.50524,2.048154 -0.33409,0.09025 -0.64002,-0.185719 -0.95642,-0.32489 0.40816,0.470403 0.86839,0.918359 1.58795,1.254107 0.16946,0.226962 0.33193,0.388905 0.59545,0.550344 -0.19007,0.225993 -0.30777,0.512265 -0.29408,0.908053 0.39355,-0.209978 0.6436,-0.528278 1.39198,-0.470125 l 0.80113,0.654219 v 3.44e-4 l 0.80119,-0.65429 c 0.74838,-0.05815 0.99844,0.26015 1.39199,0.470124 0.0137,-0.395786 -0.10402,-0.682058 -0.29408,-0.908052 0.26351,-0.161438 0.42598,-0.32338 0.59544,-0.550343 0.71956,-0.335748 1.17979,-0.783705 1.58795,-1.254108 -0.3164,0.139172 -0.62233,0.415143 -0.95642,0.32489 0.24221,-0.757964 0.36773,-1.248746 0.50524,-2.048153 -1.02966,1.465172 -1.95,2.1485 -2.82388,2.499202 -0.80734,-0.978663 -0.80734,-0.978028 -0.80734,-0.978028 v -6.35e-4 l -8e-5,2.65e-4 v 7.5e-5 c 0,0 8e-5,2.95e-4 -0.80734,0.978014 -0.87388,-0.350694 -1.79422,-1.034022 -2.82387,-2.499187 z"
       style="fill:#ffffff;fill-opacity:1;fill-rule:evenodd;stroke:none;stroke-width:0.05052374px;stroke-linecap:butt;stroke-linejoin:miter;stroke-opacity:1"
       inkscape:connector-curvature="0"
       sodipodi:nodetypes="cccccccccccccccccccccccc" />
  </g>
</svg>
