<?xml version="1.0" encoding="UTF-8" standalone="no"?>
<!-- Created with Inkscape (http://www.inkscape.org/) -->

<svg
   xmlns:dc="http://purl.org/dc/elements/1.1/"
   xmlns:cc="http://creativecommons.org/ns#"
   xmlns:rdf="http://www.w3.org/1999/02/22-rdf-syntax-ns#"
   xmlns:svg="http://www.w3.org/2000/svg"
   xmlns="http://www.w3.org/2000/svg"
   xmlns:sodipodi="http://sodipodi.sourceforge.net/DTD/sodipodi-0.dtd"
   xmlns:inkscape="http://www.inkscape.org/namespaces/inkscape"
   width="64"
   height="64"
   viewBox="0 0 16.933333 16.933334"
   version="1.1"
   id="svg8"
   sodipodi:docname="vector_ability_bottom.svg"
   inkscape:version="0.92.2 (5c3e80d, 2017-08-06)">
  <defs
     id="defs2" />
  <sodipodi:namedview
     id="base"
     pagecolor="#000000"
     bordercolor="#666666"
     borderopacity="1.0"
     inkscape:pageopacity="0"
     inkscape:pageshadow="2"
     inkscape:zoom="15.839192"
     inkscape:cx="8.9998176"
     inkscape:cy="39.870466"
     inkscape:document-units="mm"
     inkscape:current-layer="g839"
     showgrid="false"
     units="px"
     inkscape:window-width="1920"
     inkscape:window-height="1017"
     inkscape:window-x="-8"
     inkscape:window-y="-8"
     inkscape:window-maximized="1" />
  <metadata
     id="metadata5">
    <rdf:RDF>
      <cc:Work
         rdf:about="">
        <dc:format>image/svg+xml</dc:format>
        <dc:type
           rdf:resource="http://purl.org/dc/dcmitype/StillImage" />
        <dc:title />
      </cc:Work>
    </rdf:RDF>
  </metadata>
  <g
     inkscape:label="Layer 1"
     inkscape:groupmode="layer"
     id="layer1"
     transform="translate(0,-280.06665)">
    <g
       id="g839"
       transform="matrix(0,1.2953349,-1.2953349,0,383.80378,277.8039)">
      <path
         style="fill:#ffffff;fill-opacity:1;stroke:none;stroke-width:3.30378985;stroke-linecap:butt;stroke-linejoin:round;stroke-miterlimit:4;stroke-dasharray:none;stroke-opacity:1"
         d="M 42.027344 21.447266 A 1.6520601 1.6520601 0 0 0 40.677734 22.265625 L 40.658203 22.304688 L 40.648438 22.314453 C 40.638646 22.334819 38.507475 26.673828 32.003906 26.673828 C 25.500387 26.673828 23.359597 22.334819 23.349609 22.314453 L 23.339844 22.304688 L 23.320312 22.265625 A 1.6520601 1.6520601 0 0 0 20.433594 23.863281 C 20.433594 23.863281 20.462891 23.892284 20.462891 23.892578 L 20.453125 23.900391 L 30.560547 41.724609 A 1.6520601 1.6520601 0 0 0 33.4375 41.724609 L 43.544922 23.900391 L 43.535156 23.892578 C 43.535352 23.892282 43.564453 23.863281 43.564453 23.863281 A 1.6520601 1.6520601 0 0 0 43.755859 23.070312 A 1.6520601 1.6520601 0 0 0 42.027344 21.447266 z "
         transform="matrix(0,-0.20425863,0.20425863,0,1.7468455,296.29695)"
         id="path815" />
    </g>
  </g>
</svg>
