<?xml version="1.0" encoding="UTF-8" standalone="no"?>
<svg
   xmlns:dc="http://purl.org/dc/elements/1.1/"
   xmlns:cc="http://creativecommons.org/ns#"
   xmlns:rdf="http://www.w3.org/1999/02/22-rdf-syntax-ns#"
   xmlns:svg="http://www.w3.org/2000/svg"
   xmlns="http://www.w3.org/2000/svg"
   xmlns:sodipodi="http://sodipodi.sourceforge.net/DTD/sodipodi-0.dtd"
   xmlns:inkscape="http://www.inkscape.org/namespaces/inkscape"
   width="2000"
   height="1000"
   viewBox="0 0 529.16666 264.58332"
   version="1.1"
   id="svg2968"
   inkscape:version="1.0.1 (3bc2e813f5, 2020-09-07)"
   sodipodi:docname="default_greatshield.svg">
  <defs
     id="defs2962" />
  <sodipodi:namedview
     id="base"
     pagecolor="#ffffff"
     bordercolor="#666666"
     borderopacity="1.0"
     inkscape:pageopacity="0.0"
     inkscape:pageshadow="2"
     inkscape:zoom="1"
     inkscape:cx="-147.46065"
     inkscape:cy="1024.0125"
     inkscape:document-units="mm"
     inkscape:current-layer="layer1"
     showgrid="false"
     units="px"
     inkscape:window-width="1920"
     inkscape:window-height="1017"
     inkscape:window-x="1912"
     inkscape:window-y="-8"
     inkscape:window-maximized="1"
     inkscape:document-rotation="0"
     inkscape:pagecheckerboard="true" />
  <metadata
     id="metadata2965">
    <rdf:RDF>
      <cc:Work
         rdf:about="">
        <dc:format>image/svg+xml</dc:format>
        <dc:type
           rdf:resource="http://purl.org/dc/dcmitype/StillImage" />
        <dc:title></dc:title>
      </cc:Work>
    </rdf:RDF>
  </metadata>
  <g
     inkscape:label="Layer 1"
     inkscape:groupmode="layer"
     id="layer1"
     transform="translate(0,-32.41668)">
    <g
       id="g1744"
       transform="translate(-264.20715,127.05745)">
      <path
         id="path1276"
         style="fill:#000000;fill-opacity:1;stroke:none;stroke-width:2.31447px;stroke-linecap:butt;stroke-linejoin:miter;stroke-opacity:1"
         d="M 0 577.75586 C -93.221886 672.83311 -186.44424 698.61136 -279.66602 706.03711 C -329.22183 1073.4863 -164.05946 1261.6761 0 1382.6777 L 0 1344.3242 L -2.2070312 1343.3496 C -59.769308 1317.9603 -137.56714 1251.1665 -194.39453 1148.4902 C -251.22192 1045.814 -286.71245 907.18159 -258.19727 738.97266 L -257.48047 734.77148 L -253.23633 734.43164 C -169.8784 727.79169 -87.312036 700.53102 -3.90625 615.46484 L 0 611.48633 L 0 577.75586 z M 0 626.77344 C -82.370936 709.04725 -165.50259 737.51792 -247.92188 744.82617 C -274.75501 908.72216 -240.11025 1043.3052 -184.82812 1143.1895 C -129.80387 1242.6079 -54.234816 1307.4812 0 1332.209 L 0 1308.293 L -1.3300781 1307.7012 C -52.983185 1284.9183 -123.30952 1224.6253 -174.61914 1131.918 C -225.92875 1039.2107 -257.99288 914.04835 -232.22656 762.05469 L -231.79883 759.53711 L -229.25195 759.33008 C -153.46369 753.29304 -78.160973 728.50225 -2.3476562 651.17969 L 0 648.78711 L 0 626.77344 z M 0 657.96289 C -75.188737 733.59367 -150.84872 759.13232 -226.0625 765.56836 C -250.81651 914.97354 -219.26478 1037.7051 -168.88281 1128.7363 C -118.65221 1219.494 -49.650357 1278.6388 0 1301.0215 L 0 1148.8535 C -0.002 1148.8545 -0.00290625 1148.8564 -0.00390625 1148.8574 C -74.675615 1093.7835 -149.84645 1008.1276 -127.29102 840.88281 C -82.344376 840.88281 -28.122516 824.12338 -0.00390625 782.49609 C -0.00390625 782.49609 0 1030.9976 0 1148.8535 L 0 694.86133 A 7.5541717 7.5541717 0 0 0 -0.001953125 694.86133 A 7.5541717 7.5541717 0 0 1 -7.5566406 687.30859 A 7.5541717 7.5541717 0 0 1 -0.080078125 679.75391 A 7.5541717 7.5541717 0 0 1 -0.001953125 679.75391 A 7.5541717 7.5541717 0 0 0 0 679.75391 L 0 657.96289 z M -208.23438 776.83789 A 7.5541718 7.5541718 0 0 1 -208.1543 776.83789 A 7.5541718 7.5541718 0 0 1 -200.59961 784.39258 A 7.5541718 7.5541718 0 0 1 -208.1543 791.94727 A 7.5541718 7.5541718 0 0 1 -215.70898 784.39258 A 7.5541718 7.5541718 0 0 1 -208.23438 776.83789 z M -191.22461 1029.2383 A 7.5541718 7.5541718 0 0 1 -191.14453 1029.2383 A 7.5541718 7.5541718 0 0 1 -183.58984 1036.793 A 7.5541718 7.5541718 0 0 1 -191.14453 1044.3477 A 7.5541718 7.5541718 0 0 1 -198.69922 1036.793 A 7.5541718 7.5541718 0 0 1 -191.22461 1029.2383 z M -68.429688 1213.9141 A 7.5541718 7.5541718 0 0 1 -68.349609 1213.9141 A 7.5541718 7.5541718 0 0 1 -60.794922 1221.4688 A 7.5541718 7.5541718 0 0 1 -68.349609 1229.0234 A 7.5541718 7.5541718 0 0 1 -75.904297 1221.4688 A 7.5541718 7.5541718 0 0 1 -68.429688 1213.9141 z "
         transform="matrix(0.26458333,0,0,0.26458333,264.20715,-94.64077)" />
    </g>
  </g>
</svg>
