<?xml version="1.0" encoding="UTF-8" standalone="no"?>
<!-- Created with Inkscape (http://www.inkscape.org/) -->

<svg
   xmlns:dc="http://purl.org/dc/elements/1.1/"
   xmlns:cc="http://creativecommons.org/ns#"
   xmlns:rdf="http://www.w3.org/1999/02/22-rdf-syntax-ns#"
   xmlns:svg="http://www.w3.org/2000/svg"
   xmlns="http://www.w3.org/2000/svg"
   xmlns:xlink="http://www.w3.org/1999/xlink"
   xmlns:sodipodi="http://sodipodi.sourceforge.net/DTD/sodipodi-0.dtd"
   xmlns:inkscape="http://www.inkscape.org/namespaces/inkscape"
   width="512"
   height="512"
   viewBox="0 0 135.46666 135.46667"
   version="1.1"
   id="svg8"
   inkscape:version="0.92.2 (5c3e80d, 2017-08-06)"
   sodipodi:docname="OnHalved_Outline.svg">
  <defs
     id="defs2">
    <linearGradient
       inkscape:collect="always"
       id="linearGradient1034">
      <stop
         style="stop-color:#ffffff;stop-opacity:1"
         offset="0"
         id="stop1030" />
      <stop
         style="stop-color:#ffffff;stop-opacity:0"
         offset="1"
         id="stop1032" />
    </linearGradient>
    <linearGradient
       inkscape:collect="always"
       id="linearGradient937">
      <stop
         style="stop-color:#ffffff;stop-opacity:0.58823532"
         offset="0"
         id="stop933" />
      <stop
         id="stop949"
         offset="0.25"
         style="stop-color:#ffffff;stop-opacity:0.68627453" />
      <stop
         id="stop945"
         offset="0.5"
         style="stop-color:#ffffff;stop-opacity:0.9848485" />
      <stop
         style="stop-color:#ffffff;stop-opacity:0.68627453"
         offset="0.75"
         id="stop947" />
      <stop
         style="stop-color:#ffffff;stop-opacity:0.58823532"
         offset="1"
         id="stop935" />
    </linearGradient>
    <linearGradient
       inkscape:collect="always"
       xlink:href="#linearGradient937"
       id="linearGradient943"
       x1="256.82355"
       y1="91.815384"
       x2="198.67931"
       y2="210.55841"
       gradientUnits="userSpaceOnUse"
       gradientTransform="translate(7.6561157,83.248484)" />
    <radialGradient
       inkscape:collect="always"
       xlink:href="#linearGradient1034"
       id="radialGradient1036"
       cx="352.3208"
       cy="150.17191"
       fx="352.3208"
       fy="150.17191"
       r="28.575415"
       gradientTransform="matrix(1,0,0,1.9992315,6.355996,23.5594)"
       gradientUnits="userSpaceOnUse" />
  </defs>
  <sodipodi:namedview
     id="base"
     pagecolor="#ffffff"
     bordercolor="#666666"
     borderopacity="1.0"
     inkscape:pageopacity="0.0"
     inkscape:pageshadow="2"
     inkscape:zoom="1.4"
     inkscape:cx="95.500824"
     inkscape:cy="340.25458"
     inkscape:document-units="mm"
     inkscape:current-layer="layer1"
     showgrid="false"
     inkscape:pagecheckerboard="true"
     units="px"
     inkscape:window-width="1920"
     inkscape:window-height="1017"
     inkscape:window-x="-8"
     inkscape:window-y="-8"
     inkscape:window-maximized="1" />
  <metadata
     id="metadata5">
    <rdf:RDF>
      <cc:Work
         rdf:about="">
        <dc:format>image/svg+xml</dc:format>
        <dc:type
           rdf:resource="http://purl.org/dc/dcmitype/StillImage" />
        <dc:title />
      </cc:Work>
    </rdf:RDF>
  </metadata>
  <g
     inkscape:label="Layer 1"
     inkscape:groupmode="layer"
     id="layer1"
     transform="translate(0,-161.53332)">
    <g
       id="g1041"
       transform="translate(-31.749997,82.020824)">
      <path
         style="color:#000000;font-style:normal;font-variant:normal;font-weight:normal;font-stretch:normal;font-size:medium;line-height:normal;font-family:sans-serif;font-variant-ligatures:normal;font-variant-position:normal;font-variant-caps:normal;font-variant-numeric:normal;font-variant-alternates:normal;font-feature-settings:normal;text-indent:0;text-align:start;text-decoration:none;text-decoration-line:none;text-decoration-style:solid;text-decoration-color:#000000;letter-spacing:normal;word-spacing:normal;text-transform:none;writing-mode:lr-tb;direction:ltr;text-orientation:mixed;dominant-baseline:auto;baseline-shift:baseline;text-anchor:start;white-space:normal;shape-padding:0;clip-rule:nonzero;display:inline;overflow:visible;visibility:visible;opacity:1;isolation:auto;mix-blend-mode:normal;color-interpolation:sRGB;color-interpolation-filters:linearRGB;solid-color:#000000;solid-opacity:1;vector-effect:none;fill:#ffffff;fill-opacity:1;fill-rule:nonzero;stroke:none;stroke-width:9.44881916;stroke-linecap:butt;stroke-linejoin:miter;stroke-miterlimit:4;stroke-dasharray:none;stroke-dashoffset:0;stroke-opacity:1;color-rendering:auto;image-rendering:auto;shape-rendering:auto;text-rendering:auto;enable-background:accumulate"
         d="M 339.88867 21.849609 L 338.35742 22.232422 L 127.13672 74.921875 L 126.31641 300.66602 C 126.05309 373.1922 153.27399 420.0661 180.64648 448.45508 C 208.01897 476.84402 235.81445 487.08594 235.81445 487.08594 L 236.38867 487.29688 L 301.52734 493.93359 L 303.5918 492.4082 C 303.5918 492.4082 415.05469 408.26197 415.05469 293.87695 C 415.05469 293.86257 415.05469 293.84837 415.05469 293.83398 L 415.05469 53.679688 L 339.88867 21.849609 z M 339.11328 31.78125 L 395.76758 55.775391 L 194.99219 109.57031 L 144.3418 80.367188 L 339.11328 31.78125 z M 405.60547 62.919922 L 405.60547 293.83398 L 405.60547 293.87695 C 405.60505 295.49898 405.58047 297.11494 405.5332 298.72461 C 405.53305 298.7298 405.53336 298.73505 405.5332 298.74023 C 405.45084 301.53597 405.2842 304.30751 405.06641 307.06445 C 399.83513 372.99216 356.68309 427.88495 327 458.31836 C 312.90704 472.69897 302.0007 481.41345 300.00781 482.97852 C 296.65205 481.6567 274.92246 472.79782 250.93164 447.85547 C 225.0348 420.93151 199.05273 376.80356 199.05273 306.63281 L 199.05273 118.26172 L 405.60547 62.919922 z M 136.54297 86.779297 L 189.60352 117.37109 L 189.60352 306.63281 C 189.60352 379.15216 216.81519 426.01744 244.11914 454.4043 C 255.94317 466.6973 267.82747 475.57572 277.51172 481.70508 L 238.60547 478.01562 C 237.30249 477.52671 212.72165 468.10743 187.44922 441.89648 C 161.49103 414.97434 135.5109 370.86417 135.76562 300.70117 L 136.54297 86.779297 z "
         transform="matrix(0.26458333,0,0,0.26458333,31.749997,79.512496)"
         id="path826" />
    </g>
    <path
       inkscape:connector-curvature="0"
       style="fill:none;stroke:#000000;stroke-width:2.5;stroke-linecap:butt;stroke-linejoin:miter;stroke-miterlimit:4;stroke-dasharray:none;stroke-opacity:1"
       d="m -51.282676,-81.654888 -54.941344,13.705106 -0.21343,58.7555853 c -0.13706,37.7531687 28.152288,48.1453787 28.152288,48.1453787 l 16.744199,1.5875 c 0,0 28.998746,-22.09017 28.998746,-51.533803 v -62.723818 z"
       id="path826-7" />
    <path
       style="fill:none;stroke:#000000;stroke-width:2.5;stroke-linecap:butt;stroke-linejoin:miter;stroke-miterlimit:4;stroke-dasharray:none;stroke-opacity:1"
       d="m -32.542215,-73.731734 -57.150828,15.313523 v 50.7988613 c 0,37.7534217 28.152088,48.1453517 28.152088,48.1453517 0,0 28.99874,-22.08978 28.99874,-51.533423 z"
       id="path826-4-5-8"
       inkscape:connector-curvature="0"
       sodipodi:nodetypes="ccsccc" />
    <path
       style="fill:none;stroke:#000000;stroke-width:2.5;stroke-linecap:butt;stroke-linejoin:miter;stroke-miterlimit:4;stroke-dasharray:none;stroke-opacity:1"
       d="m -89.693045,-58.418211 -16.530975,-9.531571"
       id="path897-8"
       inkscape:connector-curvature="0" />
  </g>
</svg>
