<?xml version="1.0" encoding="UTF-8" standalone="no"?>
<!-- Created with Inkscape (http://www.inkscape.org/) -->

<svg
   width="1452.3834"
   height="3863.2773"
   viewBox="0 0 384.27646 1022.1588"
   version="1.1"
   id="svg7158"
   inkscape:version="1.1 (c68e22c387, 2021-05-23)"
   sodipodi:docname="v_obelisk.svg"
   xmlns:inkscape="http://www.inkscape.org/namespaces/inkscape"
   xmlns:sodipodi="http://sodipodi.sourceforge.net/DTD/sodipodi-0.dtd"
   xmlns="http://www.w3.org/2000/svg"
   xmlns:svg="http://www.w3.org/2000/svg">
  <sodipodi:namedview
     id="namedview7160"
     pagecolor="#ffffff"
     bordercolor="#666666"
     borderopacity="1.0"
     inkscape:pageshadow="2"
     inkscape:pageopacity="0.0"
     inkscape:pagecheckerboard="0"
     inkscape:document-units="mm"
     showgrid="false"
     fit-margin-top="0"
     fit-margin-left="0"
     fit-margin-right="0"
     fit-margin-bottom="0"
     units="px"
     inkscape:zoom="0.092648709"
     inkscape:cx="-221.2659"
     inkscape:cy="1279.0248"
     inkscape:window-width="1920"
     inkscape:window-height="1017"
     inkscape:window-x="1912"
     inkscape:window-y="-8"
     inkscape:window-maximized="1"
     inkscape:current-layer="g5066" />
  <defs
     id="defs7155" />
  <g
     inkscape:label="Layer 1"
     inkscape:groupmode="layer"
     id="layer1"
     transform="translate(53.276434,374.71643)">
    <g
       id="g5066"
       transform="matrix(6.124516,0,0,6.124516,-1662.1469,-967.82529)">
      <path
         sodipodi:nodetypes="cscccsscccccsscccccccccccccccccccsssscccccccccccccczzcccccc"
         inkscape:connector-curvature="0"
         id="path4792"
         transform="matrix(0.2645833,0,0,0.2645833,0,58.87508)"
         d="m 1103.203,143.4961 c 0,0 -25.147,49.1095 -39.512,72.6309 -6.29,10.2987 -9.933,14.3356 -20.39,29.914 l 0.187,38.2715 -7.396,-27.4258 c -8.791,13.3319 -16.433,25.4379 -16.848,27.9297 -0.598,3.5915 -17.753,22.9074 -16.133,41.0332 2.178,24.3717 6.535,73.1152 6.535,73.1152 l -14.771,-28.6894 4.1973,108.1953 4.5157,7.3672 1.514,49.498 c 0,0 -3.036,0.5471 -3.758,1.7207 -7.8183,12.7145 -0.532,29.9915 1.736,44.7442 5.833,37.9463 30.307,111.1172 30.307,111.1172 l 13.051,29.9394 h -12.153 l -17.142,2.8574 -15.713,7.1426 -8.5726,41.4278 237.1426,-2.8575 -4.285,-32.8574 -10.002,-5.7129 -9.998,-2.8574 -12.858,1.4277 -22.857,-8.5703 h -26.564 l 33.968,-121.0156 -4.617,-7.918 0.504,-5.5566 v -8.0801 l 10.607,-3.5351 0.686,-0.4844 c 0,0 29.037,-91.1523 38.711,-137.9082 0.74,-3.5744 1.72,-7.2103 1.467,-10.8516 -0.212,-3.0546 -1.846,-5.8495 -2.477,-8.8457 -0.491,-2.3297 -0.843,-4.6955 -1.012,-7.0703 -0.347,-4.8705 0,-14.6484 0,-14.6484 v -12.627 l 1.516,-12.1211 1.344,-3.5137 -7.908,-60.6308 -5.053,-34.3457 -7.387,-10.9024 -5.238,-2.7343 -5.557,-0.5059 -3.031,-7.0703 -6.564,-11.6172 -3.538,-11.6172 0.506,-11.1113 v -1.1758 c 0,0 -15.889,-35.9512 -20.279,-46.3931 -4.39,-10.4419 -1.314,-13.389 -6.49,-16.0698 -5.176,-2.6808 -17.172,4.041 -17.172,4.041 l -10.608,2.5254 -6.06,2.5254 -5.557,26.2637 -5.554,-37.8809 z"
         style="fill:#141414;fill-opacity:1;fill-rule:evenodd;stroke:none;stroke-width:1px;stroke-linecap:butt;stroke-linejoin:miter;stroke-opacity:1" />
      <path
         sodipodi:nodetypes="ccczcccccccccccccccccccczcccccccccccccccczcccccccccccccccssccccsscczc"
         inkscape:connector-curvature="0"
         id="path4796"
         transform="matrix(0.2645833,0,0,0.2645833,0,58.87508)"
         d="m 1117.857,272.8574 c -3.656,0.019 -7.304,0.3597 -10.9,1.0196 l 3.109,16.8085 c 2.572,-0.4542 -4.071,1.752 7.791,-0.6855 11.862,-2.4375 28.515,4.9899 35.063,16.8145 l 5.295,-5.0293 0.355,-3.9278 5.686,-4.1054 c -11.775,-13.2683 -28.659,-20.8717 -46.399,-20.8946 z M 1095.75,277 c -16.801,5.3077 -29.9,17.5195 -36.322,37.1328 l 0.726,1.7461 1.77,1.5156 v 3.0313 l -1.012,4.293 -4.058,-1.2188 c -0.642,3.3634 -1.004,6.7741 -1.084,10.1973 l 3.626,2.1328 2.78,4.5449 -3.885,12.1836 c 0.639,2.2085 1.4,4.3798 2.279,6.5039 h 2.11 l 6.06,-5.5547 7.563,-1.334 c -2.262,-5.4436 -3.818,-7.2255 -4.339,-19.4952 -0.521,-12.2698 5.739,-34.2217 26.827,-38.9258 z m 79.197,33.498 -7.443,0.9297 -7.858,3.9297 -1.078,0.5879 c 2.807,5.961 4.272,12.4657 4.289,19.0547 -0.02,7.0446 -1.688,13.9867 -4.878,20.2676 l 0.236,4.7304 v 5 l -3.93,4.2852 v 7.5 l -6.072,5 -4.643,0.3594 -3.927,-3.5703 -4.702,-1.9805 c -5.418,2.238 -9.426,5.0219 -17.084,5.7296 -7.658,0.7078 -18.588,-1.2791 -26.228,-10.8038 l -0.158,0.1719 -10.608,11.6171 -1.287,0.6192 c 10.927,8.5566 24.403,13.2094 38.281,13.2168 35.372,1.6244 64.014,-27.0407 63.393,-62.3212 0,-8.4254 -2.975,-16.5831 -6.303,-24.3234 z m -57.09,1.6446 c -1.261,0.01 -2.519,0.1217 -3.761,0.3379 l 2.123,11.4785 h -2.274 l -3.031,-3.0293 -2.777,0.2519 -1.674,-5.9726 c -2.097,1.2119 -2.559,2.9278 -4.173,4.7333 0,0 -0.827,4.546 -1.041,6.8434 -0.156,1.6605 1.063,3.8856 -0.178,5 -1.433,1.2877 -5.766,-0.4146 -5.766,-0.4146 -0.198,1.1996 -0.3,2.4131 -0.305,3.6289 0.01,2.7032 0.504,5.3827 1.453,7.9141 l 2.088,0.4921 c 0,0 2.374,0.098 3.283,0.7579 1.191,0.8657 2.398,2.3198 2.274,3.7871 -0.11,1.3049 -2.557,2.9824 -2.557,2.9824 4.286,4.4085 10.167,6.9043 16.316,6.9238 11.683,-0.9272 20.178,-11.9606 22.858,-22.8574 2.68,-10.8968 -8.065,-22.8579 -22.858,-22.8574 z"
         style="opacity:1;vector-effect:none;fill:#ffffff;fill-opacity:1;fill-rule:nonzero;stroke:none;stroke-width:3.86846;stroke-linecap:round;stroke-linejoin:round;stroke-miterlimit:4;stroke-dasharray:none;stroke-dashoffset:0;stroke-opacity:1;paint-order:markers fill stroke" />
      <path
         sodipodi:nodetypes="cccccccsccccccc"
         inkscape:connector-curvature="0"
         id="path4865"
         d="m 294.1767,169.4089 c -0.2652,-0.012 -0.5478,0.083 -0.8189,0.2456 v 0.028 l -0.3858,0.7202 -0.2956,0.5913 -0.4244,0.4631 -0.2469,0.136 c 0,0.033 0,0.066 0,0.098 0,0.8214 0.7236,1.5832 1.4584,1.8061 l 0.04,-0.06 0.3859,-0.733 c 0.2011,0.3043 0.1811,0.5717 0.184,0.843 0.7665,-0.1196 1.4194,-0.919 1.5323,-1.7108 0.1225,-0.8584 -0.342,-2.2781 -1.3277,-2.4187 -0.031,0 -0.062,-0.01 -0.093,-0.01 z"
         style="fill:#ffffff;fill-opacity:1;fill-rule:evenodd;stroke:none;stroke-width:0.101839px;stroke-linecap:butt;stroke-linejoin:miter;stroke-opacity:1" />
      <path
         sodipodi:nodetypes="ccczzzzzzzcccccccccccccc"
         inkscape:connector-curvature="0"
         id="path4875"
         d="m 283.145,227.4201 c -0.4953,0.07 -0.9894,0.161 -1.4668,0.3125 0.1618,-0.2861 -0.5104,-0.3271 -0.5104,-0.3271 0,0 -1.2104,0.3845 -1.4595,0.5748 -0.2491,0.1903 -0.098,0.1828 -0.1868,0.2501 -0.088,0.067 -0.2183,0.036 -0.3302,0.1288 -0.1119,0.093 -0.4861,0.1855 -0.2729,0.4417 0.2132,0.2562 1.0616,-0.48 1.3799,-0.5361 0.3183,-0.056 0.3813,-0.1588 0.4589,0.01 0.078,0.1688 -0.5445,0.3337 -0.4161,0.5071 0.1284,0.1734 0.2371,-0.1202 0.5904,-0.2435 1.5949,-0.6641 2.3494,0.083 4.4359,-0.1253 0.3326,-0.043 0.5603,-0.3078 0.7421,-0.5652 0.067,-0.071 0.3119,-0.4005 0.096,-0.1992 -0.1088,0.089 -0.3146,0.3312 -0.3679,0.3342 0.1536,-0.2098 0.3553,-0.3907 0.4758,-0.6211 -0.2642,0.1688 -0.4728,0.4275 -0.6936,0.6533 -0.061,0.097 -0.3129,0.289 -0.233,0.3657 0.1963,-0.1263 0.51,-0.2664 0.5017,-0.5378 -0.1204,-0.2277 -0.4186,-0.2539 -0.6439,-0.3197 -0.6586,-0.1666 -1.385,-0.1833 -2.0017,0.1377 -0.1224,0.016 -0.3265,0.2853 -0.3418,0.2842 0.1261,-0.143 0.2876,-0.3129 0.245,-0.5212 z"
         style="opacity:1;vector-effect:none;fill:#ffffff;fill-opacity:1;fill-rule:nonzero;stroke:none;stroke-width:1.01246;stroke-linecap:round;stroke-linejoin:round;stroke-miterlimit:4;stroke-dasharray:none;stroke-dashoffset:0;stroke-opacity:1;paint-order:markers fill stroke" />
      <path
         inkscape:connector-curvature="0"
         id="path4877"
         d="m 290.43,228.2119 c 0.7316,-0.4516 0.7628,0.7357 1.4202,0.011 0.6032,0.1751 1.5033,-0.048 2.2749,-0.057 0.5681,-0.1106 2.4984,-0.081 1.465,0.6814 -0.81,0.468 -2.1219,-0.2934 -3.1299,0.1868 -0.4095,0.1194 -1.6095,-0.01 -1.1431,-0.092 0.6129,-0.5707 0.8063,-0.779 0.094,-0.065 -0.3682,0.4836 -1.0184,0.4799 -1.0835,-0.045 -0.9224,0.4369 -0.1276,-0.2603 0.1023,-0.6242 z"
         style="opacity:1;vector-effect:none;fill:#ffffff;fill-opacity:1;fill-rule:nonzero;stroke:none;stroke-width:1.01246;stroke-linecap:round;stroke-linejoin:round;stroke-miterlimit:4;stroke-dasharray:none;stroke-dashoffset:0;stroke-opacity:1;paint-order:markers fill stroke" />
      <path
         inkscape:connector-curvature="0"
         id="path4879"
         d="m 279.2952,232.8371 c 0.6699,-0.3804 0.8616,-0.6516 0.1892,0 -0.578,0.5374 1.3192,-1.2546 0.1256,-0.1228 -0.6577,0.6067 1.2,-1.1299 0.1004,-0.092 -0.6441,0.5965 1.3106,-1.2443 0.1789,-0.1527 -0.931,0.8889 1.2106,-1.1848 0.2042,-0.2126 -0.9292,0.9603 1.2739,-1.8432 0.8449,-0.014 1.0118,0.6196 2.2812,-1.3074 3.0523,-0.1946 0.4329,0.5317 1.8085,-0.058 1.9017,0.2459 -0.3525,0.7001 -1.0665,0.8253 -1.7984,0.7339 -0.8452,-0.2837 -1.4178,-0.9251 -2.3395,-0.2008 -0.7626,0.7827 -1.7679,-0.1771 -1.5809,-0.4846 0.4218,-0.4038 0.8405,-0.7859 0.2138,-0.1365 -0.4037,0.4052 -1.2102,1.1522 -0.3273,0.3115 0.4027,-0.3822 -1.2073,1.1418 -0.2248,0.2027 1.0749,-1.027 -1.0802,1.0455 -0.089,0.087 1.0033,-0.9184 -1.5486,1.5154 -0.8416,0.5341 0.1301,-0.1677 0.2611,-0.3348 0.3906,-0.5028 z"
         style="opacity:1;vector-effect:none;fill:#ffffff;fill-opacity:1;fill-rule:nonzero;stroke:none;stroke-width:1.01246;stroke-linecap:round;stroke-linejoin:round;stroke-miterlimit:4;stroke-dasharray:none;stroke-dashoffset:0;stroke-opacity:1;paint-order:markers fill stroke" />
      <path
         inkscape:connector-curvature="0"
         id="path4881"
         d="m 288.688,232.129 c -0.4684,0.3196 -1.2584,0.8413 -1.1145,1.5196 0.2313,0.1949 0.7821,-1.2765 1.4343,-0.5347 0.9787,0.4036 1.8545,0.1454 2.7604,-0.1007 0.825,0.3949 1.9363,1.3245 2.8589,0.5803 0.8466,0.061 1.6113,-0.2967 2.4489,-0.292 0.2498,-0.2215 1.1441,-0.9635 0.1649,-0.7606 -0.7649,0.3501 -1.6957,0.064 -2.3836,0.5219 -0.8816,0.1665 -1.7214,-0.3808 -2.4379,-0.7659 -0.8885,-0.222 -1.6603,0.7189 -2.5982,0.08 -0.3943,-0.01 -0.7313,-0.2542 -1.1332,-0.248 z"
         style="opacity:1;vector-effect:none;fill:#ffffff;fill-opacity:1;fill-rule:nonzero;stroke:none;stroke-width:1.01246;stroke-linecap:round;stroke-linejoin:round;stroke-miterlimit:4;stroke-dasharray:none;stroke-dashoffset:0;stroke-opacity:1;paint-order:markers fill stroke" />
      <path
         sodipodi:nodetypes="ccccccccccccccccccccccccccccccccc"
         inkscape:connector-curvature="0"
         id="path4883"
         d="m 280.2826,237.5568 c 0.1556,-0.078 0.3699,-0.283 0.51,-0.2634 -0.084,0.1232 -0.416,0.3893 -0.3964,0.3595 0.1573,-0.1493 0.4377,-0.4185 0.5273,-0.4966 -0.098,0.079 -0.3253,0.3384 -0.3624,0.3158 0.35,-0.3125 0.7409,-0.618 1.2028,-0.7378 0.3275,-0.049 0.5702,0.2771 0.9009,0.2954 0.4128,0.093 0.8484,0.089 1.2525,-0.041 0.1766,-0.2022 0.4208,-0.3977 1.1021,-0.7565 0.3723,-0.1692 0.4359,0.3342 0.3926,0.5871 -0.031,0.2837 0.419,0.1455 0.3855,0.1587 -0.1148,0.074 -0.3881,0.4068 -0.4119,0.3518 0.2739,-0.307 0.6123,-0.6157 1.034,-0.678 0.3327,-0.084 0.3795,0.3771 0.6605,0.3472 0.3196,-0.032 0.5873,0.325 0.2537,0.527 -0.1146,0.1165 -0.36,0.1898 -0.1787,-0.036 0.1546,-0.1878 0.4209,-0.5235 0.6665,-0.4388 -0.1081,0.2733 -0.2696,0.5457 -0.4663,0.7667 -0.3369,0.2414 -0.7703,0.052 -1.1017,-0.1034 -0.2372,-0.095 -0.4488,-0.2873 -0.7061,-0.3118 0.032,-0.031 0.3511,-0.3944 0.3771,-0.3302 -0.2419,0.2828 -0.5264,0.5654 -0.8888,0.6803 -0.3573,0.073 -0.3727,-0.3823 -0.3361,-0.6254 -0.036,-0.3666 -0.4592,-0.02 -0.6113,0.099 -0.1189,0.084 -0.4882,0.445 -0.2048,0.1637 0.1078,-0.095 0.3617,-0.406 0.3993,-0.3842 -0.3366,0.3684 -0.7257,0.7393 -1.2187,0.8749 -0.2399,0.023 -0.4506,-0.066 -0.6947,-0.027 -0.5064,-0.034 -0.965,-0.4347 -1.4849,-0.2783 -0.1713,0.1334 0.031,0.1807 -0.9575,0.637 -0.2442,-0.054 0.1326,-0.3883 0.2242,-0.512 0.042,-0.048 0.092,-0.093 0.1312,-0.1433 z"
         style="opacity:1;vector-effect:none;fill:#ffffff;fill-opacity:1;fill-rule:nonzero;stroke:none;stroke-width:1.01246;stroke-linecap:round;stroke-linejoin:round;stroke-miterlimit:4;stroke-dasharray:none;stroke-dashoffset:0;stroke-opacity:1;paint-order:markers fill stroke" />
      <path
         sodipodi:nodetypes="zzzzz"
         inkscape:connector-curvature="0"
         id="path4902"
         d="m 292.8371,235.5789 c -0.7121,0.032 -1.318,1.2524 -1.134,1.9372 0.184,0.6848 1.2089,1.1697 1.7481,0.9921 0.5392,-0.1776 0.6246,-0.7072 0.567,-1.2756 -0.058,-0.5684 -0.469,-1.686 -1.1811,-1.6537 z"
         style="fill:#ffffff;fill-opacity:1;fill-rule:evenodd;stroke:none;stroke-width:0.264583px;stroke-linecap:butt;stroke-linejoin:miter;stroke-opacity:1" />
    </g>
  </g>
</svg>
